<mxfile host="app.diagrams.net" modified="2021-08-27T15:23:54.444Z" agent="5.0 (Windows NT 10.0; Win64; x64) AppleWebKit/537.36 (KHTML, like Gecko) Chrome/92.0.4515.159 Safari/537.36" etag="pDnis2YZAipC3ZLBQGPQ" version="14.9.9" type="github">
  <diagram id="CexQuUM7Xz4Hs1qkOfGg" name="Page-1">
    <mxGraphModel dx="2059" dy="626" grid="1" gridSize="10" guides="1" tooltips="1" connect="1" arrows="1" fold="1" page="1" pageScale="1" pageWidth="850" pageHeight="1100" math="0" shadow="0">
      <root>
        <mxCell id="0" />
        <mxCell id="1" parent="0" />
        <mxCell id="ckjhUO3sgyrDexyQKixq-1" value="" style="shape=image;verticalLabelPosition=bottom;labelBackgroundColor=#ffffff;verticalAlign=top;aspect=fixed;imageAspect=0;image=data:image/png,iVBORw0KGgoAAAANSUhEUgAABB0AAAGVCAYAAACy3omMAAAgAElEQVR4AeydB3wcxdnGaWnwpUIIkFATWgo99BZCDQmEbgM21TZgwOAqGxtjsDHBvfeGmyzJRZZlWbK6rN577/0kXa+7t/d8v3f29nSSu5GwLb8rj/dud3Z25j9zuzvPvvPOWR4PwIEZcBvgNsBtgNsAtwFuA9wGuA1wG+A2wG2A2wC3AW4Dfd0GzgIvTIAJMAEmwASYABNgAkyACTABJsAEmAAT6AcCLDr0A1ROkgkwASbABJgAE2ACTIAJMAEmwASYABMAWHTgVsAEmAATYAJMgAkwASbABJgAE2ACTIAJ9AsBFh36BSsnygSYABNgAkyACTABJsAEmAATYAJMgAmw6MBtgAkwASbABJgAE2ACTIAJMAEmwASYABPoFwIsOvQLVk6UCTABJsAEmAATYAJMgAkwASbABJgAE2DRgdsAE2ACTIAJMAEmwASYABNgAkyACTABJtAvBFh06BesnCgTYAJMgAkwASbABJgAE2ACTIAJMAEmwKIDtwEmwASYABNgAkyACTABJsAEmAATYAJMoF8IsOjQL1g5USbABJgAE2ACTIAJMAEmwASYABNgAkyARQduA0yACTABJsAEmAATYAJMgAkwASbABJhAvxBg0aFfsHKiTIAJMAEmwASYABNgAkyACTABJsAEmACLDtwGmAATYAJMgAkwASbABJgAE2ACTIAJMIF+IcCiQ79g5USZABM4XgIeABQOt3ig/h1uv7ZdS0ekpX3RdvKaCTABJsAEmAATYAJMgAkwgR+UAIsOPyhuPhkTYAIHEfAKA+pKSAUHRaENJDnAQ8GrTmhrv9japsOn4heZPzIBJsAEmAATYAJMgAkwASbQ7wRYdOh3xHwCJsAEjkhAUwq0SL2/e7d3iw6a+HCwtKAdStpED3FCS5vXTIAJMAEmwASYABNgAkyACfygBFh0+EFx88mYABPwJ+CTDXqLBL4d/rFVawfF44aiuL2DLTzwCIXBG8+rR/QQHA6TVs+U+RsTYAJMgAkwASbABJgAE2AC/UGARYf+oMppMgEmcMwEFLcCh80Fh1P2agUH+24QcRwuWMx22ExOWMxOOJ0SFH/Bgc5IooPigeSURZpu2QNFEyKOOUcckQkwASbABJgAE2ACTIAJMIG+IsCiQ1+R5HSYwBlCQJUEvOYD/ivNosBv9IPmguGwaDyAtdOK/ORyFBc3wqX4DYvwHkSWDDarA9VljchJKkdefDUyY0pRU9kKWVFHUfjS9wAuu4y64mZkJ5bA2OGEW8uPSFoM0hDihu+Y7/lBTfHQiWiseq57jvzQsB06BW9cKsPBaHzWHoc79ofcrpaxO5+9z60x6L2dvzMBJsAEmAATYAJMgAkMbAIsOgzs+uXSMYE+J6B4FLg9bjGsQXa6Yey0oKvDjE6dCfouK6wmCU67B7IbosPv9naW/XvNWgcaCtBR14Eda6IQFpoOi6u7Z61Ql9orGNhtLjRUt6E8uwkFsfUIW5OM9AOVcMgApe9LG4Dd5ERWbBFCN8agpd7QLTp4yOpBgexR6LSq8HC0Hv9h6FEHWv1HefQqH72EATedR5HhViRvkL3n90DyuH35EJYYfkVQ2ajpKooHVHaTyQEX8fTFU7vwbo8MSZF8xfdx1fJ9hPJpcbW1dohYaxu9615ffefzffCo+RVlPgRbyi0Ni6H8Uh30To82HLStR4b4CxNgAkyACTABJsAEmMDpSoBFh9O15jjfTOAkEKDOIwkOQnSQPeis1mPf1lRE7cxDdHge4veVIDu+GeUFnTBa3HB6ANnXUVYzTEICbRNigQJ01nVh95pY7AnNhNHRHZk64wcFCeisNSMhqAgZKbWwympaWo9ViBQyYOuUoGu0wOVU09AsLqi7K5P4oLE7gZ6u2t0/WHSgc2hiBiVLQz+EQKO44fYGWVHg8ihwKJJYkxWGCBTfG7QsUZlcVgnleQ1ITa6AwegR3LrzTnUhw0XChpdntyhxdFFFO4//WmDx3+AnBvQom1Z/fnHJIsXt8cujtk9UqSZKqL44tLL61l52/ufQqojXTIAJMAEmwASYABNgAqc3ARYdTu/649wzgR+cgGrpoAAS0JzfhpBl8SjJMqGzC2iul7B/RxnWLtmHqko9rE4FBqMder1VWD5Qp9IlKdAbnDAYHXDLfqLDjnR06CXoyWqi1QCzwQ63pHXGvZ18N4kORsQGZouOuEUGJCFOeOB0utDVaUJnixFdLWbodVZIsp8Q4AEkWRFWAx3tJuha9ehqN8Kot8DpkIRVxbHAVNwe2CwukT/JrsBmdqGzXbXycEnUuQbckgKbxQl9pxVtrQbo2kwwGhxwSYBTUWB3y7A5JRgMNnTozNDpzOjqssNkdkFyk18KVXBoq+5CUlgRdmzJQGW5BboOK4xGO2RJta5QFMBuV2DQO9BOZdKZoTfY4HSRNYpXeDhMoYT1gbBAABw2CWa9DU6rBIfZCQOVp9MMu1OGTCKRAjjsiigDnaet3YQuvR1OpweUB6ddQleHBV0GBwxWGR1dFhBjs8kp6l3oD5SOS4HF6IBOZ0J7uxFdnVbYbLJInwQTTYSg+LwwASbABJgAE2ACTIAJDAwCLDoMjHrkUjCBH4yA7wW2BDTltyBw2T6UFnTALgMOK5Cf3IAVC7ajrKAFJr0DyVHFiAzLhNlMHW5Ap3MgIaoaSbGVcNi9osPaOIRuSUFhdiuSIwsQseUAksLz0dVkE51a0QkVvXnAUGtE/NZsZCRXCUsHEh3cshu6lg6kJeQiaVc2or/LRnRgHixd3R1ZRfagvcmIpH0F2LMlFWGByYjdm4W0A0Wor+8QAsWxdHYdFhnFaY1ICM1HfaER5VmtiNyejpg9OehqdwjTC2OLGdmJFYgLL8Ke4HREbM9GcmQlmutscEiA3eFGdXkrYvZmInJXFqLDipCwtwrJMVXoaHdBdgK6Gj3iQ7OxZWk8Vs2Lxb7tpUiOLEdRdj3Megc8bsCil1GZq0daZA1id+UjZlc+EiNKUV3RBbuLZIVuyxH/BiIEB+8wGZdTQXVhKxJCc1Ce2YyqrCYk7MhEVGgmqur0ol6NBkmcJ3VfNaJ25mJvSC7iwspRXWqC1Q7UlLdj5+ZkRIWVID+3C/FxpQgLSUNSdDl07U4hKjjtMhrKOpCyrwTRoTmICs1GTGg+8jMaYNSrcchSQgyr8c8sf2YCTIAJMAEmwASYABM4rQmw6HBaVx9nngn88AR6iA55Ldi8OAL5mW3oMkjoaLEhM6EKm1bvRUNlFywddsSG5iJwUzw6DYCDRIc2J2J2VSI8NB8WO9BRr0fYukSEbEpESXEb7AagLr8TuzbEITm2AA6HOkRC9KDdgLHWhKTAPOSk1IoOsSSGMXiEdYDiBhQrUJXShn0bM6HvUNShHB71bX56QhFWzNuBzPgGWDsBt4uEEjdsFqlb3DgKUrvFjZz4WmxfHYfcxFp0NblQX9GJA7EFaGs2QbYqqMiox661iSg40IGORqCm0IKIrQXYH1oAiwloa9JjT0gcgjZGoqKsA/ouoDCjDds3JCMrtQ5O8m2hALLeg6J4HaJCK9HaBjjcABk5UDnJyqIitxV7t2QiL6EZhhYFLZVOxO4qQ9j2DHTqpW5/F73KRH4oaGgGBafdjZKMRoSuTUDa/mJ01VvEEJbMpCqUVetgdXhQWdSGiMAc5MS1obMJaKhwIiq4FHtD8tDR5kZVURu+W7wf2zakorLKCqMVqChqR+iWNKQnV8NhA1prO7F7cxzCA5PR2eKC1QTkptRj69ooZKZVwOFSh5p4pZJeOeavTIAJMAEmwASYABNgAqcrARYdTtea43wzgZNAgDqE5CyQAlxAU14L1swKxe6gPKQnNCBlfzGSIgtQmFUHyUq+FexICstD4JYktOsBuwLo22Qk7W5ERFgxDDagrV6PXWvjERaaCYMdkGXA2GpBdEg6dmxNQKdJUYdQ0Et74QPCgNgtGchKroJTUn06+N6O01ALG1B2oBEhq2LR3GwXx9JQAxq2Eb4jERvXRqGz3SPOI/ww0DAEn5JydKh2s4zsuFpEbEqDrs4KRQJMXTY01HTAZnXD3GFHMpV5cTRyottRmWlGXnwrwjZnY9/OfBh0QFVBIwJXhyMlsRg2Jw37ACydEtJjqhC1Jx9GkzpMw2WSURBfh327CqHrUkUblxhOApgNDiSG52HDgr1IDq9CYYoOuQkt2BOYhdCgNDS3WP38aXTbcFAd+osOLruCotQGhH+XgtoiHdxOwGF2obXJCL3RAbNRQnpcGbYsi0NKRCPKMkzIS9Rhb2AewrZlo7nOjpqiNmxfnYSk+AqYJFUY0bdYEbszD/t258GoA8oyaxG8KgI5aRWi3twK0NaoR8iGGIRsTYLe4BEWEZp/jqPXBMdgAkyACTABJsAEmAATOB0IsOhwOtQS55EJnCIEqMMqixkZ6FU70Eyiw+xQhO3IQ3JSJfKzq9HRZoNEb+rdJDrYkBSag8DNquhAb+oN7W6k7m5FeGgxOq3kB6ILIWtisSs0AwYSERTA0GpGVFAqtgcegM4En0NK6qjqavWI3pIuRAeXd/YKny8AP9EheFUMmprsoE46HdfZakRYUDy2bY6FwQzhq4DEBqE3eEUH0SFXByUclrjd7EZefD2ig3JgbHWqCZAfBq940dVqQsTWJKyZG4qkyHJkJJYiLb4IGQcqUFGqg8MEVGXWY8uyPchOr4aNnGGShmNyIyexBrtDMtCucwsnmnaDA1nRxYjYmSNEB7tHHaJC5TF22RC1Mx0r5+xATFg+EmMLkBxfhPSkMpQXt8Ji1WbpUEUGKpu20GeaTYLEB9kBlGW0Yn9gDpoqDMKKwotD5MGsdyJ5XyG+WxyF2PAyJMeXICmuCKlJZSgtbofFCNQVtWDH6jgkJ5bDSpYYVIfNZkSHZCJidw4MHUDhgUoErYlAeWGTz8+Dvs2MXZsTsGV9HHQdbrGdRQetlnjNBJgAE2ACTIAJMIGBQYBFh4FRj1wKJvCDEBCiA033SPb9wtKhGZuWRaC4uAtW7xSZ1IEWlgNiFgkbkvfkImhzEtp0Ciw2BQ3lFkRtqsDeXSXotACt9XqErIrDjuA06K2AywW01Oixe2MiwkMz0WVVnUWKGS+8ogNZOuSk1EATHXxOCGmohQ2oSG5CyOp4NDc7VUsHBTB1WBC9KxWb1kSiqcEhzkNWFbLsgSQpworCr19+WJ42ITo0IDYoD+Y2yataUEebOvKAqdOGuD0Z2Lx6L5rqLMJZJuFySh7hWFN2eNBa3IqQNVGIisgVlhw0y0ZHowX7d2Zh7+5MmKzqUAMSHTJjisRwidY2N2yUjlsVKcxGJxIi8xC4Zj/qKk2wey0MiAk5tKSOvyiPmJOzW3DQCqaJECQ6VGS2I2ZbPporjT2GmVA9Oixu5CZVInRTGqrLbLDZIaYqJR8eJJjQ+eqKmhCycj8SYkpgckEMD2mp6kL41gOIjcwXQ0oqc+sRvGYfUhNKYLMpkMknSFUntn8Xh9070oR1BzmtPJY60MrAaybABJgAE2ACTIAJMIFTnwCLDqd+HZ1SOaRp8Xg5cwlQR5Wmy/SJDvnN2LwyHMVFbcLfgK/PSB9ogguzC8UHyhG8MRb5GU0oL9AhNaIOu9fkIzK0FEYL0F5vQOjqBGxfl4KqAhNqSnTIjK7Crk0JKC9tE2IGCQ7dokMX9m9NQWZKpU908Fk60Bt8uwflBxqE9URTq8M3NEN2ukEd36A1+5EUUYLq0jbUVrWhvkaH1iY9ZK/jxaO1cLJ0yE9oRML2Qlh0lCt10abjlJxulBfUI3D9PuzfnY2a4nbUV7ajuqINFVUdMBhdsOkdSE0oxrYtSchOb0FVYRey4+qxLzgLxQVNgiWVyWF1IT+9Etu3JCEtpQ6V1To0NuthtbrETBjkwHHXtkREheairFCH2poOVFW2o6qmE3qTy+vTQRs/ouXUu/ZWFjmtJGeYMUE5aK42QFaollVJQkSRgdY6A+L3FCMpogYV+R2oqaDy6FBfa4TJIKO2oBlBS/Zjb0g+qmpsqCjtQnJUGXYHJqG8pAWSBBjazEgIy8aOTUkozG5BVXEHUqLKsTckA2UlrULIIJrebPXKLH9lAkyACTABJsAEmAATOF0JnDTRwb/zqigKJEmCzWaD1WrlcAowoLqgOum9+Ndb7338/cwgQJ1rCqQCdFR3IWZPOmpruuAicwOtx07iFPWaJcDYaETk7hQEfReJ2D3ZKEpvRnJUJVKSKmG2A13tJqRFFiB1fxkSIgoQsj4S0bszUV7QIpxIOml4hHc6RUrW0GpCxv4ClBY1+Mz06bQiX2K4gILavGbEhmeivcvh82tAebObnKjOb0Xi3jxsXRuK4I1h2B+ehJL8arhsolS+IhyuNh02N2ryOlGc3ASnsTsW5UFWFLjdCmimhtqKdsSEZyJoXThCNkQgNCgWqcnFYrpQKpC504GclGqEbkvGzs1JSAovQW2JHnab11kkJe0BOttMiN6Xi03fRWHzpn2IjEhFfX27KBdNwdnaaEHi/kJs3xyPkO9iEbQlEpH7k9HU2iWqQE1Gq5ju/GoFdbs8qC/TISO2GLomo9dnh1vsFkdRVTs9aKu3ITm6DDs3xWDb+r0I2RKJuP3ZaK0zoTqvEVuXRCBsey4OHKjDjqADiNydgYKcGliskhAyJJeC1gYT4iMLEbIpHjs3xyMmNAf15UY41Uk/RH7pnFrwyy1/ZAJMgAkwASbABJgAEzhNCfzgogN1WinIsgy32w2DwYCOjg7k5ORg8+bNWL9+PYeTyGDDhg2gsHXrVlEnRqMRZrNZ1BW1cRKIeDmzCfjeg9MLdNkDckRIjhDJiv+ghbbRkACHImaIcNoVMazB5VCHUZCDR5r6UbZ7QEMMHDYFdosEiueW1c4ntTi1E6o6V6T4bqdH3U/H+/arn2mDInngspFFhrbfmznaR0MqHB7YrRKsFqcQCGQaXuFN66Ay9Nog9BSJ8qDmXdtNZ1Do+kYZoI46lduulsdhlWG3ueF0KX7DHtTZM5w2DyhIdpr6U+WolZnSpp+c0+GB1SrDaiVxVoLL5RYddKHrkD8IJ2C3eWCzKGocuwTJrVoraPk77JpEHckjmHgEc28Z/A/wlsfhpHPIsFpcgp3DLsMtAZWF9di0PBzRcUXQOwCblcoOMYRCG90huHnz6rQBFFyHKLNWn/6n589MgAkwASbABJgAE2ACpy+BkyI6kNjQ1taGsrIyLFy4EHPmzMHLL7+MCy64AOeddx5+/OMf4yc/+Ql+8lMOPzgD4v6Tn+DCCy/EkCFDsGjRIqxduxbl5eUgAYLEIl7ObAJql7S7E388nUQtrvdoFWR3Uj4Boa8J9zifN3H/vBxq//HmQaQnRIfuYvmnq53veNM9UnwtTf/1keJ/n33+51BnMCFnl6ovjOrSBmzdsA8JKaWqI0m/E9FxvSvWPy3xmXQavyDi+6XBH5kAE2ACTIAJMAEmwAROXwL9LjqIDgo9TXoX6rRWV1cLseHdd98VIsO5556Ls88+G2eddRaHU4gB1QnVza9//Wu8//77WL9hPSorK4Xlg1afvGYCTODMI6Be12k4imp9omvVIzuzDLUNnWKmke4r/jGy6a1CHONhHI0JMAEmwASYABNgAkzg1CfQ76IDIdCEB5fLhdraWgQEBOC3v/3tQQLD2eeonVyyduBw8hj4RKCzzxJiEIkPZP1w/fXX45133kFQUBALD6f+b5tzyAT6lYAmPJC1A1k+0FAP8r2hufbQdIR+zQQnzgSYABNgAkyACTABJnDKE/hhRAePB+3t7YiKisKkSZPwu9/9TnRi/a0bSGT445/+iAceeAAPPfQQHn74YQ4nicE999yDSy+99JDWJyQ+3H///di+fTssFovwz8HOJU/53zlnkAn0CwESHhQPDbMgx5P01z2SQvvcLyfmRJkAE2ACTIAJMIEzigD5ldN8A/Ja9ZF4zBxOgXGrP4joQBYOgYGBuPLKK/GrX/1KHVJx3rk455xzcP755+P3v/+9EBhWrFghzPera6pRU1PD4SQwoKEv5NTz888/x9///nfceOON+OUvf+kTiUgo+ulPf4q77roLu3btEo5A3Qq92+SFCTCBM42AZu2gyg1q6TWxwX99pnHh8jIBJsAEmAATYAJ9R4CeM5qbm5GdnY2MjAwOx8sgM0Ow0+l0J21SgH4XHchpZFNTEz788EP86Ec/EoHelp9z7jm45JJLMHjwYMybN084KqSZLPited/9QE80JRKJ6IdNjj7379+PYcOGCVGIHHxqQy/o8x133IFt27aJqU7pXFx3J0qcj2MCA5MACQ+8MAEmwASYABNgAkzgRAhQ34L6krTQLId33nkn/vSnP3E4AQZ//etfBUOHw3EiVfG9j+lX0YHMYMhiYfbs2fjFL38hLBtIbKCO62WXXSacE9psNlDhqaPLndbvXZ99lgDVnfBM7/HAbrcjJiZGDHshSxVNeCAR6eZbbkZYWJiweOD66zP8nBATYAJMgAkwASbABJgAEzijCVDfQpIl0UekGfXIJyBZXXM4fgY0wmD58uWi330yGlW/ig405n/q1Kn4zW9+IwQHmp2COqw0zILM90mQkCRJmHlwh/VkVP+xn5OEoeTkZDz//PNiuIXmj4MsHkh1DAkJOWnmOsdeCo7JBJgAE2ACTIAJMAEmwASYwOlAgPqH9CKUloULF+Liiy8WfUnqQFOfksOxMxiwogOJCTTu5s9//rNvlgoq7B/+8Ad8+eWX6Orqgs1uEyYzLDicDj97CGUsISEB//3vf3HBBReo9Xr2Wfi///s/vPHGG+js7Dw9CsK5ZAJMgAkwASbABJgAE2ACTOCUJkB9RK2fOH/+fGHpQP1JevlJw/VpqAXNrsehJ4MbbrgB1113nfDDR7y0MCAtHYxGoxg+QR1SsnCg8LOf/QwffPCB8PEgzPe9XkhP6dbOmetBgCweIiMjcdttt/lmt6CZR2icEDkL5YUJMAEmwASYABNgAkyACTABJvB9CRxOdKB+5RVXXIF169Zh9+7dCA0N5eDHYM+ePcIK/ZprrhETOAxo0aGjs0OY3Wtm+FTYa6+9VgDwb0DftzHy8T88gbb2Noz6ZBR+/vOf+wQlGkLzxRdf+Jy9kKikKZM/fA75jEyACTABJsAEmAATYAJMgAmczgT8+4z+lg4kOvztb38DzbqnxeF1z2k0rVYr7r33XjGJw4AVHWRZRkxsDK6++mox1oYaBk2NSVYONFUHd0ZP558/hB+OlJQUMXuFJiqRRctbb72FxsZGUb/kaZbr+fSuZ849E2ACTIAJMAEmwASYABM4WQQ0IYHO7y86UP+DhvBXVVWJF57U7+DQzYB40aiD++67b2CLDjQjxfDhw4U5BwkO5OSDxpVo5veaQ5CT1YD5vN+fQFtbG0aPHi2sHeiHT4EchAYHBwuxgS0dvj9jToEJMAEmwASYABNgAkyACZypBA4lOmgvPMnSgSYl0OLwutvSgdrLGSE6kDnHoEGDfKb3ZOVA3y1Wy5n6mxlw5SZrloyMDOHAhUx2SFi66qqr8N1337GFw4CrbS4QE2ACTIAJMAEmwASYABP4YQloQgKdVbN00ESHm266CbW1tSw6eJ1taqxoTcsZJTpojYJEh6FDh/rG+/+wzZXP1h8EyJKhuLhY+OkgaxYSHmhmkvXr17Po0B/AOU0mwASYABNgAkyACTABJnAGEdA60lRkFh26LRk0LodbE68zUnSgWStIdOBl4BDQRAcaNkOiAwlMl112mfAiqylsA6e0XBImwASYABNgAkyACTABJsAEfkgCWqeazsmiA4sOB7U9bXiFZunAosNBiE77DXQRIEsHmhdXEx0uvfRSFh1O+5rlAjABJsAEmAATYAJMgAkwgZNPgEWHYxcaNFa0poUtHU5+++UceAlQkzzRoHg8KCopwXU33KD67jj7bFx62aVYu24daN+h0mXwTIAJMAEmwATOJAKHuhdq284kDlxWJsAEmMCJENA60nTsoSwd6urq2KcD+3QYJEzu6S04WzqcyM+sf4+hhx4FgKwAkqwGl3etffdf0z7/4JQ8KCiswE033Ynzf/pr/Oynv8LVV96ADd8Fgfb5x9XSlWXAzYEZcBvgNsBtgNvAGdAG6J5H91H/+6FTUr/TdtrP4eQw0J5F6IUgBfVlCb0woaejAb6cAUUc4DV4RhXvSKLDLbfcgvr6ehYdWHToFh00R5Jn1K/kFC8s3XNckgetTVaUFrSjvLAL5YV6VBQaUFloQAV9LtCjvECP0vyug0OeHvHhFXjpyTF48NbX8cDNg/HMQx8gcGUSynL0KMnpRHm+QQ0FBpR5Q3mBARyYAbcBbgPcBrgNDPQ2oN33tHVpgQFa0LZ1r40oK+TQXwxU7vQ8o4ayfD0qCztg6nIIAVBWFMgeN9weeh0zcBeXU4bLJsHjPkMEloFblWdMyXqLDhdddJFvWLcmOpwxMI6zoGfk8AoWHY6zlfRzdBIc3B4a6+PC/h1FmD0+FEsmxWPpZ0lYNvkAln3mDZOSsHRSIhZPTDg4TErEookJmDEyDDM/Cse3H+/FrFERWDg+FksmJmLh+Dgsn3yAAzPgNsBtgNsAt4EztA0kY/nkFF9YOiUFFJZMScHiyclqENvSsOzzdCz/PINDPzAgtkunpGLRlGQsnHxADVMOYMGUcBSmNkByqc9Ebu+Q035+BDtpySuKB/UVLagqbITd7FTH15603PCJmcCxEegtOlx44YU+0eHWW28Vlg7HltKZF4tFhzOvzk+5EpPoIHs8MBhc2Lu1AHPHRmLFxEwsD8jEsoAMrAjIxMqALL+QgxUBhwgTsrFsXCaWj8/CioBsEVYF5GDlhGysnpgL+syBGXAb4DbAbYDbwJnYBlbS/TCA7oV5IqwIyMXSgCwsnpCBhRPSsWBCmlgvCcjG8ol5WDExn0M/MVg2MQ9LJt6biRYAACAASURBVOZi8cQcX5gzfi9yE+ogOc4M0UF2uVFeVIX8zGKYDRYWHU65p3PO0KEIsOhwKCrHto1Fh2PjxLH6kQCJDpKiCNEhwis6LJ+YicUT0rBkfCqWjk/FsvFpWDk+EysnkPhAD8z04NQz0MPUygkH7zvUtt7H8veeLJkH8+A2wG2A28DAagOrJ+Zh9cR8rPKFPCwbn455Y+MxZ0wMZo2Jxuwx0eLzvLGx4NBfDOKwYFwSFo1PxeIJ6SIsmZCOOeN2IyexFpKTRAcPZI8CZSD6dKCHPvJboSgga4eBWMR+fGTmpE8yARYdTrwCWHQ4cXZ8ZB8RUC0dAJNeQtS2EswbGymsHJaMT8OicclYPC4RS8cnYsWEA1g1MQ2rJmZg1aSsg8LKgAwsGXMAS8YmY+m4VBGWB6Rj5aRMEVZ/loXVk7KwRgsT/T5r23jdzYdZMAtuA9wGuA0MmDZA9z8t0D107eQcbJqZg03z0rBpXjI2Uph7ABvmJmLdnDisnRPLoR8YrJ8Tj83zU7B5ViaWf5aMRWOTsHhsAmaNDkF2YrV3eIUbkiILnw4D0ZkklUlR3PD4iQ4DsZx99JjMyZxCBFh0OPHKYNHhxNnxkX1EgEQHuu+Y9RJit5Vj4dgorJmUj9UBeVg2IQ0bZqRj54pc7Fqdg/C1xSLsXVcC/0DbA+elY+zrS/Hhi3Px4cvzMPr1pVg2LQq7Vxdh95oihK8vxZ51Jdizthh71hQjbA2tSzgwA24D3Aa4DXAbOAPaQDHC1xRhD90P1xQhcmM5yjNM0LcDxk7A2KEGQwfAoX8ZmLqA+kIZW+cXY8GEdCwcl4zZY3ciN7EWsote/qtdcHo+GqgLdd7YymGg1u7ALReLDidetyw6nDg7PrKPCGiig0UvIS6oEovGRWP95GLhk2HJpEREB1fCrAdsFjXYLYDd2jPQvoKcWjxw11O47KLrcMmF1+KWG+/D1g27YTMB4hgLYLUAFjMHZsBtgNsAtwFuA2dWG7CaARsFuodSsHmny/R4IHk8cClqcCoecOhfBsS6pVrCpvm5mDMuGQvGJ2PO2F0sOvTRcyUnwwT6iwCLDidOlkWHE2fHR/YRARIdSPC2GiXEb6vE4nExWD+5BMsnZGHhxFhEhRTBReP/yCLC681ZHOP32a0oKCwuxp//+lecc+65OO/c83DVFVdi/dp1qvmeN66WBq3JM7T/d/7MPLgNcBvgNsBtYKC2Af/7pnb7pvfp5DtAVlRzfjLpdykynH0UjjWtvo7XV/nvr3QkxYPmGhcClxRiXkAaFo5PwZyxochLqvOzdOABB1o75TUTOFUIsOhw4jXBosOJs+Mj+4iAT3QweS0dxsZg3eRiLCUHVwFRiAjOh0tWH4Qp7qEWj6KguKgIf77xRpx7zjk475xzcdXll2PdmjWqouE9yP+h63BpHSp93sYEmAATYAJM4HQnoJrt9/xflEm7EWsCvccD5QhBu5ceKQ7t69N4fkMOjnjeY4znyxv5FziWsvZRPDoXTRPeWith27IizA1IwfxxiYcYXsGiw+n+e+P8DzwCLDqceJ2y6HAM7Pxvz1p0/23aZ21fX621G6K2pnS1c/mvD3U+ctAjy064ZRcUtyx8JlA6YvF90Dac3DVlR/h0MKqiw4Kx0VjzWaHw7vzt+DCEB+VAcqtxDpd1n+hwgyo6nHvuubji8suxlkQHXpgAE2ACTIAJMAFB4LDPD4e7wTK3PidA1p2ttS4ELi3A7PEJYtaQb0cHIyexhi0d+pw2J8gE+o4Aiw4nzvKMFB0uuOACDB069JipeTwKegSQSu2G4nH32O6fIN3U/RdqpMezUOzegY7vkQ9fvjyg9Gn6IVmW0VBfj+QDCYiL24ukmL1ITU5CTX0zJAViqAF10HtkTzvRYTKo/cD814eJekKb1amhAJNBRkxwFeaPjcbaz4qxbEIm5gbsQ3hQrsg7mbwejiKVqaSoCDdefwPOOftsnOcVHdatXXtCeeKDmAATYAJMgAkwASbQLwQ8QFutE0FLC7BgQgoWj0vGnDE7eokOh3/m6Zc8caJMgAkclYDWF6KI8+fPx4UXXoizzjoLZ599Nm699VbU19cfNY0zNQKLDsdQ8/4dfRIa3B4ZTqcNFqsJVpsFVptNBJvNBkmSVAFACAKqGKAJArSmRfuufT5cFjQtgMzwyBJAmP/RFEM+sYFmcPamSUKILMNmtWJHSAg++GA4Xn/tOTx6z6148IH7MH/JalhcgFt2w+OWuxUN7eTaybTv3jUJGf4/sF67D/n1SPE1Bv4H0qllBTDqZcQGV2PumP1CdCCfDiQ6RATlHZPoUFxYiBuvvx7nnNUtOqxl0cEfNX9mAkyACTABJsAETjYBEh1qHAhako+FAalYOj4Vc8fsZNHhZNcLn58JHIWAfx+HRYejwOq1m0WHXkAO9dW/k0+ig9NlQ1ZmMjZuWIMN323A5q3bsHHzVgRuC0JGRgYMBgPcbrewPKBOO312k1ig/Xk8wiKBGq7Y7idGaCIC5YM64yQ2uBWKR0ERQyVEfigtEh/EWhUexLlkGa0tLSgtLUJszG48++j9+MPvL8XnX82CRWgNHihuqXusgnrooYot0la85TiUWHCog7Qfo4jfK23apokY/sdSNLLCMBhkxIbUYM4hRAcSJcjSwbfQQX7B41ZAosMN16miAw2vuJyGV7Do4EPGH5gAE2ACTIAJMIFTgACLDqdAJXAWmMDxE9D6OXQkiw7Hx49Fh2Pg5RMLvB19s9mAaZPH4MJf/Qx/uOJy/PfFV/CfZ57DPx75J4YOeR2bNm1Cc2sr3MKXggKHw47Org50dOjQrmtHR0cHyCqCGi5ZRpjNZnR2doptWnYUjwKnJKFTb0SX3gBZkoUI4HI5YDB2oaWtWYT29jaYTCYhbGjH0lpRaJhFKQY/+xguveR3mDJ9Nixu6qdTx18WwywkSYbZbEGHrgM6nQ6dHZ2wmC1qWh4PnE47OjraoNO1Q9dB+e8UQUd5tdvF6ajfT9IHiSdmixldXV1ob2uHrl0Ho8EIxa1ZSijCOkSv70JXl14EOp+OmHR2wOp0wWRm0cG/DvkzE2ACTIAJMAEmMAAJsOgwACuVi3QmEOgv0UF9idxtwd6bJe0/lkV7H0txtWOOtE2Lcyxpf984LDqcAEGLxYjPAz7A7y/+BZ574RXUNHagpqYBa1avwd133oGbb7kFGzZtgsvtgslqREZWGlatWYGVq5Zj5coVWLBgAcLDw6HX62G1WhGfEI85c+YgMTHRN/TCYrchv6QYi5evwsaNW9Gl64TkcqKwKA+bNm/A/AVzsHjxAsybOwfbgraJMURkRaAtJCzU15Xgpf/8A5ddcgmmTJ8Lk1d0cCsSHDYb8nPysXlTIJYuXYE1q1ZjyeIl2BG8C/V1TZBcLpQUZ2PRgpn43/9mYP7ChVixag0WL12O2XPnY39MLKx2uxAcHLILdQ31CNmxHatWr8LyZcsxf94CbNm0FdVVNXA5XZAkB2qrirB+7WosnL8Uq1ZtwLJlKzF77mwsWrYYBSWlQnSIDq7qE0sH9umgtQReMwEmwASYABNgAqcUARYdTqnq4MwwgWMl0Keig6YG0Ew/HkW8FCaLepAFvN8+4UOQhrsr3ni9fApqFvlUhh6yhZhBSJUVKDlafFbyPoNx2q/t9UbqpxWLDicA1mI24PPx7+KSC8/HK6+NQLsFcLk8aGxswFtvDsYvf/UrjBg5EiabCWmZqfjg4/fw4CP3Y9TojzBl6mQ89tijePTRRxEYGCisHmgIwLXXXotRo0YJaweaL7u5vRVfz5mFq6//Cz4YOQpN9fWorihDwMRx+OejD+Ojjz/ApEkT8O//PI3bbrsVixYtUi0lvA2VRIe62mI8//QDuOySS/H5jPkwuEVrg91mQk56GkaOGIkH7/8HPvzwE0yfPgODXxmMJx55GgvmLEVNTTW2bVuBv1z9C1xy8S/x2JNPIWDiFAx/7wP8+W8344WXX0ZCUhLsLidqGmsxd8F8/OOxR/DmO29i+ozpeG3w6/jHg4/g88lT0djQCJvNgAMJe/DIw/fj95dcjf/8+2UMGfoW7nvgXvz9nr9jx67dqqVDcPX3Fh3OZUeSJ9Cq+RAmwASYABNgAkzgByHAosMPgplPwgT6mkCfiQ4+UUHtm9GsgyZjF2qqy1FRVo7yskpUlFWgorwcTU0NcDlcYpw5zUgoK66DAh1PYoVPdBDpq+KFdiraT6IDaQw9trHo0HfNhKwJBg0aJDyLkofR4529ondOrBYjpk4g0eFnePn194ToIMse6E3t+OKLsfjlb36D/744GI3Nzfjyq2n43aW/xeNPPYqg7duwLzICH344EhdffDFee+01NDU3ITsnG8899xwefOhBpKSkwG53IL+oCM8NGoxb7rwfYXv2obO9FcsXz8M111yJBx68F1u2bMTe8DBMmDAeP//Fz/Hss89C194O8m1AjcrtllBbU4hnnrobl15yKaZ8vRB6ao+KgrbGGkwZNw7XXnM9Br36Jsora8Uwi6h9Ubj/ngfw9zvuwrp1qxG8dTluufo3uOaKKzBv0Uq0tuuRW1CIt955F1dedRUCJk5EQ1MDtgRtxl133Y0rr7oSc+fOQWxsLBbMW4g7b78bN/31ZsTHJ8Bi7cSBuB34x0N34/eXXIPPJs1EdGwiZs3+H94c9gaS09JhNsmICWHRoXd74+9MgAkwASbABJjAACLAosMAqkwuyplEoF9EB5D/Pgk56Qfw2eiRGPHOMEybNhNfz/wWU6d8jlnffIuE6CTodXrRzyPhgIQHSXH6Ar1s1sQEmoBACBBim2rHIGYA9FpTUF9QTFJA0XwTFJAg0R36o07Z0uEEqJLo8MWEYaro8NoI6CyAW1Kg62rAl9PG4qLf/Q7PPPcKSkrL8cILL+LHP/4x7rr7Towa9TE+Hf0p3nzrTTz++OOYOnUqWlpaxDCLZUuX4a4778T777+Pqqpq7AoNx99uuwsfjJqA+sYWNDfV4K2hr+DXv/qViDf6k08w5tNP8c5bb+OJJ57Ep598KqwmxHSY1Hj9RIfLLr1MiA5dbvL14EZ1aQGeePhhXH3VtRgd8DksDlk4eKwtr8STjz+J3//hcowZ+wmCNi3HHddegttu+jv2RCTDJiloaWvB1zOn4+LfXoSPPvwA+XlZmDhpLK647HJc+YcrMezdYcJi470R7+G/zz6Hl156GXFx8TAZWpEUF4J/PnwvbrnpXoSGxkJvtKKsqgwZeRlo7+xi0eEE2iIfwgSYABNgAkyACZxmBFh0OM0qjLPLBFQCWsecvn0vR5KaqYGwOvBAdruwP2w77vvrn3DzjTdh9dqt2Lc/Bgvmz8PTT/4LT/zjKYRs2SF875HfP4vNjPKqUmRmpSE1/QDS01JQWlQCi8kKya2go0uH7Ow0VFdXweWShDN+spKwmk0oLSlBdm4+Orv0cItZFzX/eyw6fO923h+WDproQMMrOkl0cClorK/EByOG4tcXXYg33hmO8spK/PeZ/+IXP/8FPhw5EumpaSgoKEBhUSGKi4vR2NgIl8slnEQWFxXjpRdfwA3XX4ctm7di6hdf4/4HnsDO3dFwSG7U1ZfhlVeexcUXXYzXBr2GtOQ0FBcWozC/COWlFaivq4fT4RTKFgGjhlVbU4Rnn7pbDK+YPGMBSHQg55alhTn49+OP48qrrsXH4z6DzUWzYiioKi7Do488hsuvuAqfjvkYgd8twe3XXYrbb74HeyLSYHHKKK8qwcefvI8/XHYJJowdg5KiPEyePB5//MPVuPfOexEethd5eXkoLCxASXEJSkvLYDAaYbF2CNHhsUfuwz13PYKY2HS43B44ZAdskg2S4hGiA/l0ONSUmcczewUPr/jePxlOgAkwASZwUgmIdzPe8agnNSN8cibQHwRIdKh1ImhpARYGpGHp+DTM6TFlpp/5c3+cn9M8LgJa//C4DuLIA5JAf4gO5LNBcjsQFRqI+264Enffdjcysstgd8moravCZxMn4PeX/AFvvPYmqisrxTCMiH178MmnH+Gdd98UQ+4Hv/wS3h7yFkJ37IXJbENSchxeHfw8AiaMRW1dIyRFgexyITsjXbwgHvTqUCQmpcJpt3utHboFBypjfyxnpKXD+eefj6FDh54wT7J0mDbxPfzuVz/FCy+9iaoGPeqr6rA7OBhPPPIgbrn1FqxZv07MLjFp4iRcefnleHXQIMRFR0PX1oa2tjbU1tSgqbERkkuCLLthMpkxc/qXuPTii/Dkk0/h4YeewLhxX6C51SAUq/b2JkydOgl/uuZa/OuJpxEdFQOdrgOtLe2ora5DU2OzcNioDdIh0aG+tgTP/eseXHbZpfhsxjzoaeSFoqC5oQZTAibhz3+9Ff95cTDyisrR0tyK3Tt34957HsIDDz6CDevXIHjzMtxy3cW4/tq/YNmqbSgurUJ4RBiefPKfuPP227FiyVK0tTZhy6YNuP+u+3D7zbdjzco1qK6qRktLM2pralFb0wC90QijpQ2J8SH45z/uwe133I+o6GQ4ZA+cbhfsskOIDiaThJggP9EhIAtzA/ZhX3A+JI8YytRdZ9odwLv2nzKTRIcfnXsurrj8cqzjKTO7mfEnJsAEmMApToDEBrfkhGwxQTYa4LZZ1amif6Axp6c4Hs7eaUiA2vTBf0BrrQtBS4uwMCADSydkYO7YUOQm1kJydQsOh3r0F2nRlOla0Gyqez0XaeO3tXjiO5lTi0AdDMU7/rs7dxTnVPqpHVSkfqr/bgLqJy8kcbZD5eFI2/opi5zsKUKgP0QHGirhkMzYu3097rvuMtxz293IzKmEU1Jgcxqxbes6XH/d9bj3rvuRlnoAyclx+NfTT+C2227G3LmzEBcXja+/+gp/+/NNePY/L6K4uBylpUV4443BuOfuOxAavhcmq10IDMuXLcONf/4bhrw5DEUlFXC5nCw69GXb6m3p8H1EB7oc2axmzJs5Gddf9Qc8+dTzWLZiE/731VcYNuR1DH3lZaxeuRxNTY1w2G3IzcnG6E8+xkMP3If3hg/D6pUrsWL5csz+9lsEb9sGfVeX8EbqdLoQt38fHrj3Tvzx6j/iwQcfR1hYLJw0JIKGS7hklBQWI2DCRPzj4Ucx9LU3sXrFWqxdvR7z5szHhnXfoVPXJe4XxI5Eh6aGSgwb+m/cfPNNmD5vOYyK6tXUYbciMz0Toz4dj4cffxpjAyZj0eLlGDL0bTz25H8wf9FSNDbUYs/29bj52t/i//7v5/jXM69g4mfT8PFHVJaHMPPL6aivroEiSWhtasLc/83B0088hf/+51l88/VMLF28FN/+bxaWLFyBvIJC6E0tOJC8Gy+88G888ti/EBOfCrvkhlORYHc74VI8MJklxPqJDsu8okPE9gIhOgg/mFrD6HXF7y06nHfOubjyiitYdNB48ZoJMAEmcIoToMs6DQG0dLahMSsVlTH70F5SANlu9Xrc9vaYTvFycPaYgEZAdGE1ccBv7fZ40FInYdvSYiycmIklAVmYMy4MOUl1QnSg550ezzxagvQb8bjF+G+3RwYF4dne6xzO11mmFzWKW/WGr9AQWln8hrR03fRmVZEgedyQKT2PW6TjS8t7PiFYnCQVotdjnn/R/Gh8/4+HqiOf+OLncO9I+em97/vnilM4lQloswX6D68gn4G33nqrmE3wmPLubTSKh17A2mB16bE7aAXu+uOFwtIhK7cGTlmBzWVExJ4tuO2W2/H3W+5GckI05sz6Epf87re49Zab8c3Mr7Fm9Sp8PX0G7rj9Ttx3/0M4cCANNpsD69etwc23/AUjPxmF8qpadLTrMHz4CNx0251YszEQJqtDXCfod97jB0Z564eFLR2OEypdnGjqygOx+/Ht11/hi6++wZczyNHHRCydPxfpBxJht5rhVmS4XA5IkhP1dTViqsjpX36BzydPxrQvvsDC+fMRHxeHzo4OkQMan9PV0YqQbZsx63/fYsXKDWhuMUCmGww9Z3kgLCKaW9oQuG07vvpqJr6cNgPTv/was76dgx0hO2Gz2H0KNd1s9Po2BG9dhW9nz8K+xDRYKA1yMkl5k9woq6zF8jXr8eXMbzFtxjf4du4ChIZHokNvhMNuQfiO73DzdZfgNxdeiFeHDsfUaTPw1fQZ2LDhO9RWVcMj0+0LwqlJW0srwsP2YNa3szD9y69E45/97WysW/8diivKYLR1oqa6AJs3bMCyVetQWlULh+yGS5HhcLuE6GA+jOiwb0eh4NDjBtzrCs+iw3E2ZI7OBJgAEzjFCNBlne6Fho425CXGIn5HMCpzMv1EB9E9OMVyzdlhAocnoHVoqTOvBRIKZI+ClloJgUuLsWBiFhYHZGPOuD3HJDpQmpSWJjqYrUa0tDTBaDDALanO5KgDYbGY0dhQh+qqClRVlqO1pRlWuxOyeBZUICmyn+ggCyFDViTojXp06o1wSiRoeC0qToLe1/MxT/3tUwetd3/o+5qCa3WkWYQ4HHa0NDejuqoK1ZUVaKivh8lig0zTFXo5HG19+BbBewYCgb4UHSTFDZtkhtnZgV3bluOOay7CXXc8gMzcBjglD1wum7B0uPHGv+Geu+9HdlocAsa8j1/+4ue45eabMHbMaMz46it8PeNrTP/qayxcuAT1dU2Qadh8dQWGDh2Em2/+K0J3hiJmfyzuf+AfeHv4SBSX18DlVsRv3F9k8zXyfqgoFh1OBKq42niguN3CL4HL44FLdkBxS/C4SVF2Q6aOvVvyXbDFNlmCLEn0VCUCHa9dPSlJUprVmwjdDACXgh6iAwkPbsUjbhjkdZQmqlDUySpEOtoQHEqLpkxxyU44JZvasfcATg8geTwib6SykwAh8q54hCUBCRzCm6lHgdVqxJ6dm3HLX67C3/52E/ZExIL8KtD5yf/DYRe1IGoZRTHpPKSouyARIzqXt1w0vojKTKwobRYdDkuVdzABJsAEBjwB7d5FHR26Z3Z71VY7Ptpb2IO7HQMeDRfwNCXg36HVhAJyGCfTUNcaCVuXFGNBwPGJDhoKLb3s/AzMXzAXUZGRMBmN3ucvD2qqK7FtyyYsmjcHX06dgpXLlqK8rEaYbNNjqJs84ItnQe3ZU4bDYUXU/kiE7I5CY1sX6FlR/fM9rmqnP7E1/cjJesC7PloiWjRiRs+QkuSC7CZLDwVusuQQ1wrVCd7R0qL9h7p2aGKDVtLWtlYEBQdhwdzZ+N+MLzD7m2+QkVkEq1NWXwIeg/BwLHnhOKcvgf4UHW695iL8/fYHkJ5VB6PBjubqCnw+cSyuuOoaDHr1VZQVZmD+t9OEb73HH3sUsdH7YTGZxHB9i8UGg8EEm9UJt+yBy+nAiqULcf01V+Cj4cPw8YiReOSfT2Hr9t0w2ZwgEU9Msen/m9R+dP1QPSw6nABUrT5oTd1vMfyB1GDvn9ahJyW7+4Kt7e1lq+V38aK4vuA1raO3+8LSgeJ5D9XOqeWjdxG07XRD8eUFqoBB6WnmdCQGUB57pqcq6HaHBcmJ+/H6qy9gyOtvIDUtRwgOlPYRF+3kfmv1o0d9iPQrD914xE1TIYWdRYcjcuWdTIAJMIEBTkC7bfjmGfcrL3UMSJQXHQRNrffbzx+ZwKlKQHv6o+cdm92M8opipKRmIDaiBGtnZWGhEB0yMWfcbuT4+XTo+fzXbXEgmr93+ARNmReTGIVPRn+M4KBgmIwmVR3weNDe1orkpASE7gjGxHGf4r1h7yAxIR0OF6VFL61U0aH7hZcMvV6HWbP+h7FTvkFuea148UVctefQ3oxF2TRrCL/n4N7xxHfvD9zYaYZZb4Ob3jYdZdGeH52SBTXVRUhJTkRiUjKSkg4gKTEBZWUlQmg54ssw73M2nYrqQL2GeDHRc7s3/1pWuro6kXAgCbtCQ7B80Sy8+8YQ7AqNg8Hq8g55UWtUY0J5pGuWdt2i70dbjiXOQWn4HaS1Kf/1QfF5Q78R6BPRgXJHVkeKG3bZKoZX7AhagZuuuRB/vvFmrFm3EyGBO7Dgm6/w9D8fwNP/+Re2BG6FsbMNmckJeHXQy/j7HbdjxPBh2LVjBxLiExASvAPBQdtRWVENh1MSFulZqcl44uH7cONVV+BPv78C778/CmXVDXDKJN6RcOfTKbUfhbruB3osOhwnVP+Liyoo9Kwjdb86Fk+7IB3tFOpFQ72o0zFa0AQIbT+lfajQO33/OFpaWl5onyqGkLJNQXUk1C2ZqBdgMrEzGTtRVJyPwsIiGGkKFpliHefizYwog7ghdZeBEqOLPb3RYtHhOLlydCbABJjAACOg3bu0Yvnfb8S9wtdh8N+jxeY1Ezg1CWitlZ6DdC31mDl9Cl54YTDGfDwfsydFYxENr5iQgdljdiE/sRZuhwKH0wkrDUH1/igUWYLTYRcdBdFJcCuwO+wwW02ob6pFbl4O2tp1woJCfbai5yv1ec5lNyF4yzqMHzMKCYlZsLro5ZL3+cujwCU5YLdb4bTb0NnSiG9mTMO4qbORW9EgrGC9WTjo+Y/KQ514SVhukGWvt0PvFR+02lCfYb2de8WDtIQcFGaVw25zalEOu6Zz0zOizWnAmuWz8fzzL2DIW+/jow8/wXvvvo0ZX0xBTNR+dHZ0CQsIOpfb7YbT6YTNbofNZhOO8uhZl9KSJAccTjtcsgJJdoty09SDkssleFFG6FpDz8kOyYKC7ASMHzUSu/emoMsmCxFGK4/kdsPucMFqt8Nss8Ahed8cezzCIkOSiAmdtXuh7y7ZLZ6nDwLaHU18ovqTJRmyWxZO4H29Q9EXoJeUirAUdkou0Xn0d3DYKyn+2scE+lJ0oI6/y+2AU7YiMW4P3hz0jJhQ4J13R+KdN97CO6+/gsnjRiFibxjadTohFjqtVuTn5uCLqZ+LiQpGDBuGT0d9ghHDRuCLqdOQk5Urpsl0y26Y9Z1YtmAOnnvqCfz7FWf7RAAAIABJREFUsccRHLxD+HJwCYshGupFv+ODQ8+W2zcAWXQ4To7qRVYdAyPGuvldNaiCtODfyT/SKbSLF8XRjlXX1ADU8wgV9jDnobj+S880/Pd0p6+le6i1mh+Kq1km0KfuY/1T1PJ+pLUWX4ujfdfWtJ3ywcMrNCK8ZgJMgAmcmQT872fafUcjIe4hvToz2j5eM4FTlYDWjkXb9gD6xhp8+t4bePXVN7Fx/QGsn1eERROzsXBCGmaN2YmixFpYWvVITUpCdlk19GTS7/ZA19SEA4kJKK+uF5YKeoMBqWmp2B6yHRs3foedO3aivKoGNuGHwTtUlp7dqPNs0yNo4zKM/XQkohOzYXSqL8bc5EjSZUN1eQH27d2Fndu2YH9oCD4PGIMJX8xFVkWjGJbbowxe0Nrv0WI1oa6hBk2tDaDP1EEW4oP/M6t4llWHcHgUD/bvSURaYh4sZrtfrEPXIJ2bnGBa7B2Y880k/Oe5QVi7JQK5+aVIiY/Bt9OmYMwnnyI+LhFmi0VMQ9/c3IzEpESEhGzH1i1bcSApER2dXUKMaG6sQXxcDHJyy5CXV4KwsFCEBG9FYUGBcLynvvUlqyoFNoceuRlRGPPxcITty0CnTREikBgy7HahurYe+6PjEBgUhG0h25CakYYuvR52pwP5+blISUlGZ1eXT3ggZgaTGakZuSgurYSdprk/wmKz2sTU8/X1tbBazMJxu3hDJxoTQL4A2jp1KCguhK5DB1XkoN4HL/1N4PuKDuL3Q61fWBnQUCFJBLvNgrq6WpSWlqK4pARlpaWoqqiArr1dTHdJghrNQuiWZTF0okOnE/sry8tRVlqGyvIKNNTVw2Gz+0Q0mg2qo7UZ1WWlqKmohNlkFuIktXHVv4xq9a5+V9s+ffY2sz5FyaLDCeDUGgutD7XQVi0cav+xbjvaeY41nd7x/NM9+HN33rUy+K+1tMRx1CiPFg7DyB8QKWwsOmhkec0EmAATYAJMgAkMBAI9np88QFdDFUYNew1vDB2G4KBsbFpUhsUTs7FofApmj90lRIfq3CKM/ugDzF/+HRo6zJCcEhKiIvHBiGEI2hEGg8WJxpZWrF23Dh+N/BD/euoJPPjAg9gUGAy9xSZ8cwkfXdRhJ9HB2oXADYsxetR7iErIEqIDvd10Os2oLM3BigUzMPztl/HGkOcxYfR7eG3Qc/h00jdCdLB7h/X2rgvtGbBV14LImAiE7ApCUkoCyitK0anvEOJDj2O8IJw2CXuCYpAWnw+LxXG4J0TfoXQYiQ5mu06IDi8OegMRCQWwuwCXzYSE/eF4Y8hQLF6yAq1t7WLmgC1bt2Dy5MkYNnwEXnn5Fbzz1psIDQ2H0WhCXHQ4XnrxOYwN+BILF68Ws8u98sIz4o1xbn4J7C7yMUazgrhV0SF9H0Z/+C527U1Du02BzeOBxWVHdUMNFi9djg8/+hSvDhmCIW8NwYeffITdYeFobGrC0qWLMXz4MOyPjgGJB/SsrMguZKaliWPWbNiCTr3BV85DfejUdSAkaBu2Bm5Aako86muqYDYYQW+viYvTLaGkogzrNm7Art2hKCwqRFtbm7DuoE7x93Wweag88TaVQJ+JDl5h0Gcl5B3uozo96UmbxAbyBUhrLXjHSXnHR4jEeh3k3aaNz/fu7RYY1NlrxHB74Y+Q/OypgX7jfb2w6NDXRE/z9Lz3BZ8moH3vXayjig2aGHG4RuuXMIsOvenydybABJgAE2ACTOB0J6A96tCaHodIdPjo7cF4/PF/44spm7DgixQsmZCFxeNThE+H4qR6lKVnYcRbr+HreStR02aEyyEhcnco3nj9VWwJ3oUuq1O8cSezfpPBgPDdO/Hyiy9g3cYt0FusYoguiQ5i9jOPArul8xCigwKjoQXrVy3AmA+HY/f2LaivLUJK4l68/eZgfDR+OrIqm3A00cHldqKqtkKIDqvWrsDCRfMRFR0Jg7FXh9oLoqGqDcvnbERCZAasFufhnhB91U6HaaLD7JkT8fxLr2NvQj6sEuCS7KitKsH773+AKVO/QnFJKXbt2oURw0dg5YqVyMrOwb59kXjm30/jk0/Gorq6BnGRu/Hvpx7HR2OmIDEtFy3NDQjftQ1vvP4alixbh+YOPZxup3gDLCwd0vbh0w/exs7wVLRb3XB6POgwdGDdhrV4+51hCAragarqGuQV5WH0+NEYNepTZOfm4sCBRHzwwfuYOfMb1NbUiiEsNBZ/2by5+HTUaKRl5YrZQXwF7fVBHVohobG+DsHbN2HJ4tlYuXwxIvaGo6KyAl0GAxySCzaXHXmF+Vi3YT1WrFyBrVu3Ij4+HnV1dbBarcIUv1fS/LUPCPSJ6EDTVIrLgnfokffXcNjOPs2e4i84+Dtj8P8sLjbq9cb3AxNOXMSYKq/3QXV4jio++AkP3il0SYQ4bD6+Bz8WHY4DnlB2fdWl1Wp3AloFiXjexqQ2qG7rge7YR/h0cNJHiNy3u+jUhwq9z3IyRAdtyIrIS69M8pSZvWuIvzMBJsAEmAATYAInk4D/owo9XHXWV2DUu6/hsUf/jc8C1mHelANY7BMdwkCiQ3l6Jt5761V8M28lakl0cErYtzsUQ4e8ik3Bu9Bpc4phD+KZSFEQHx2BwS+/iHXfbYbefDjRYZGwdNifkAWTC5DcEpobK/HVtIn48osZKCmtgN1pRltbNaZNn4yxU+cISwfHUSwdyP8XjUd3SDZUVJVh3fq1CA4JQmtra4837eL52ONBfVUzls9dj4SodFitx27pYHV0wic6JObDLNM08i40N9Rg5MiPMW78Z0hNTcNXX36J5597AdO/nIHVq9dh6ZJlGPzKKxgzZgIqyssRs3cHXnnhWSxZvQUterPwR9FUW4pPP/4Qk6d+g4r6ZjhlhzB1dzhNyM+IxuiR72BneIoQHUjIaW6ow6cfj8THH32M8rJKMZ29xW5B0PZgvP32MIRHRKCurgbLli3BMLJ2iNwvrD9oOMjYkR9g68bNwsqB2sbRFnrWttmNyM9Nx8oVizBp0jhM/WIKwsP3oL2jHU7ZJaY+1RsNSExMxOLFi/HRxx9h5jczkZWVBZvd1i+dx6Ple6Dv7xPRwU9k6NG/9L609QkGBFNcSFTRwOuQpXub2N/rh+onMoi6oN00+yBZS4hhFTSMQp39hYSH7m3kz0QVIbQ+7fHW5ZGOI9Hh3nvvxY9+9COcc845IixfvhwOh+N4T9Mn8c/qk1R6JUJq36BBg3D22WfjrLPOwvnnn4+hQ4f2inWEr767hleN8laY/xEUhcxjaKGKJPMs9SLb7VTykJ1mbyJqXG+DEmYwx3I58s9B33z2FVVr495179Qpv8f61/vY3t+P1dJB1QS9R/fKKIsOvanydybABJgAE2ACTOBkEvB/VCGHiO01hfhk2GsYMWI09uypxNYlVVhCs1eMOyAsHYq8lg7vvf0qvp67FDWtethsdoQEbsXgQYOwIWgHOqyObgePXtHh1ZdIdNiKDotNWDj4D6+wWXQIXL8AY0eNQIxwJAlIshN1taUYN+ETfDNnKaqadKID295Rj8+mBeCTKd/28OmgMfQvDz0D0nOvW0x7LqGjUyf8GCSnJKOjo6PHW3YxvMDjRqeuC2HbI5CTUQi7/cg+DeicdD46h91pwLyZk/DSoKGIOFAAk0Sig4TKkmK8N3wkZkz/FpnpGZgwbiyef+5FLFywFMHBO7E9ZAe2B4cgITEZNCtFTHiIEB0WrtiIlk6TeFavKS/AJx++h6nT/ofKhhZh6UDndLksKMiMw5iR72JH2AHorDTsAmiqq8Hwt9/AmDFjUV1bJ3w22F0ORMXsxzvvDEPw9u3o1HeiqKQA48ePxfQvv0JcfBymTArA9M8/R01F1ZGnnvfBVvscksuB1uZ6JMbvx+eTAzDolRexfNkSNDY1wOWWIMmS8GXR2NiIPXv2YMiQIXjrrbcQHh4Oo8nYQ/zRkub19yPQ56KDZh1Ow6HsViFa5ebkCOGIxKOs7Gzk5+WjjXw7SDSLE/0yDr1ofTMaekGWEbRohhAKCQ+ayEDTUns/a8fQWkwyQLNaKHQV6X4RLb4c4j86xn8hPxF0TdCuFdo++m40GHHPPffgvPPOE31yEh4GvOhwwQUXHLvooFETa/UCSxVBypCPqHAEQgqSKjS4FJf3oqWIqSjoIuWrcKJPaWkbtTmQtQbnbzqj1dRAX4spY44+ZaZPdOhRJypPf9HhvHPOwbnnnIMrr7gC69auHej0uHxMgAkwASbABJjAKUjA/3FFdrvQWpWNj98ZjPc+GI89e6uxZWkllkzIwOKxCWL2ikISHbJyMXL4UEydOQclNc2iYzvzqxn411PPYN22nUJ0oO6ASFtRkBAdgddeehFrNgaizWJXnR16p12nDgaJDtvWL8C4j0cgNiFTzF5BHYPmpmp8NnkCRk+YhPScfBiNBuTnpmHY8KF4f9w0ZFU0+BxJElr/smifKX0aSlFaVoqdu3Zi2rRp2Lx5M3Q63SFrIzc7DzHRcWhpbjumjjedh85BU2Yu/GYyXn7ldYTF50BndqGtrR3bAwPx4XujEBS4A0319Vi2aCHefec9RO6NgaHLBKfDBafTBbPVDrvVjOg92/DCM09h1vxVqGnUiTJHhIVg6KsvYc3/s3ceYFFcax+Pmt5veu89N7k3uUk0PTf50k3RxMT0npiYXFti19hiB2NBxBqN2At2EUUQbKB0VKRKkw7b+/6/5z27Z11wkQV2YVne8TnO7MyZU/5nmJnzm/e8Z+4ilFVWi04XdaTIyWZqfDT6//Qt1m6MRonKKGBPWXkJxv4xCl989y12Re9BWVUlCktPYnLAVDHUY9++/VDqVFCoq7E8dDE+//QT9OnbF926d8fKFSuhrKqx9QGkiM5ru2rUqaSObXVVJdJSkrB5wzoETJ6A2TOnY8f2rcjOyoRaTY4z9Sg+WYyDBw9i4cKFGDduHObNm4eYmBgUFxcL55IuG4J3NkuB5kIH58zpWiMgSaBLqazGnt07MWrEUPzY6wf89utvGDhwEPr07SfC+g0bUV2tEFYLYgiOySRmaiFLAb1OB5N9xhRKU1ikm00CSGn0RuiNZugNJuh0eugNepjMRhFHr9eBAs2iIc+j8hiNWrFfazSKLiulJxxYGmgmHb0IBgMBL5q1xd4ntlih0SlQrawUUNFssdry0xug0xtQVVXN0MG58U/bFsYHJKatAU0mPfSaGph0Glh0OljIQ6heDys1itkgGsxg0kKvU8Cs18JK3mn1BhFom+KJ1tMZYDHoYRUXGpm22IgTiEoZTTSI7bSi+O0OK5n6WaFUGhG5KguBAyKwcFg6ggcfQuDg7di+LtU2NlEK4HyDtm8zdJDi8JoVYAVYAVaAFWAFfEEB59cV8lBfcuII+vb6Ct3f+xxTJ2/A7HEHETTooB06rEdqTB6KjuVg0rjf0XfgMMz9awUWLQ5F/76/4Z13PsTy9dtRqTHAZldLIMCKPZHh+PqzTxC6fA0qBHSw2qdGF10I6DXVWBM6F4P6/Yzd0XHQ6G3m1EpFBVatDEXf//2CgMmTsWb5csydNQOf9eyJ/oPHIykzXwAMqgMtznWR2zRtZ1x8nOjoLli4QHxdz8rOEh0h+2m1VidPlqCoqFh0WESCtY6e/sOWjxUGowYzpo7GK6++gVETg7BkxUbMDgrBiEFDETJzHrKO5UCv0SAl4TD+GDsJY0dOwLIlK7Fpw1Zs3bIde/YcwMn8E4jYuAxvvvwCfu43HEtXbBSzW4waMQxDBv6GuAMHRbll3cwGHY4k7MfAvj9h/aZolNmhg06nRVTMbvzvtwEYPHIE5i9ehHmLFuC7Xj8gKGg2CouKoDFqoTGqcCQ9ET/+8D2eefY5DB4yDEePHReOIIXjDZmR89pJAqVCgcidOzEvZA5Wr1iOA7GxKMjNhU6tFl+wqeNLwIH8WAQEBAh/DnFxccKZpMFpClCnJHnTQwp4EjpQkQggUKf+aHoKvvriE3R+/BFMmTIZUdF7cODAQWzeshV//bUE23dECIeoZCGuUChA7R22IQxr161F2Nq1OLSfZlCpsU2najagvLQIkbt3Y/P2XYg9cBgbt2zD2nXrsHnLZhQUFYjhN1HRu7Ft21bkF+aLqV5twMGAnKxj2LxlI3ZFx0Ch0sBo0iH/RB4id+7G+rVhImzcsBnx8XF2Z6lW0NS+qWlx+Dt0IbZt34n4uGSsXxOGNWvWITZ2L/ILCtClSxd06tRJjDxgS4c6FyRdBCaz3maCYqG5f5XITzuIrIOxyIvfjxMH96EgIR6lR9NhrKqA1WSCRlmO3IS9yNofjYL4AyhIPIQimkM5LRnak0WwaHWoOHYEhWmJMGlUsNrnSiUAYdbqUJl3ApoGvNrWKWbb/snQoW23H5eeFWAFWAFWgBVgBVwqQH1KsVitqK44KRwC/vDD/9D3x8mY2H8jgn7bZ4MO/dciNTYXJoUeSYfjEDA9CL37DsS0mbOxNHQVps+Yi33xqdAYbLMX2NIE0lOSMCdoJvbuOwiNziCAA/laEB+zYIXJqMOBmEgsXjgfKUcyoTMRjADMZiOqykuxYe1qDP1tAIb+9itWhYYidPHfWL56C3KLy8UHH9Ehqgc6VFVVIT4+HklJSSgpLRFjs+mrJ53jaqEOjVlMq0lT8rmO43wexaBgNOsQtm4Zfur9M778tje++u4n/K9Pf6xavgqlRaWwmOxj2s1mnMgtROiiUAwbOAz9+/6KwQOHYsVKsoTIxa7NK/D+O69j8MhJGDNhOvr06Yvp06aBrBOqq6vFF2dRLqsVNNVgYe5xLF04DwcOHUGN3iz0IEtnlVaN6P178fv4sfjhl97oN/BXzF0wH1lZ2cK6QG8xQGtUobKiGKNGjsAHH/TErt3R0NCQEqoQfVeUlXNe2ytP+pWWlIgpUQ/HxaOmqhpWk9lhNk3HafrEzMxM7Ny1EykpKaistE0L6qwfb3tHAa9AB1iRkpyAbu+8ieee6owVK5Yj70Q+FAoldDqDmNJVpdHAbLGIaS83bdokhtG8//77+O6779Dt7bfx1SefY92aTQJMqA3ViIreiu7vd8cjTzyPz775GR982BNPPPEYnn72aWzfvg0nTxZj4KDf8MILz2P+/HnC8oeuLYWiBpMmjUOXJ5/A//oNQF5hIQryszB71kx82KMnPvn4M3z79Xd4+f9ew5eff439e+OEVZFJr8G84Em49ZZr8MJLr+GnHwfgna5dcff99+Pb779HcnIyHn/8cYYO9V2WdaGDsuokopeHYM3okTgQ+jfi1qzEgSWLEBsSjIKdETBWlKOy4DjCJg/DqtGDEbdyOQ6uW42ETWFI3xkOZV4ODOUVSFr1N8KmT4I6L5vu/DBZDDAZtVCXFCNm1WqUHM2or0j+t5+hg/+1KdeIFWAFWAFWgBVgBU4pYKXXPRNqFFUoL6/CscRyhAbEIei3vZj9Wyym9l+L5NgcQAfodRpUq9Qoq6pBlUoFtY6GCOihM5ptps6Uqt0NmNFggFJRI4YR0D6CDfROSUMohK0DDU/QqqFWqaCjKSEd7sNsHX+NRo2KijJUVpRDpaiBWqOGQmOAwWzDAs594rrb9MVVr9eLjnZ9oOGUAPRF12bZK6173QUPVB+lqgoEOcorq1FSViHWGo0OVjtwoLIJTcw0naYBymoFqiqroahWQqs1wKjXImr7WnzQrStmhSxFTn4FykrLoFIohDNIGvVM5RFDpamcZJquVUGlqIaKzNJpKLB9dLTZaoXGoEOFohqlFeUor6qEQq2EyUxm8lZUqWtQXFqI2D2R+KnXD5gyNQB5+YUw0VhrKqgb0IGggkqpgtFgtJ3jJD45BSS9TSYyl9fV8p/hrDdve0cBb0GH0pJiBAfNwKcff4gvvvgc48dPwNKly3Aw7hBKyytgoL81gx4xMXvwyiuviKEKc+fOxeHDhxE8Kwj/+dd/8MZr3XHocCKq1SXYvm0lXvzv87j6hnvw5Q/9sWnLZnz//Td48803EB6+HSqVElu3bsGzzz6D997rjpSUZGHtkHYkDa++9jIe+c+jwjqi6GQRFi6Yhc6PPYpPP/oUmzduwcED8Rj46xDcctMd+HXAMJQUlUGnU2JmwHBcfcVFePChxzBl8mwsmBOM/3v9VXzz7TdITU3Fo/95lKFDfZelDToY7JYOJtSU5CJqYSB2Bk6DtbgMUGuhPn4MactDET7+D5Qf2oeSzASs++NXRM8PAmo0YhgFmZxYaZgFPXTUauRFbsWa8SNRuHePGE5BQzLUVSXI3h+D2FWrYCqrqK9I/refoYP/tSnXiBVgBVgBVsArCjj1PUT/xVUfxisZc6JNVuBUm1lBVgjkIb7khAHrZqdh7uB4zBm4H1P6rUVSTA4sehucEBYDopNLwyXIwZvtQzelJRYJD0Rf27FXQAcaykFWBacuEHtn1+5UTvgrt3eAbdePzcGcKBs5JySfAvV8jD9VF1kQ99YSgDiAA1lEiAI2fL6EFc7xqeNPY8ZlEqJcVDFZcKdk6RhZdsTu2oKfe32L5Wu2oaxGKzpwZGUsjtu1Jkd6lJ8or93PGiUp9bdt2x3uCb9sdMxyyoE8gCMZR7EubC0mjB8rZtQ4cDAOaq3OBozsAtpXjiai33UXi9k+Vp4OyAj2NUEHd0BP3TT5d/MV8DR0oPToejMZDaiuqkDsnihMnDAen372Gd54syu++uY7zAgKRlpqMmqqihA4eSz+8Y/L8eijj2L69OlYtmw5Zs2YhTde7YrXX+uGqOgYVCgKsTN8NZ5/5ilcf8sDCF60EuWVFdi0OQxz54UgM/O4gFZVVZXo0+d/uO++ezHtz2nC4epffy3Cg/f/E99820v4OcnMOoqePd/E1Vdchm++/AYL5y/C0r+XYdTIcXj0kS74+edfkZdXCJ1ehZnThuPaKy7Cy6++g5TUHORmHcf8hfOxYuUKMZUrQ4d6rj9xwyHaaXcQSevq0lxEBo3B9oAAoFxJNl8wqGtQmRCH8AnjkLI0BCeSIrFmVB/sXzQPUBrFkAu6qYkbhsUKs1aDymMpiAqZgbgli2CqrgJNzVOWkYzV0yYjM2YPrNrWmT6kHim8u5uhg3f15dRZAVaAFWAF/EaBup0V0QmiTpFTJ9FvKusHFXFuL+pwGy16GK1mnDxhxPrgo5g/JAkhg+Iwpf96JO7JhUkPkNNJggbyXGpjCvb+5hlVkR108kXmSEAmJNeUgtO2432XOtz0td8pPxlNrmtlLnfKtTwof9dai1xsnXn7/44y1IpXu2ynkrRTFvsOeYo87mrtnCNpn5+biV0RO3A8qxBaI4ECG5yxxSONactJZ/GD/rOPuxfHbLEJCsn4tC0d8VHcI0ePYOXqFVixaoXYVms0MJnJysMxQsKRj8zPlouLWjhHsG+LVT1DWFykwLs8rICnoYO4GOhvjv7myfrdpBcOGmnY0sxZs/HUs8/j9rvuQfDsmSgoSMPAvt/gsksvwdNPP41p06bh7yV/Y8mSvzF33kKsXrsJJwoKodRVIipiPV587lnc+WAXbIyIgVqvg8FssIFPM/kiNEGr0yAsbD2eeOJxYe0QHRONb7/9Bk88+jRWr9wMtVaP+MOxeO6//8bll5yPb778GvNC5mPJ4qVYumQ5Fi0Kxc5dMaipUUNvVDugw4c9v0RxuUI4tzQaDcJ5ZXlFOQ+vONO1KG4tduJJ0KHqZDZ2zhqFcAkdDEbh4VaZn43d06dg74wJyI3bjjUjeiNmeiAqEo4gPzUNBRnHoK6oBEwWkHMabWUJsrdtxOY/RqEmIw0aRSkK9u3G4lHDUZ2bLRxXnqlcfnWMoYNfNSdXhhVgBVgBVsB7CtTtg5A5NwW533s5c8qNVUC2iW1tmwGN/ISRpUNRngFrZx/F/KGpmDv4MAIGbESCHTqQ0zYy75edEcqX0nB7sWdMAMIBHyS1qF0oW/df+GEgXwz2L/x26EAgq+5ptcpQJy3HRejp/ZSpTLNWAer/4Xh/d6qbAAPCQsCWnkzS1fq0lAXDsTn8E7o6inRqn7Q+oLUAETTcwmIRlhDy71Su3crTud7OJ1DeDB1Oa6KW2uFp6CAtWiqrKpFx7BjycnPEkCmtVoPcvDx8830vXHHV9RgzdiyKizIRPHMyrr76Krz44osIDw+HVqsFWf5UK9UoqawGQS6NoQb7Ijfhpeeexd0PPYWNO6KhJOhAU9yKqW7NMNrBQ05ONj7/8nM8+OAD+Pa7b/BEl8745ZcByMzKh9lsQUZWEj77uhuuuuIS9O71I5ITU6DT0lAPM6qqlKisUUKrN9ihwwhcc/lFcEAH4beQfLmYhd+Rzp078/CKei9UAVZtN2EBHUqysTOoDnQwalGTexzbAidiV+AY5B3agTVDf8Sm4YMQN3c+ds6fg90rlqAgLQkW8ihrMgnwUJWaiK0TRuHY5lWoKcxExoa1OLBsKQyV5Q4HQPWWy58OMHTwp9bkurACrAArwAp4WwHxbmKbh51mb7KYzLCYzWIqNW9nzem7r4BzP5E6waWlJTicEIf9Bw9gx5YELJpwEPOHpCBk0CEBHaI2paCmUgO9UVsLOtiQUiPAA10fFgt0WhXyc3NReKIIOo1tiK+j824v3Gmdc/vXfmnt4E/QQXTUxd/OKRZDrVm7nerX2VmrU+c5QQeR0unXh6v0Xe07/cxGFM7lybzTGwp4GjqQ3w7y0xEfF4/Ro0ZhyuRJ2LxpIyIjd2HZslB0f/99vPjqW1i+OgwKRTWOpCejZ88P8dhjj+Hbb7/F1q3bsHffAaxZvxHLV6/HsYzjUGurcXDPNnR95RU89NiL2BIZC7XeIKysaDiQsIiiGRQtZiiUNViwaAHuvvsu3HzzTXjyqSexafNWaHW2WRnVumqs27ACr73+f3jsP//BsCHDsSN8J6J3x2L1qjDs3BmDouIyMbxiTtBY3HDt5fjiy14oqVIKGCKz30WQAAAgAElEQVQBWU1NDZ566imcffbZPHuFqwtT3mDomIAOZbnYGTQa2wMDgNIawGCCUVWD0rh9WPvHKOz/KwiFyXuwYWQf7A+aBn3aEWgyj0GVlwlDdYWYToSmw6RGVp3Iwf4FQdgbMg0nD0QhbtF8VKemwKRV2RwAtReKydDB1aXH+1gBVoAVYAVYgVMK2DuS1JkkwGDU62HQamHS66GuqUFlaSm0Gs2p+LzV6grU7liSd/okzJs3B5MDAzF5/CJMGxKOuYOTMGdQPKb234B1i/agMLcMWp1ajO82GYzQ63SgL55GmprdbtFCfVvq+FBnhRw5SmeOsjNEdvxGgw75ORkInjkD8+cuRnZugfCCLzo40lcAXVP0z8kaQPyup69L9TltqV1J1z345saRmbosgDxYe+2qXg4mQP7VKLqsv4v61k7t1C+bPraC2Kpls2qQ1g+nYp7acrf6p85w2nJ1stNh3mx5BeTf2Z9//okrr7xSdKDPOussPPLIIzhx4kSjCyRhWEZGBuaGhOCPcWMxYfwfYj127BhMmDgR23dGoahCIfyY6PQ6pKenIygoCEOGDMHoUaMxceJkTJg4BbOC5yEj4zi0BjWOpcZjyoSJGDR8EpKPZEJt0AkrB+EvhoYEWcnxqW0KXZrqdtToUfjqqy8ROC0QBfkFwjEq3XcMZh0qKkuxbfsWjBg5AoMHD8HE8ZMwaeIUTJkUiI0bt6G0rELA0m3blqNXr0/x16JlUGp1YgiSFESlUokhIe0KOlx44YX4/PPPpQb1ruUNi8aB0ULrmqpCbA/+A1smTYIuKw/60jJUHj2ClOXLsHXKJOTv2Y2y40lY93s/HFgQDF1ePpQlxVCWlUBVUQ6r0SgGdJGPB21VGbJ2bkb0jElImjcLh0OXwFhWZgMT9ZbKDw8wdPDDRuUqsQKsACvACnhMAep4WCzQKJWoqayEXqOBjkxolUoYNBpUnSxBXsZxccy5U+Sx/DmhJisg+4yUgNlkhE6ngUqnw7HUciz/MxFzhyQiaNBBTBmwAQl78mDSAoqaSmRnZWL/3n3YGR6OrZs3Ij4uDpXVCuEXQK1SIyszC3tiYrAzYid27dwlvpKeLCkRzuHMRiOyM45g7crF+OqLT/H11z9h8dI12LkrGqkpaVDWKGp5pZTXDK3lIst9ao880nbWruolSy/rV/d3ffWV8V2vZU4ytdpr1+eczmdqn2X/5epklxF5Z0sp4HHoQM4+aGpYI90fdKAZZTRqNWqqq8UMExqtVjh3NQpIZrtuKD7NNEMdeaVCCbonqNVaqNRaAQvImazRoIFOq4VKS75kAIPZNrRCQAcbbrTbNdn8SdQoaqBU0mwvWmF5QdYXlIfRbICZhmXQ/Uurg0atgUrkpxFTeer1RjGKy2QyoEZRCoWiAibK0F5e2S4MHaQS9azpNkLTDpGaZJ2gVJYhYslMrBr7O9LD1iJj6ybEL12MyKCZyImIAGrUUBTlYe3YQdg4cTTSN6xB8pYwJG/fiNTIcNTk5QgXuAQdDDolKnPSETV3BsLHDEf+3ihY9LpTV1M9ZfK73Qwd/K5JuUKsACvACrACHlBAdjhoijwaE1tahhNZ2VBWVwsIAfpiTZ7PTSbxUUN44rePy/dA7pyEFxSg90qajSIvU4m1s9MQMjQRMwcdwKQBYUiMzYNRY0Hc/r0ImjUTk8ZPxJQJEzCgzy8Y0K+fcNhGU2cmJiZh6tSpGD1mNKYGBGD69BlYujQUKSlpUGu1MOh12BO1ExP/GC5Moru+0xMjxkzGzNkh2L49HKUlpaBhOU6MwQs1bdtJyj+9pqzdqbmrdN05j+O0vgKehg4N1cj5WmkorvNxgcLE88D2p34mNCaHQDif36RtWVgXJzN0cCFKrV1iSh4iOLY5e3U6BbIO78He9SsQv34lDoetQuKW9ShOOgRzTY2Ip6kuQ1p4GPYvX4xDq5Yiaf1KJKxdjqQt63EyPRlykmTyYKxWVSA36SDStm6AqijPNobPbuZVqxz+/IOhgz+3rt/U7Uw3ZDpWN/hNxbkirAAr0HoKyBc4+5rAAw2pMBoMTm7w5atk7XXrFZpzbkgBmn4xN1OBNUGpCBmagBkD99ugQ0weaspUmB44FT989y1CF/+N+H17sTJ0CXq8/z5GjpmEnLwiRETsRK9evTB33lwcy8hAZVUVqmuUUKjU0JtsXySNerKGSMKwEYMxdvJMHMktgsn5/VJeWw0Vth0el9I0de2OZK7Sduc8jtP6CrQ0dGj9GnumBAwd3NCRhlWIrwfkcMNsgtmoh8VosH1VMBoda5ATJ5qr16yHkZwAGfSOYNXrYbU7kZRkmeLSvMH0hQJGk8hD2Kc4PxTcKF+bj8LQoc03ob9XgIACPWQoVFRUICEhAXFxcUhOTkaJNGe1e+i1jZU7BSH8XRuuHyvACnhJAVe9Eud9cv49J5NbedhLJeJkPaSAK+gwcUAYEmLykHe8AH37/Iwe73XH2FGjMT1gKqZMGIfvv/0W4ydOE74ZCDSQpcOQoUMwY+ZMbNy8GWnpR1GtUMJopndLE4xGDbKzUzBi5BCMmzQDR/OKIM2zRTX4Yqm3NaU0TV3Xm7DTAVdpOx3mTR9WgKFD0xqHoYMbuhEccAQLmTLSE95psl0ye7THIUBBgYZkyPlWxZrmXhXBafqiOmmINOkuxNABC4elI3jwIQQO3o7t61IFnScPymJxcacmM8H01FTcd8+9OLtjR3Tq2BG33nILFi1cKM/iNSvglgL0rVAu0nqBpvqpqqrCoUOHEBwcjDfeeAMvvPACunXrJl784uPjUVZWJpx50ZRc9ECic3lhBVgBVqDJCrh41onbU3377e8OfOdpsuItdqLJCjG8YnVQisPSYeKvNuiQm1GAX3r/iG+//gorli1HdGQkYqJ3I3ZPDI4czYRKrYNeb8Dx48exY8cOzAmZgyFDh2H0mLHYHb0HCqVKQAeDQY2cnFSM/H0o/pg4HRk5hTZDW+da8sXirIZju74/MXf2OxJpYMNVWg2cwod9RAGGDk1rCIYObugmOiHUgXAE+0lOdwxh1Cg8gNqsHaSRI50jZz0+lY7Tm4FTGiJV+s3QgaGD7TLg/1tYAQkZZLb0YFEoFMKqYcaMGQIy3H333Y7pfs477zzcfvvtePfddxEQEIBdu3aBpgQykfUSL6wAK+B1BZwfoe5se71Ans7AuVIybft7gvxZC0Q4dvKGLytgsgAnslQg6DBHDq/4NQyJMXkoL67GlMkT0PvHXtixfYdwJmcyGoWjuBqFClqdHtVV1SguLhaWdyfy8xG2Pgy9ev2IadOmo7CwSHz00htUyMlLx5hxv2P4iPFISM6AcPhGH8/kNSRmw5A/fFkx75VNvq+fvpbj4Bu3drekzn/actvdczle6yrA0KFp+jN0cFc3eUeQaxfn1b5huYjgzi5Kv70tPLyivbW4T9ZXAgdaGwwGlJeXIyUlBfPnz0f37t1xxRVX4Lzzz0PHjh3RoUMHMUUSren3ueeeK44///zzWLhwIfbu3YvKykqRjk9WlgvFCviJAvKR7GpN1nHOoT0+Xv2kmf2uGhI6rJqVjOAhh4VPh8kOR5JWxMREYeCvAzBuzDhsWB+GPVHR2BWxCwcOxKGwsBgJCYlYs2YNNm7ciG3btmHhgoUYOHAQli1bjvLyCjENnsGkQXFZHhYvWYQBA4Zh/rxliIqMRlpyKmqqFLDYrXTFBzW/U9j9Col3d2eLZuF4z/t3C1f3LPdLzTFbUwGGDk1Tn6GDO7rxncEdlZoeh6FD07XjM5ulgPMQCNomCwUaRkHDJSZNmoQPP/wQ1113HWiaXYILcm5hCRtoLbfp+AUXXIAbb7wRL730Emj+5oMHD4r0aHgGL6wAK+AdBeQjmgCD3HZeS/BA+3hhBXxBAYIO+dlqrJyZJIaSkiNJgg5JsXkw6YGq6gokJh7GyhUrMXPmLMycMROLFi7C3ti9OHnyJI4cOYLVq1dj1qxZ4lkTEhIinEsWF5+E2WQW0+CZLAZo9Apk5WRizeowzA6aj+DZIVizZj1y8wphoELwH4Vt4kCGDr7wZ9FmysDQoWlNxdDBHd2c317ktjvncRz3FGDo4J5OHMujChBkIBhAoIGcQ9L4WIIN9PL2ySef4LLLLhOggWCCDAQfbr75Ztx7770i3HPvPbjttttw8cUXO6wfzjrrLGEFcc011whoQS+F5AsiJydH5OPRSnBirAArIBSgR7OEDnqtFnqNVvhfov2E/GjNCyvgKwqQI8mCHA1WzEjE7EHxDksHgg5mPWA0623TtTejwORPjGZJE87Qnf4+5N+K+Hth30MMHZpxjbXXUxk6NK3lGTq4oxvdoesGd87jOG4pQNIScFcojYhclYXAARHN8unQsUMHdiTplvLtOxIBB4INNAsFgYavvvpK+GwgqEAWDQQaCCCQJQPBhjvuuAOvv/46Jk+ejL/++ksMo1i0aBGmTJmCt956S/h2IB8P0vqhU6dOYtgFWT6899576NOnD+bMmYNjx44J6wdnK4v23RJce1ag+Qo4HtFWK0oLi1CWXwiYyaPSKRjR/Fw4BVbAMwoQCCvI1WDF9AQED4rHLLulQyJZOhg8Ax3EDGkW25TvVGrb34htILCohXBVZvM65platc1UeHhF22y31iw1Q4emqd8uoQOZQH/++edNU4zP8rgCDuhQ7VnocMvNN2PhggUeLy8n2DYVoE6+tG6orq7GgQMHxEwU77zzDh588EHHMAkJGmh9zjnn4JZbbhGOIidOnIjo6GjQTdN5IUeT5MMhMDAQr776Ku648w4QcKAgrR4IYFx00UW47777BNwg+EDWD1QOgh8UGEI4q8rbrEDjFHCGDjWVlagur7DNNCWtHChCSy+yUC2dL+fn8wpI6LByegLmDIxH8MD9mCp9OngKOsAqrCWoU02L7XJ0gg60r4X8F/hygzB08OXW8c2yMXRoWrswdGiabnyWBxWgByFZOtRUnBk61DKRlS9z9rXzlJkdz7I597vpppuwgKGDB1uq7SZFHXqj0Sg6+YmJicKyoWvXrsI6QYCBDjaLBmmlQI4hr7/+emHZMG7cOCQlJaGquqpeASxWizhO8GHylMl45plncOuttwpLB2kxIQEEWUPQMcqf4MP+/fuF00pyXsngoV6J+QAr0KAC9DhwLHWeEfZ+l+Ow1zZkIayApkYBjVLJYzu8JnbbTZjmNyJLB4IOcwfGI2TgfgQMCENCbB4MBsDQ0PCKute3CymoM03PJgEd5HXpIp7LXY2N7zKRtrGToUPbaCdfKiVDh6a1BkOHpunGZ3lQAXq2MXTwoKCcVC0F6KVLqVIKcDAraBY++ugj3H7H7cLpI4EACRpoTZYNNBzi7bffxpgxY0CAorS0FPIBUyth+w/bC4vtDc1kNqGsrAyxsbHC8oGGXdBwDUpXQge5Pv/88wV8oCEb5PeBLC+onORjgvIjACFeFl1lyvtYAVbgzArQn2TdcOYzPHOUTNYpa4sV5fmFqCgqdlhceCYDTsUfFCDoUJirwarpCZjnAjro7dDB9mRxUWM3rm16fjB0cKFdnV22Zzg9c51CC1DKuk1Yb1vXKS//bH0F5DshOQy/8sorHe93jzzyCE6cONH6BfTRErRL6EAv+zy8wneuSLrRehQ62KcxZEsH32njli4JDVdQKpUCGKSmpgr/C/Q3f+VVV4IsDZxnoaDfNB0mOYSk4RGjR48WnsHp5kgQoSnWB/RA0ul0oLwpvVdeeUXAB3IuecmllzgeUAQ6aBjGVVdfBRrmsTR0KRISEoR3chp6QdYZTcm/pfXm/FgBn1Ogtd7o7dBB9FmMJoCChbsTPnd9tHKBGDq0cgM4Zc/QwUkM3nRLAYYObsl0WqR2CR2ok9GjRw/QWGx+oT/tmmjxHZ6ADkaDAXtjY3H3nXcJJ5Jk0i6hg7w5tHjFOMMWVYD+lgk20N91Wloa/v77b4wcOVJYNlx77bXCsoE6+B062obfkPUBTYdJQyEGDhyIGTNm4PDhw1Cr1SId+kLU3IWsFggekLPKadOmYcSIEejevTuuvvpqEPyk65TAA63pN/mD6Nmzpyg3DQ06evQoKqsqbVYPVttXK1kmvndJJXjNCtSjQF3wUE80r+x25C0phFdy4UTbqAIMHXyn4Rg6+E5btJWSyH4FWzo0rsXaBXTQaDT45ZdfHObU1PEgE5gtW7ac0Wy6cVJy7KYq0DzoYHuhq6yowJjRo3HVlVfi7E6dhDn7P//5T6xbt058LW5q2fi8tqEAPQCoc0/QYOnSpfj6669x7333is68dOhI1g3UsSd/DTfccAOefvppDB8+HGFhYQI0UE2pI0+B0iOA4alFAgKtViuGXvz222946aWXxFAOKg9BBxkkhLjrrrvw888/Y/78+Th67CgqKyvZ4aSnGoTTYQVYAVagFRVg6NCK4tfJmqFDHUH4Z4MKMHRoUCKXEdoFdKCvjVu3bsXdd9/tMGumGSx+/fVX29jpFhi75VJ93ikUaC50oLGzuTk56Pz4E+hw1lnC0uHiiy8WQ2iys7PFGHmW2j8VoM58TU0N4uPjxRAKsiKgmSioA0++E2hNnXgK9DdP017SEIrfR/2OzVs2C1BBQxicFwkeJChwPuaJbUq3vLwcO3fuxOgxo/HCCy+IoRcSNtBa+n0gawyCD9988w3mzp0rhmsQXOGFFWAFWAFWoO0qwNDBd9qOoYPvtEVbKQlDh6a1VLuADiRNVVUVnn322Vov8zTEIjc31zHEwludjKY1Tfs5y13oQMbuFBf0NZoc7dmDSqlE+PbtuO+eex3tS45dxo4dy474/Pgyor9XuoFt2LBBTGn5wAMPONpfdtoJOhBsoKE2r732mrgm5GwRBCOl08a6MtFLiLcWKjc9sAR8qChHxM4I4bSyc+fOwrEkDf+S0EQCE7LQuPfee/HFF18IgKrX671VPE6XFWAFWAFWwMsKMHTwssCNSJ6hQyPE4qhCAYYOTbsQ2g10IKdygwYNwqWXXio6JvQyT1PiDR061AEeGDo07SJq7lnO0GHXqkwEDojAwmHpCB58CIGDt2P7ulTQA9oxwt4OHSxms3DWF7FjB955+21cfNFFom3p6/Cjjz6K9evXN7dofL6PKkB/qwQMMjMz8eWXX+LCCy+s5RySOu0UyHdCt27dMHHiRGENUVJS4hg6QcMnKMiHR0tW1fleQ/UoPlmMXbt2YerUqWLmDJpBQwIHAii0TfW57LLL8N1334HqwQsrwAqwAqxA21SAoYPvtBtDB99pi7ZSEvneyD4dGtdi7QI60As+eZInq4bHHntMvMCLF/mOHUSnhJzN5efnOzofzh2CxsnJsZuigAM6VBmx0wV0CF9bBzqI6cgs0Go0wnnke92649xzzhFDKzp26IB/XH45+vXrBxo/z23ZlBbx/XPohk9f+2l2CLJgIL8N1Cmn9VVXXQWyGqDpKvv06SOmypTXAl0PdK4IYnosmw+H1q4xlYsACDmxPJxwGMOGDUPXrl3RuUtnARokdCCgRvvz8vJau8icPyvACrACrEATFWgR6GC18JSZbrQPQwc3ROIotRSQjsYZOtSSpcEf7QY6UAeFXujJsoG+flIHRb7I33LLLeIlP+9Enuikcke1wevGoxEEdLACNTVG7Fx5ytJhzqBDmDZ4O3bYoYM0eKdhFVq1GrExMejx/vu49JJT1isXXXAhunTuLEzuuR092kw+lZjspKelp+HNN990gMRLLrlETD1JTmJpruTS0tJaPj3EeRazT8Mo8jFRUVGB/IJ84XfijTfeEFYcdM8ip5MEU8hXCS1UH77OferS5MKwAqwAK9CgAgwdGpSoxSIwdGgxqf0iI3rnYujQtKZsN9BBmlHTF8IffvhBjPMm6CBNly+//HIx3jsjIwNlZWX8It+066lJZ1lgFcMnFAojdqw8jgD78ApX0MGgNyDz+HGEb9uOnh9+6LBwIAeSF5x/Pp556iksnL+gVkezSYXik9qEAgQdqFMufTjQFJjjxo074ywPbaWTTuUk+DBlyhQxfITuVxI65OTkiPahOG2lPm3iguJCsgKsACvQAgq0BHSwWM0wW80231byq427dWtsfHfT9cF4DB18sFF8uEjO713Olg70jkYzI9IHL15cK0CuDmjmOJpNjt7b6WPanDlzxGgE12d4d+9Z3kheXiBkUk1fEQ8dOgSaTpEuEAkeyCz75ltuxvfffw+6iBITE4WHeSqPPN+ddUPldyeN9hbHQqblABRKGl6RdRp0CF+TAr3RhJzcPOyM2Ilfev+M/77wgpgak2CDmLGiQ0fcdsstWLhgAdQqVUPNwMf9RIH09PRa0IH8tJD/Bvpbp7+jtr7QzBwzZszARRddJO5VDB3aeoty+VkBVoAVgPjQUpirwarpCZg3MB4hA/cjYEAYEmLzYDAAerMeZqupfpfG9HhzDi5EZejgQhQXuxg6uBCFd9WrgOyjUQRn6ECd6IcfflgMf5VxeG37MCZ1UCgU7Qs6kMUDzWQRGBiIZ555BjfccIPD+WCHjrZp9W677TbQzBZBQUHYu3cv9uzZg+jo6DMGirMnZg9iYmLOGEQ8N9JrKD+/Ob4nGlGkR8xeREcmYHkQPXhtjiTJ0mHKb1uweMYO7NoZgyFDh+O555/HhRdcgE4dOtphQwdh4fDPBx/El198gYIT+WJWi3rvFnzArxSoDzrQDc5by6n3PPGq4q1sBDSh6TGnT58Omr2CLR28JjUnzAqwAqxAiyrAlg4tKvcZM2PocEZ5+GAdBWQHmnbXhQ633347Vq1adcb+ot/03xroF9etJ/V/t27dioceekj4X/N7Swd5odCazJZjY2Px66+/gjzFk6kHWTvQyz0JQV8U77nnHjHN5pNPPomGwlNPPYWnnn5KEBwyHakviHgUl4PQ4MmnnkIXod0LePfVr9Dvi+m1oMO4/63DDx+NwSvPd8d119/oMKMnh5HndOqEyy+9FM89+ywWzJ+P5KQkGOkTAS/tRoEWhQ522kCWOSbpoMubcMNqFYCUoUO7uZy5oqwAK9BOFGDo4DsNzdDBd9qiLZRE9iWprM7QgT4M0UxqNMSiS5cuHFxoQDML0iyScpSBXw6voAuDLpK6C5lgHz9+HIMHD8aVV16JCy68wNGpJfAgKQyJ48lAInOwadChY0ec1bEjzjn7Atx2zb/x6evDakGHMb1Xo9uLvXHFRTejY8dOok2oLc4/7zzcfddd+Oarr7Bq5UooampgMdFj3G5yWLex+bdfKtDy0IEcCFlhtFhgts9+4S1h6Z5FVlkMHbylMKfLCrACrEDrKMDQoXV0d5UrQwdXqvC++hQ4E3SQfUdae7Lf6A9pSW2oLnLbb6FDfRePyWRCZmYmBgwYgHfffVfMbPGPf/xDOJqUovDaBmC8pUOHszrg3HMuxG1XP4xP3qgNHcb2XoPuL/2MKy68ERdffAmuvOoqXHvNNfjPo49iWkAA8vNOCOAgxjZaLLZmPp0v1df8vL+NK9Cy0IGm2zRDbzBApdNBbzQ6fEe4gprNlZahQ3MV5PNZAVaAFfBNBRg6+E67MHTwnbZoCyWpDzp4q4/kz+m2O+hAPh7IuSQ5bEtNTRUzWNCQC5qW7qabbhI+H8jvQ0OBhmi4FW66UaRLaXO4CTfeZAu33noXOj/0Kr57749alg7jfl6Lz94ehCf+9QI++fRzDB8xAqNHjcLiv/5CTXU1YLHCYiY3lBDbDsdKbeHOxWVstgKehA62Fw/XxMpsNkGhqEJebjb27z+AbTsikXE8S8yS0exK1JMAQ4d6hOHdrAArwAq0cQUYOvhOAzJ08J22aAsloXcz6ax8wYIFwkcB9+ea3qddsmQJ9Hp9qzS9V2avOFNNnIkVxaPf5F1z3759mDp1KiZNmoTJkydj0uRJ9QY6TtPaUaBzzhSmTJ0i0qNzOEzG5ClTMIm0C5iOmYF/48+RYbWgw6T+GzFlRCgWL1qNtPSj4sI0m0ygQMABzsNmaNs+7v5Mbc7H/EeB5kIH+nvXarUoKipCWXlZralWzRYzaE5hmkK3vKwUcXF7MTdkFvr27YdPP/0Wq9esB8Xx1kJlY0eS3lKX02UFWAFWoPUUYOjQetrXzZmhQ11F+PeZFJD9RlrTTIezZ88WkxPQBAUcGqcB9ZtJQ/r43xpLi0MHV5WkC4koFgUafkEdizMFSbycL8T6tikdEtdgMHAwGIQWRrMZBrMVimoTdq/JQaDT7BV/Dg7HjrWpMJoAkwWiTajN6CEhgIMADRI2yLWrVuV9/qhAXehAFkk0ZSb9/bmz0N9uXl4eFi9ejHXr1gnIQOfR9aXRqHE44TDWrF6DlJRk7NsXjcWL52H4sOH44P3PEBq6wp0smhWnLnQ455xzhBVWdna2SFfeZ5qVCZ/MCrACrAAr0KIKmK1AAU+Z2aKa15cZQ4f6lOH9Z1KA37/OpI57x+gdnBa5du8sz8XyCeggq+Msgrgpia7I6VsyPq+bpgB1D01WQKUyIXLtKegQPPgQCDqEr00FWd7QQ1p0Jq0076vF1hrCmZ/dl0PTsuez2rACnoAOOTk5AlQMGTIEubm5Qg2L1YKTpSfx1+K/MHbsOGRlZkGlqoFCVYldu3bihx96Y9ky70MHGvbl7EiSoEPXt7qCoAP9LdA9SvxNtOE25KKzAqwAK9DeFKB3nsIcDVZNT8C8gfEIGUjThYchITYPNAmX3qyH2WoSxpsutZFWnXLtIpLFaobZarZ/pHER4Uy73OP2Z0qhzRxri9Dh9J5IO2owH7myGDr4SEM0oxg+BR2aUQ8+tREK0K2STA2VKhN2rckWlg4LhqZBQocda1Kh09lGU8hk6YZLHUMZ6Dcv7U8BZ+hAHnHJr0pjLB3ooVFZWYnVq1ejT58+2LVrl+jEk0XSsYyjmDp1CpYtXQa9Vg+zxQSVVoEdu8Lx/fc/YNmy5SuoBs0AACAASURBVF4XnKGD1yXmDFgBVoAVaHEFjGYrCrLVDB1aXPnTM2xr0MFlea388e30luU9rMCZFWDocGZ9/PKohA4KsnRYnY2A/juwYGhqg9CBpiyUgaGDX14aDVaqudCBLAU0Wg0Oxh3E8OHDETInRAyx0Ol0iI2NFePzjmcch9UiHvNQ61TYsWt7i0IHmgf6vPPOE1MMCUuHrqdbOrC1Q4OXCkdgBVgBVsBnFGDo4DNNUctqVljR2i1pvV1CevetG9zJk6GDOypxHFagYQUYOjSskd/FYOjgd03aYhVqDnSgjjpBB/LbUlhYiJCQEAwbNgxHjx5BUWERli4JxRyCEGqVqA+Zuiq1NcLS4Yfve7WYpQNDhxa7nDgjVoAVYAVaRAGGDi0is1uZuOzEt4D1bF3gQL/dWVyWly0d3JGO47ACtRRg6FBLjvbxo7nQwfYN2t3bdfvQtL3UsjnQgTSSPhHUGjXCw8NB0+Vu2BCG6KhoTJo4Bbt3RQknsnSNSegQsWsHfviuF5aFLrd9pvCi2DS8gqGDFwXmpFkBVoAVaAUFGDq0guj1ZOmyE+/D0IGq4arM9VSPd7MCrEA9CjB0qEcYf97dFOhAekjYQGte2qcCzYUO8toh+JCRkYHxE8Zj5O8jMWvmLARMCcSJ3BPCbwiZXJosBqg0NYjYuQPfffsDQpcuY+jQPi87rjUrwAqwAs1SgKFDs+Tz6MmuOvDy3cCjGdVJjN5c64Y6Uc74U5Tb6U34jJH5ICvACpymAEOH0yTx/x1NhQ7+rwzXsCEFmgsdnNOvqqpCaGgoevTogV9++QVbt26DSqkSM6VodGpkZB7BjsjtCJwWiNdfeRO/jxiF2JhYpKamQlGj8MosEmzp4NxCvM0KsAKsgH8owNDBd9qxrUIH31GQS8IKtE0FGDq0zXZrVqkZOjRLvnZ9siehg8FgwOHDhzF06FBMmjwJxcXFMJvNAjpUVpdj87YNGDVuJPr374+PPvwUff7XD+PG/YElS/7GiRP5sFjoSvbswtDBs3pyaqwAK8AK+IICDB18oRVsZWDo4DttwSVhBVpSAYYOLam2j+QloQNNmXlq9oozT5npI0XnYrSyAs7Q4ayzzsINN9zQqCkznYtPjiU1Gg1ycnJQUFAggAMdpxcSnV6LvIIcJKclIjUtFanJaUhLTUdaWjqysrKhVmu8MtSCoYNzC/E2K8AKsAL+oYDJAuTn8JSZvtCaDB18oRW4DKxAyyvA0KHlNW/1HAk6mAEI6LAmG4EDIrBwWLqYMnPakHCEr02F3gCYPf8hudXrzgVongKehA7OJXGegpJeSCwWM4xmA0xmg7B8cMS1AlYKdisHOs/5XEe8Jm64Cx2amDyfxgqwAqwAK9AKCpisQGGOBqumJ2DewHiEDNyPgAFhSIjNg8EA6M164by43tceOuAcXNTBYjXDbDULcN5o11f1Zuwioza+i6FDG29ALj4r0EQFGDo0Ubi2fBo92wg6qFUm7K4HOhjMAD2k29FzsC03aYuVvS50uP7665ts6eBc6LrggF5KiC6QQ0kbZXCOfWqbHFLKGTFO7W38loQXDB0arx2fwQqwAqyArytAH1EKchk6+EI7MXTwhVbgMrACLa8AQ4eW17zVcxTQwWqDDlFrc2pZOgQO3o5ta1JgsDJ0aPWG8sEC1AcdqOPv8YUuVOfgIgPK1+YHQrzGuIjR8C4JHGjN0KFhvTgGK8AKsAJtTQETgEKGDj7RbAwdfKIZuBCsQIsrwNChxSVv/QypH0fjGzUqE6LX5daCDgEEHVYnM3Ro/WbyyRK4gg7jx493dPw9Ch+cgQNtu1gcwKCJNjmO8+3DNAg6TJs2Deeddx7IZ8U555yDrl27Ijs7Wwzj8IRVhYtq8C5WgBVgBVgBLyrA0MGL4jYyaYYOjRSMo7MCfqIAQwc/acjGVIOhQ2PU4rjOCtSFDldceQV++ukn0SnX6XQwGo0iOnXmm724AR0oD3qBaepie/mxCmhCs2lkZmaib9++OPfccxk6NFVUPo8VYAVYAR9TgKGD7zQIQwffaQsuCSvQkgowdGhJtX0kL4YOPtIQbbAYaWlpeP3119GhQwdHp/yBBx7Ab7/9hk2bNqGsrMxRKwIPTbV8ECBBeIy0+3ZoBlhwFMjFBpWRhmecPHkSGzZuwLDhw0D16dSpk6gjwYe3334bObk5oi5s6eBCRN7FCrACrICPK8DQwXcaiKGD77QFl4QVaEkFGDq0pNo+khdDBx9piDZUDDkMgSwd3n7nbZx99tkCOhB8oO3LL78cXbp0QWBgINatW4c9e/agpKQEKpWqSbX05ksJgQOtTouioiIcOHAAq1evxqRJk/DY44+JelB9qF4ULrzwQnz44YeOKT0ZOjSpOfkkVoAVYAVaVQGGDq0qf63Mvfl8r5VRnR91jSebbiNZJ2H+yQqwAm4pwNDBLZn8KxJDB/9qz5aojYQORcVFGDVqFG655Rbh96Bjx46ic05rsgq49tprceutt+LZ557FuHHjEBERAbVaLawJGlNOb72U0PAPssbYvXs3BgwYgFdffRU33XQTrrnmGtuQig5nCZhC9Tn//PNxzz33iNk5qqqqRB0YOjSmFTkuK8AKsAK+oQBDB99oByqFt57vDdWQoUNDCvFxVsC7CjB08K6+Ppk6QwefbBafLpSEDiaTCUeOHMHYsWPx3nvv4a677hLWARI+kPNFshCg3//4xz/EUIyQuSGI3RuL/IJ8kN8EdxZPv5To9XphrRAdHS0gwrvvvivKSeV1DlRustp46KGHQHGmTp2KjIwMx7ScUgd36sBxWAFWgBVgBXxDAYYOvtEOVApPP9/drRlDB3eV4nisgHcUYOjgHV19OlWGDj7dPD5ZOOpsy4XAA83ykJKaglmzZuHrr7/G/fffLzrrEjoI8NDJZv1w/Q3X47XXXsPQYUOFhUFubm6Dlg+eeimhstIwD7K4GD16tLBsuOKKK3DRRRcJMOIMHC655BI88sgj+Pzzz7F06VIkJiZCrVGD0qBFAgdnLaQmvGYFWAFWgBXwXQUYOvhO23jq+d7YGjF0aKxiHJ8V8KwCDB08q2ebSM0t6GACTOTDT1DpNlEtLmQLKUCdbjnMgGasID8P8+fPx1dffYV///vfokMvfSLQWoKIq666SsCHgQMHIioqSvhUkEWu25E/7aXETUeSzmCgoqICkZGRmDx5Ml5++WVcf/31AjSQk0jy20BWDRQuvfRSARu++OILARsSEhIEaJB1lGWktUzfeR9vswKsACvACvi2AgwdfKd9Tnu+Wy3NmoXK3ZrJ91nntbvncjxWgBVovgIMHZqvYZtLoSHosGVVMrRagB7SFupgttADoc0JyQUWClBHnPw2EHwIDQ0VlgIvv/KysH4455xzxDAGOeSCOvlXXnkl/u///g+///47Nm/ejL1796KiskJYPzjDB/FiYjPEbFBpikuQgEBDbGwsNmzYIIZGvPjii8L/hLPjS4IOZOlw55134s0338R3330nnEnSsJGG/E9I6OBczgYLxxFYAVaAFWAFWlUBhg6tKn+tzBk61JKDf7AC7UYBhg7tpqlPVdQCwGQBNCoTotflInBABBYOS0fw4EMIGLwdztDBZDHDbDE7wAM9LHhhBZwVoA44dfhp6kmFUoHjx4/j0OFDmDt3Lt555x0BHy644AIxDaUczkAQgJw30vSU5Mxx2rRpiNwdifLycuH3wd1OPcUTziHLy8RMFJTOG2+8gfvuu09YNsipLyX0IOeQ5Oiyxwc9BJRISkoCDfcgnw+0UHpnylseP1McZ214mxVgBVgBVqD1FWDo0PptIEvA0EEqwWtWoH0pwNChfbW3qK270MFotcJktUEHs9UMK1k8WOlsXliB2gpIGEVWMXJYglKpRHJyMubNm4eeH/XE7bffLqaglMMt5JpAwA033ACySpgydYrwv0CzRRBMqG+hTj/5WiBIQZYNY8eNFY4fKR2a5lLCDVoT4Lj44ouF08sPPvgAEyZMQHJKsrCKcAUPJFhwlbc85uo8V/F5HyvACrACrEDrK8DQofXbQJaAoYNUgtesQPtSgKFD+2pvUVt3oQM9pE1Wi7B0cECHeszd5Ri5dignV9lJATEUx+50kjrmBA40Go2Y8SIgIAA9e/YUlgaXXX6ZAwxI/w80FOOaa6/BSy+9hOnTp4thF6WlpcIKgUCGXGgGDHIOuW/fPgEQaJYJcgJJU3Y6wwYaykH7yclljx49MGPGDKSkpKC6utoxlMMVPHC1T+ZNx2SQ+3jNCrACrAAr4NsKMHTwnfZh6OA7bcElYQVaUgGGDi2pto/k1TjoYAUBB1uwgNz9mIWPh1OVEQ8QQMSh4+x98pQ27W1LWjxQvWXnnNY0RIf8JVCnn6ah/Ojjj3D7HbcLKFAXFBB8uPHGG8XQjHHjxgmnk/n5+QI+kGVDTEyMgA3dunUDOac877zzasEGghgEG/75z38KyLFw4UIcPnwYWq1WQBACI3KhsjVmca5TY87juKwAK8AKsAKtpwBDh9bTvm7ODB3qKsK/WYH2oQBDh/bRzrVq6Q500GgBo5UsHWiIhcVm8WB3KCmsHuwp0sODfhNsMFhMMFMnjs0eaundXn84d9DlNlksKFVKxB+Kx59//omPPvoIjz32GO65557TLBUIRpDTSXL2OGbMGGzZskWc07VrV+GvgeAEWTNIaEF+I+6++2489dRT+Pjjj0GwIT4+3iE/lYHyl9YYsky0dmdxju/uOe6ky3FYAVaAFWAFvKsAQwfv6tuY1Bk6NEYtjssK+I8CDB38py3drok70EGrs0MHsmCgWSycps6UX7Nlx0t04gR8sPEGCPAgHiu1ysSdtlpy+P2Puu3t+E3XisUMhUIBmp5y48aNYjjF66+/7oAPZK0gYQKBheuuuw7PPPMM7rjjDsdsGHScjtGwCrKM6Na9GwIDAxEeHi7SJcsKo8koLC4EbLA7uxSOUQk+OAVH2eTwiToOU+m4I77wbXJmh5N+37hcQb9WQP49+HUluXLtSgGGDr7T3AwdfKctuCSsQEsqwNChJdX2kbwagg5bacpMvW3KTPoGTFDBbDKcciJp/zAszdStFtu0miazwebxgYwd6nw8pg4bzW5AayuFuhF8RBtvFkN2XGUe8sXeX9eOTrpT5160v30aVrlN10VZWRn27NmDWbNmiWEVt912m4ALEjzQWs5AIffRb3IcSf4aaBjGwbiDOHnypHAwSWmSo0kK9ZWDrl8BzCRocLW2+zCRbdRgfFdp8L5aQ22klrw+5R/EF7So774k9/OaFWjLCjB08J3WY+jgO23BJWEFWlIBhg4tqbaP5OUOdNDpyUcDTa1pQmVlEXZFhGHlqqXYtGUrwrdHYNv2bYiM3In0tDTUVCtgMOhw9GgcNmwKw/qwbdgRvhvh4TvEV+fdu3eLaQnJoWBWVha2bd2K3ZGRwqGfkMQK0TGsqKhE5O7d2BMTI5wP+ohcHisGdSzIsSL5JSBNVq1a5ddh5cqVcBXqq/eKFSsQEhKC/v3749FHHxVWDM4WDxI2yDVNh0lTbg4fMRzBwcEIDQ3FsmXLsHz5clBarvL2xD5Z/tWrV4MDa+Bv10BYWBhoKlmyFKJ7Fi+sgD8owNDBd1qRoYPvtAWXhBVoSQUYOrSk2j6SV0PQYdvqZBhMNLzCCo1Rg2PHDuLLj17Dg/ffie9690dQ8DyM/H0kPur5Pr775musXb0O5SXF+HvRFDze5XG8/Op7mDltLubOW4D58+aLzmB6ejo0ajV274pEt3fewTtvvY19e/fZ3D9YAY1Gi23bwvH2O++iX7/+YjpDH5HLo8WgIQXUOaahAvQ1n8Ktt97aYJBx29K6vnrVVweKf9NNN+Gaa67BRRddJKADDZ+oDzzQ/gsuvADXXX+dOI+GWFCgNG6++WavhVtuuQUU6qsf72/4emaNfEMjeS3LNf1tkn+Vzz77DNF7os84ba1Hb4ycGCvgZQUYOnhZ4EYkz9ChEWJxVFbAjxRg6OBHjeluVdyCDlbAaLFAbVDgWEYcur/SBbfccD0Cg0Oh0BuRmpqK/n1747Ybb0C3t7ojZvduBM8YiZtvuxmvv9UTudknYbbQ0Az72HcLmTNYkZeTi6+//Ar33n0PgmbOgsFghNFsRe6JAgwcNBRPPvkMgoKCoSOnEn620FfDgoIC9O7d2zFUQHaqqQPdUKC47THUp0t71ILr3D7/BrzR7q7+ruQwJoJ3NG2tXq/3s7swV6e9KsDQwXdanqGD77QFl4QVaEkFGDq0pNo+kpe70MFgMUOpr8KxY3Ho/uqTNugwZwXUZkCn0yFq1zY88ci/8PD9/8KMwADM/nMEbr3zVrz57sc4caJMDM8gUwZhoktmulZAUaPAnNnBuOvOO/HlF18iKzsHaq0eEZFRePaFF/FBz4+RfuQYLEQs/GwhHYqLizF8+HBcfvnlDoDg6uXf1T5vdDw4Te7E8jXQPq8BV/cY2keOWR/+18NYsmQJDAaDn92FuTrtVQGGDr7T8gwdfKctuCSsQEsqwNChJdX2kbzchQ56O3Q4euygAzoEBC+HygThoO9YeiLeffN13HvHfRg5ZDBmBQ7DbXfdjs7PvIJly9cjKjpW+Gc4evQojEYDLBYzdHotoqMj8cYbr6Lzk08gdPky5BcVY3LANDzw0L8xcUoAtOTF0g+HEhN0UKlUiIiIwDfffIMXXnhBhOeffx7uBBmf1zbdWAfWga+Bpl8DdM957rnnHIF+k540i8zIkSORmJgo7vM+8tjiYrACzVKAoUOz5PPoyQwdPConJ8YKtBkFGDq0mabyXEHdhw4WKA0KEHTo9kpn3GofXqEx26HDkWS82/VNPHD3Axg9YiimTxmM2+64Hfc+2BlDhozFtMBZmD59hnAmqdVqYDYboDdpkXciC+MnjMEDD96LH3/+CVt37MBnX36NF/7vFUTH7KVRGH67EHjQarUgEENjpilERUU1GKKjbXHlObxmPfga4GugWddAtO3eQ05tKdA9JiYmBgcOHEBeXh77c/Dbp1D7rBhDB99pd4YOvtMWXBJWoCUVYOjQkmr7SF7uQgeDxQqNSYeMY/Ho9vITuO3G6xAwezF0RitUajWio3biyccfx3/+9R/MnzMTM/8chjvuugvPv/gu9uw5jCPHspCRcRwlJSUwi6kLTTCZ9VCqqxG+Ywuefe4p/OeJx/Bdr1545vn/ot9vg3CyrMI2LMNHtPJWMQg+yFDvlI4uppqU5/D6lH6sBWvB10DjrwFX9526Onrr/sfpsgItrQBDh5ZWvP78GDrUrw0fYQX8WQGGDv7cuvXUzW3oYAV0ZhMyMxLQ7eXOuPn6azA+IAiFhWWIjYnFoEG/4Z8PPIgvPv0S+/ZFYub0Ebj99jvwyms9kJqWg4oqBaqqq6FUKmHQ62G1WmC2GGE06ZCVk4FeP36Py674B264+WZ0fvpZbNoWDr3JDCofL6wAK8AKsALeU0ACBplD3d9yP69ZAX9QgKGD77QiQwffaQsuCSvQkgowdGhJtX0kL7eggxkw2KFDblYqvv/0Xfz7n/fj536/YdH8vzF0yFD06PE+fur1E7ZvCUdJWQGW/PUnunTugtdf74HZsxdh6bIVWBoaCprHPjEhAXqdVvh1IPBQo6xGaOhS/PuRR3D3/fejd59+yC8ugRl+6c7BR1qei8EKsAKsACvACrQ/BRg6+E6bM3TwnbZoKyUhKM5LyyhAVpDeWhg6eEtZH063IeiwdVUydAbAaLVCZ9ajoiwfW9YvR9CsQMxbuBChS5Zj0aJFWLtuLdLTj0Ct0aFaq0By0l4sXDAfC+YvxZLFy7F4yd9YvHgxli5dioMHDoD8OpAzSYvFBJPRiOPHM7Bw0SLMnB2MqNh90BpNDB18+LrhorECrAArwAqwAm1RAYYOvtNqDB18py3aSkm82RFuKxq0VDnNZvr8652FoYN3dPXpVBuCDltWJUOjtUEHg0kLg0EFg14Fg0ENvVkPGv9gtphhNptA8NFsBTRmkzhuMtEsFRBxSASik3QBW+gitlod0MFqscBg0EOr00FvNMJgsoBeCuhU5pk+fflw4VgBVoAVYAVYgTalAEMH32kuhg6+0xZtpSTS0qG8vBwJCQk4ePAgBw9rEB8fj5MnT4r+nbeuC4YO3lLWh9N1Bzpo7dCBhkLQrBMUTLS20qPbttCDgxb632QHCnKfJAcSOoh4RCPIgaLFIoLFSr9t5xO4YOBg05X/ZwVYAVaAFWAFWAHPKVAXOswZuB8BA8KQEJsHgwHigwq939T70YMOOAcXRbNYzTBbzRDvQfUm5OJE2tXY+PUk47yb/Gg5yuKF9J3zasw2lUmUjcongzcEqFMo5+aT23Wi8E8fVyA8PBwff/wx3nzzTQ5uaPDGG2/A3fDWW29h8+bNMNAN0UsLQwcvCevLyboLHQReEFDA/oA4w0PB7eeZvNM7r52e5b6sG5eNFWAFWAFWgBVgBdqeAi6hQ/8wJLYD6FBaXI7KsmqYTN4zm27MFcHQoTFqcVxnBebOnYvrrrsOnTp1qhU6duwId0Ld8/z5d4cOHXDWWWe5HTp26oiQkBDo9XpnyT26zdDBo3K2jcQaCx08Witn2CC3vQP5PVpsTowVYAVYAVaAFWAF2qYC7RE6iJayArG7DyIpLh1atc4nGo+hg080Q5sshIQOzoCBOtfOv8+07c+QoW7dSAfSpm6oD0RQ/Dlz5jB0aJN/GT5caF+EDj4sFxeNFWAFWAFWgBVgBdqwAu0WOliAqPBYHN6fAo1K6xMtyNDBJ5qhTRbCGTpQZ5o62pdedikuv/xyXHbZZQ0GitfeA+l06aWXikD6SQhBegYHBwvoQEPjpR8NT14obOngSTXbSFoMHdpIQ3ExWQFWgBVgBVgBVqDZCrRH6GDr3APZGXkozDsJg8HYbB09kQBDB0+o2D7TcIYO1Fm+9tpr8VPvnzBkyBC3w9ChQ9HeA+k1YMAAXH/99cISQoCHDmchaHYQdDqdAA4MHdrn35jHa+1T0KEZtaNxR9nZ2UhLS3OE1NRUpKSk1Aq0rzUDlSc5ORmFhYXCqRM9cD21iId33fTsyYuVGMJCjjlswZN5e6oOnA4rwAqwAqwAK+BNBdotdIAVFpMFZjM5bfTcu0dz2oqhQ3PUa9/n1oUO//rXv8T7v0qlglqt5uCmBhqtBiWlJXj00UeFtQhDh/b9d+XV2jcaOoiOq295e9TpdThw4AD69OmDnj17OsKHH36IDz74oFagfa0ZevToIfIfP3488vLybN6kPdDCEjhI7880G4iACjRNqdi2tRkdt1jMjkC/JYQQvKKh9xB3279uPFe/PVBvToIVYAVYAVaAFWiMAu0VOpBGzh8bnLcbo58n44p3FzlrhVzX/XjiyQztafEriRdEbeEkXUEHeq/mpfEKEKh57LHHGDo0Xjo+ozEK+AN0KC0txYgRI8TYLOk0hsYjOY9NktutvZbjzh544AEsWrQIFgtBAGqF5i3iwU1fMWiaLosRBrMeZrMRFrMJRlpbzLCaKZjENk0HZrHYtgWosL+K0IPYscinstxhH9dVd7c87LyWcepbO8flbd9XwFe+ivm+UlxCVoAV8HUF2iN08NU2Yejgqy3j++WS0EG+7z/88MPiY57vl9z3SsjQwffaxC9L5A/QIT8/H5988okYi0SOUISX1o42L62uIAPdoM4U6vPyWvccd+PJ8yQQoTJdffXVGDlyJMxmM0wmegVq/kLwgICDuqYCecmHkJ+cAFN1NYwGHQzKGpRnHkdBYiJ0ZaUwmwwwmQ02MGGpM3WWJAUWK0BB/LZtW50BiYwn17IK9vgUVwabNYWMwGtfVoAAA4EwGstHQ5YiIiKQkJAArVYrrldfLjuXjRVgBViBhhRg6NCQQi13nKFDy2ntbzkxdPBcizJ08JyWnNIZFPAX6PDxxx/XAgmdzu6E8847DxdccIHLcOGFF8ITgdJvKB2Kc8455wizJQkqCDqQdQZ17jwFHWhIBcGEiuzjiJg2Cdun/AHN0SMwaVRQnMhBwrKlCJ80CRUHD8CgUcBg1MBo1MBs0MGi18Fi0APkXMpkscEGggZkHWE0OgLFoWAlUGKmeBaA4phMsOr1tnR0Olh0WluQ8Q0GQG+ARat15CXS8JFxpWf4E2lXhyRsIBPF1atX4+eff8azzz4rhiiRJ+O4uDiHY6F2JQxXlhVgBfxGAZfQYUAYEmPzIB5VZCloNdVv5C9Bu1y7UEZYHVrN9mGOLiLwLqEAQwe+EJqiAH0cCQkJEc4j6cMefcxjS4emKGk7R6lU4vHHH3cMryBN2ZFk0/X06zPpj08G54rSPlropl7f4jfQ4ZOPbRYOHToI2PDwvx5G37590b9/f+GVlTyzykD7WjL069cPn372KW6++WYHeLjmmms8Ch2ojQk6WIwGVB5Nx47RQ7B1aD+c2L4J2rIilCXFITpgEjYNHoTyqEjoFBXQqitQU5iFgoR9yNmzExm7w5EdGwVFVhasOj3MRj2UlUUoTNqH0pREaLOzURofj8KYWChSj8CqVAFGEwzV1ShJTUZm9G7k7o1G/r4oFETvssGN0hIYFdXQFhWgPCEeJ3ZHIHd3BPJi90CZm2MDGAQuxMubeP044/Va33XM+5unAN0riHRnZGRgw8YN+PXXX8UD6OKLLxZ/T+eeey5uuukm4Y+EhgUdOnQIFRUVHgNmzSu9n54tOzTi/k6O32oHP601V4sV8LoCdaFDyMD9CBgQhgSGDl7Xvm4GDB3qKsK/3VGAPpDMmTMH9C4tLZqbAh3o3YfSEn2oevpKp95MbVvulK+txampqcETTzyBs88+2/EBl6FDW2tFL5eXvpAXFxcjMzMTx44dw7GMY6LTcPz4ceTk5ECtUYsOHP2Z1Lf4G3Sgmw/NOfvDDz+IThTRu7pBoVSctq9uHE//PnjwC6qXCQAAIABJREFUIJ5++mmvQgfRKTEaUZVxFAenTcDhWZNw6O8Q1BxNRH7ERsRMHouoP0ajMiYSWkUZqvIzkL5xGfbPDUTSigWIWzYX+4KnIeXvRTAUFsCgV6E48xBi507A3uA/URIZiYLwcKQvWozMFathLimDsUaBwriD2LdwLuKWL0H6xtVIWjoX0eOGI33mDGiPH4MmPxeFO7Yg/a8QHF31N9JXh+LwvGAcWb0C2oJ8YU0hLlELwTO7A8z6Llje73EFNBoNsrKyhGXD999/jy5duoj5rclSiB5A0jqHhi5ddNFFuOOOO/Dee+9h+vTpYtgFwQcJOD1euPaYoAM2SIe99FJk89VCw6co0FfUM93X26NsXGdWwF0FGDq4q5T344luXB2g2hL3ttNus96vKufgQQVoaPLs2bNx1dVXOaADzV7hriNJARnsH2wpLQkd5LuMY01PWvqgZzX79XO3uroanTt3FlbZcig4QwcPXrD+kFRVVRVmzpyJP//8U5gZEfWjQPtodgSCD/IPq776+iN0uOyyy/DLL794xEFjfbo1Zj+1QVJSkoAOZLJEf9DesHQQN0aTETVZWUiZH4y8TasQvygIOVvWIHP5QiQHBSJ51jRUxkZCVVGIvLhI7JgwDPsCRiN/+xqc2LEeCfNmIHzscJQfOgCDVoniYwcRNX0kIiaPRWX8IRhLSlB1OAEndkXCVF6OqpwsHPhrPmLnBUGZfRzakwUo3heFA5PGIW1aINRHUlF+aB8OBfyBhIDxKN21DSWR4UiaF4yICeNQuDcWFrJnpTcAhg6NuayaFZeuSaL7CoVC+Gwgy58nn3wS559/vrg+pW8UCRzkdSsfRjRc6M477wQNa5o1a5ZtJhYeKtOsNnGcbH8bPvVSbHMQa7IYIIPN9Jti8MIKsAKNVYChQ2MV8158hg7e09ZfU6b3F/roGhQUhKuuajp0qKuPkYYS29+NKH3altenyWIEBXrP9seF+pP0wYmsWuX7H0MHf2zpZtSJHCjSlJAzZszAjh07RAgPD8eKFSvw9ddfY9++feKPhihefYs/QgeydKCx6PXVm24kLblQfgQdqFNHnTcKnoYOVB8BHcxGKLNzcGTxYpTv2yOsDmIDxiJjyVxkr1iC1LmzUBW7G6qTuTi2bQ1WD+yNvQFjcGT5PKQtn4/4hbOxd34QShLjYdQqUXT0APbMGIV9c2bAXHAS0BlhrKyCprgIhppKFCTFIXzqOBxZGwqTWgmjRglFxhEcnTMbx2bOgCLlEPIiNiFi0P+wd+wwZK5YgswVS3FwXjCi5gUjN/4ATHodQ4cWvCAJNpAlT1paGhYvXizuIVdeeaV40Mjrkx46tO+RRx7BSy+9hP/+97+4//77hX8UAg5nn2OzgKAH1IMPPojfR/2OvXv3orCwULwMyAe3eGi38N9bC0rpnazIdyu9+JBu5MjVZPOrIp2/Enhg6OAd6TnV9qEAQwffaWfZqaP3F0c4g3Wup0p+CuraR3d6KmFOx+sK0POxudBBFlKv0wtLz9jYWERFRYlAlslFxUXQG/Qw26eYJ+BgMOqQm5eL/fv3Y2/sXpSUlMJMvs1atkshi+7RNUMHj8rpf4nRHx1Bh88//1z8ATjXsKysTPgLaM/QoXfv3j4FHZKTk4XpkuzUeQU6kF8HAR3ycPTvZVAnJeH4hlXYNvxXHF+xBMVRO5C8IBg1sdFQFefiyNY1CB34C+IXh6AwcR8Kk+NwMj0RFZlHoa0sg1GnQtGxOETP/gPxSxcClQrAbOsIUT4GTQ1yD8Vi07hhyFi3TDiOJPBQc+wIUoKD/p+96wCvqkjbKop9ravr2l1Xt1l+u+vadtdVsa1tBQUbFlBAJCT03kIJpBJqQu+9t/QQAqSTQCAkpPee20ve/3nn3rm5uSQhITeVc/JM5pxz50z5pr/zFaT4eKEyKQbpB3dgz1gXHF/si/z4Yyg+mYyC5EQUpJ1EVWkh9CYLumyxlNENRm/7ztjJ7nU6HU6cOCE4oyiCRBnIW2+9VXA3UDSJ7ZOcQgTIqANl7bq1iIiIEBMxNUV/+umn+MPDf7DJ/fEbghD33ncv3u71NsaNHyfCqlQq62RtlZWUeme6w+zclnVKOgkzulYTtyoNytPSkZ2YBHVZWZ25W0W8oi1rQYm7m1NAAR06TwUroEPnqYuukhNngQ56gx5RUUcwauRouA53xYKFC8TayNXVFR4eHuJgRq1Ri3mXoENxSSF8fX3wwQcf4L1338PqlWtQUVaJWh4OdPFLAR26eAW2ZfbZ4Xjl5OTgm2++EaADB25e/I2gw9ixYy9pToeBAwc2quRO0k8QrB3+Mb32Ah1oEaIqPRMnVq+F7vQZlCTHI2nTGuQcDkPRiXjEBi5GVWQ4NKX5yIqJxG6P6Qhf7IvilFioC7KhLymCvrAA+tJSGKorkHvqGEL8Z+L4+tVAlUqADiwPZcz1ehUKz5xAmJ8Hji72RcXZ09DkZCI/MgzRHrOR5OuNqtNJyI2LQpDPLEQs8UPpyUToSgqhK8oXohi6qjIYDHqx0VJAh7ZrjGQbpLjVypUr8f333wu9DAQXKC5BrgaCB9TX8Mwzz+CXX34R+h0IalLfgwXpt3BH0HrFrFmz8Oabb+L3v/+97VuCFdQBceedd+L9D94XkzdBTyqntClpsgIPbVfKrh0zx3D2K1qSMZaXoepkCrL37EZMwFLEbtmCqoICG6un0le6dl0rue9YCiigQ8fS3z51BXSwp4Zy3xwKcA3aWk4HrmuSU05g8KAheOapZzHXYy4STyQi41wGJk2aJNZCU6ZMQXZONkwmIwwmPaKORKJXr7dx44034jc3/gZff/kN0k6fhcnQ9bkdFNChOS3vEg3DRTwvgg7kdJAcDXzHzlhUVIQxY8bY3jcmZsDw3VW8YsCAAQ2CDqQPXXteTK+9QAear6zMzEHcps2oyTwHQ00ltGVF0FaUoDQrAzHr16Dy+FHoaspRU5iDjLBDiFjkg/AlPjiyZjkStm5B6p69yI+Lh66sGHln4hEU6IOj2zbBVF1tZfs2w2Q2wmDQQlNejOzIEBxe4IPQgIWI3boBJ9avQsTsGTgVsBjqvEyoCnJw+tAehC72RWTgQhxdt0KAGCm7d6D0TKrYZPF0F6yX9q2a9mwGHZIW+z6Bg6SkJLi5ueGRRx4RnAxSNwN9ikjcfMvNQoRi1apVQkSiRlUjOIVEf7FsdUXd6/V6AWpSlILgxIMPPijACiFyceWVAoSgxYv7778f7733HtavX2+zciHikhwP7dwHO4T4LUxUgA4mIyoyM5G6ayeOeMzGAdehOOrnheITJ2DW6izdg31EuhamoQRXKKBQAFBAh87TChTQofPURVfJCdcSrQUddDot/BfNx5OP/x/e+OebiDoSBa1eI4D/8PBwPP3004LjMzQsFFqdBhqdGr5+3njwwQfwt8f+hvvuuw/PPfM8tm/dAa1G1+XXrgro0FVafwfk0x50oCK3DRs2ID0jXVisIEoXExuDIb8MsYEOMnxDWe2OoANRSLKO83SXl+Nmh8/teTG9dgMdzLXQVFQi+8QJqMvLYDLqoDdoYDBqUV1egsz4WKhzsmA0aGDUaaArK0FeQgxidm5G+NqVOLZtK06GhqEo7Sz06iqUl+Qg9Vg4zp1IgEmrteiNEJr0jTCa9DDpNNAW5CMzMgwRm9bj2M6tSNm1FVG+nkjftBGmykrUGgzQFhchNyEWMbu2I2rTekRv3ogToUEoycwQpjl5witAh/asmG6WlmznLBbBBlqVOH78uNDbQO6GBx54QHA0kCtBgA1X98Tvfvc7vPzyyxj661Bs3LQR1GAs4iHQ0Eg/oWlW9i0CGeR6oF4Zghk333yzEM9g3EyDYAa1IbvPdBfKKgmSakUbajzublYlLSqOWHybzchNTkb0ihWIXbkcSZvWoTAhDmaNRuh3EFiDAji0iK5KYIUCjhToLqCDHPOl71hOPstxXPoNhWnqneRUaypMa37rKqCDPf0kve3ftYYGyrctowDp3lrQQaWuwcgxbnjk4T/h677fIj09HTqDVnA1kCv01VdfFYcnAYEB4CFMZvY5fNv/a/z5L3/G2HFj8dn/PsO9d98HVxc3FOYX2vpZy0rSeUIroEPnqYtOlxMJIpCjgXLXI0eOhKeXpzBhRzN27u7uoE4DKi/kJScNDu6OV3cFHew5HewnCHnvSIe2fGaa7QU6yAncbDTAbDIKbbt6q5k9k0kPs16HWpMR3DjS1ZKd22ABD8xajYXrwMBvTTDVmizAgl4Ls1Evz7stwEOtxYSfQaNCZdY55CXFIS8xDnnxsUjZuwsh/n7Ii4hArU5vIa25VlipIOu4cEyLSnoIXNRSS7CFe6ct66G7x812RrChrKwMx2OOw9/fHx9++KFQAHndddcJEIBiFDSD+dvf/havvPKK4H7YuXOn0A9DfQ+Mo7kX06JtZwIbVGbbt29f/PGPfxSsh0xH6nugyAUVUY4bNw6HDh0SHFrkmFCuBihQC6hLy1GdlQNTVRWMGpWlzwpOIMthCntK82upgTSUVwoFLnEKdDfQwTaf240MHMu59rOt/1owtrN5iLWEEPmy6OVpqyYj1yw2JZLtZDZbYrf2fmNltOTRQhEZhvSVTr5T/PahAOneatBBo8KYcaPwt78+ju+//VFY4NLpNWINdeb0Gbz26mu4/777hUXAyqpKbNy8Ac+98Cxee/01LFy0ECPcRuCuO3+Pf73+b4QEhUIv17rtQwKnp6KADk4nafeJkB2Ol0ajATWukoV57dq1WLd+nbjn8549e8Tmg+HEwGg3GdlTgjEZzYC6xoiwLecw1+UgAsakwH9kDDxG7sPuDYnQaC3siCIK+xHakg376DrknrLnn3/xuU0ZHq1XOOp0kJOD9Nszo0yzXUEH23KhFqZaM/RmowAQaGeY0yYvWY2O9/LZDH5bK8RvLGHrKlsuDsxmI3SqKhSePIHkfbtwYttmJG/fhoQtW3DqwAFo8wos2vdFBHXfiwxYFzXd3faxLGt7+SUlJUJvA7kP/vKXvwiOA27+yXlARzEIciVQNGLXrl1iouXkTQBB9g36Lbkk+BAbGyvM9fbq1QsUsZAcFeR8oN4IclVQF8TEiROFpZ2srKwWgRwtyVOXDSv6iuygtGBhBvuiqBGr9JEEHVpWS12WIkrGFQo4nQIdAjrYdVjLJtZqrcE6J19MIevGbIILJhiNBiGDfvr0aQEIy3GdHGYVlRXQW7k/L5QW88f4qETvbMY5FBQWw0ATgta/C33f0t9lvPZ+s+Kwo2mzwtsF4qeOzu5n221RYRGOHo1GWFgIIiLCkZKcgprqGovyQM6VLZwvbRErNxdNAbb71oIOGp0GPn5eQrzi008+Q2pqKgxGvdBhxTp+/vkX8Mgjj2LTxk3gWmXYsF/x6J8eQe8+vUFdD6NGjsLzz74guB2mTZmO4sLiLq1QUgEdLro5dv8P5aaAvpxU2AElot0SCnDQbQp02LMxkVYShdGC80boVgz4LcnjhcI2BDr89PNPgjb8tm5i7hi2bqbfHqCDKKttWVA3fRM8kH+Slo6TrWNVMjw3O3KDI+OWvvidnBB6DVTFBShOTUFRQjxKkk6g/EwatKWlwtSfRU+D9URAJm71ZRwSDOGzcrWMAuzzctNPJY/kOCAHQ8+re9YDHLjppwwiOR8oEpGWliYmbdk3mKr9fUtyYf8dOR+2b9+Or7/+WnBYEHCgk5wPzAcVUNIM5+TJk4VyS36vXA1TgJQRPEC8sTp52/AXyttOQQFZSdIX1cdxkBxmJpvjmCeD2PudogzdOBNOBx1YeQ4X65ncgqKGHSqX7YAcflROR2CxwanP/psG4mdyNKvL75mOyWxAZVU5Vq5cgekzZiA5JQVGgskAqmtqkJefD7VG02B7s0Uv0rS0U4pPns3IgO/CQOw+GIqK6hoLd2SDmXUovPXR0r7r/28wpEi3boxrMIxDnMyGsBogMy/jaOpjh9/kJ9J3+Fk8pqaexrJlSzBr9lS4DB2KebO9kJ6WAZORIqHWPDf0YSPv5CcX8hv5XHlNkjsBdDAYDYg8HI5333kXzzz9LLZu3Qq1WiWUX69fux5/evTPePutXjh+LAYhwSH457/+iXfefQdr1qwR4qIHDx7C9Kkz8NADf8CHH3yEmGOxMOgtIt1dsZIU0KEr1loXzDMHvqZAh70bE6GnqfjGRshOUGZ70IGnq+R0+HmQxWSm3BB15MaGabcX6NBQdbDq6l3WE1Pbe9tNXai6ZYKcVy1v6kLwveU0hIsdIbphNIDWM0C7xTQhJNqM1bf/0HovvrcuwCX3BN8pV/MpQNCBgCNPtihq9dBDD4GiFGKz38OiJPLuu+/Gf/7zH0yfPl2IQhQUFNgAuean1HRI+3qrrq4WpqYWLlwoQI7HHnsM1157rc3ShRS7eOKJJ7Bs2TIBljYd+6X1q+g2dutv0SMafHlp0aXLlLahuuIwaN1oivFSiryJTakcY+v8LlPWLprRNgEdHOq9MdBBbJjIJWjUIK8wR2xodm7fBbrdu3YLLrDMc5mCXdtsIgcDQYDzN7d8xQMFY61ZiFEaTFqUlhVh/YZ18PHzQyqBZTOPDoj/GwXgIEEIGZ29L6pSiAxYgDG9UYPYhAQMHjERi1ZvRmF5RaOgA8f/8/4oJuHgCJDYzxWWNB0GO2aqkYvfkq7cHEYficb2bTuwa+du7Nq1G0EHg3E69Qyqq6qdOqdUVVYh5VQCIg8fxJgRIzDaZTySk06KebdeNh3ybb/2tN1bOUjt6d7Yfb24HR4krR1eXzKPog+ZjPDz88Ptt99uO9TgmiIzM7NZdGBbrKgsF6ISVHrtNsINO3ZsF2bCP/noUzzx2JOYO2cecrJysWDBQjz11FNiDUXOF6ZvMplx/GgM/vv+h3jqyaexYf1GVBOYsyr6b1YmOlEgBXToRJXRnbPCAa+7gQ40BTho0CAb5wcHiI68mH5Hgg7nlV3iAfKHBsgjJ7W6CdHyRn4iffHWbmEhORtsJwAyAvmBne/4rVigKKCDHYUufMu2xUmO+ls+/vhjmxgFQYdbbr0Fb7zxhuBsCAsLQ1FxkVgoMbyzJ0bZXmSOmS8qpWS758lA//79hViH5HggOHj3PXdj9uzZTs+LzENX9WWXsfdtZWnwpe1X5aazUMC+nnjPjaNQwGuA0awXToAPCujQITXWkaADpzij2QiNXoXo41EY/PMQDBvqCj/v+fD18YXLcBcs9F+EnOwcGE0GobTXbLQADxxnKUJBoNloMMFotoAOOqMWKnUlKqvKkJ+fh/z8Qqg0OhgFl2MdmOXYLO2fWRG0IqXXaqDV1ECtqcCxuFgMHjEBSy4AOnADRzCAnBu0AKA36ETehQlgM0X3LAAET5eZd8mhKyrfPhPyvpFWwfIbTDoB1owaNRo/fPcjfL39ELAkELNnzgHZ3IOCgkGgQK77mB7FS+ioS4hpy/mPCpHpGJY+9RrJZ5kFZklnVKG8PBe+nvMwfuSU80AHAQ6ZzNBpdSIOxsM05PxMC1J6g168s4itsiSWsxmjidbACKbUryeZvvQZn4xXxi1/o8+0WFZZNvvfutu9KGsrQQfWAE1h5ubnYP/BfQhcHohVq1cJ8c+nn3pGgA5sT1GRR7B9+w7MnjMb0dHRUKvUlrZVC5QWl2HLpq2C4yEy4jBUNSqnH+i0V90poEN7UfoST4cDX3cEHQYPHtxpBl8OkN0VdGi0+8jFg6Nv9wEHfbkYsfkK6GBHoQvfcoHBRVR8fLzgKuBmnu7666/HW2+9hd27d4OcB3KRwrboeDX0zjFMc54biofvuIijOMfo0aOFAksJPNx1110CEGH+lauOAo5dpl6N2f9Y94ly15kpwDoj6EDFvia92DQZzDoL8KCADh1Scx0NOlC0QmtQIzjsEL7s9xV8PecjKzMHaWfPYtbsWRg+1A0xx2NEmKQTSdi/+xByzuXBaDCgtLwIUVGHER5yGIVFZdAZjUKz/r4Du7Bp01qsWrEKQYfCUFJSKZgO7YcMITLZCBDBNlpeWorI0FBs2rAGO3dsxIq1q/H1wF+xaOWmRjkdxOat1gS9UYecvCxEH4tCUnICikoKhalBAg9yfqeOCFpYS0hMENbWampqwA27mPbtM8p7x8vKLaQ1qnAu5ywG/vgzRo8YizOpaaiurEHs8TgM+9UFLsOGIy4uTgAM3EjFxccJkT/qOtu0aRMohkjLTgQBaG5+86bNiI2JRUREhLjftXMXzlBElMrMrECAxlCN8vIc+Hl7YuLoaUhJOiU2+Mwi51YCRIcjIrBt61Zs3LgRVM7MdJg+FTtzHqbCZVFeoSuLIEMtTp9JQ2hYhNCZwZNzexLYF59zZGFhodj00rJCeUW54F6xD0NA4uzZs8KqFLl/CXR0VwCC6wpy77SW04Ftk0AZzWHWqGvEWikuNg6z3Gfj4w8/Qe//9YHH7LnIzMwSdafV0YKbpXHSM5tqYdAZoNXqYDRawKyuSnMFdLDvTcp9m1GA3UcBHdqMvCJiDlLdGnSwnykt43EdQe1/q3troYsCOjhQpOWPQp7XXB90IJfDbbfdJixTEHDg6QfboHQtT6XuCwEU2THS1v0ijlrOZ521BuCiiQuvJ//vSRsrJEGHmTNndtmTgXpld+KDfZdx7E62VakT01OiakMKsAIpAqXRQFdTDYNODYNBK0wYk9NBbMbYdRxcG+ZIiZprHgC559TY4BWHxW7HsdDtCDxctiEuMhM0rKMz6SxWlRqjlmOFNfDclHiFycrpQNCh92d9MH2yu5AJDw0Lw4SJE+A+dbZQWKjSVmHVqpUY8O0ghO6PhFqlQnbuWcyePRPjxkxFXMIpqHQ6pGeexc49WxEQuACDB/6MUSMmIuVkuljbMWvyaiCbou2J38212Lt7L6ZPnQpfn3lYsWIx5np74sM+32BB4DoUlVc2Kl5BnRIEHTKzM7B2w2p4+c7Dxs3rEZcQi5KyYvEbgRadXotTqSexbFkgFizwR3BIsNiwa9WaOv0MMpMy09LnJo+iFYYqpGefxqABQzBxzBTB/s4NoF5vwNq16/BOr3eEYnVad9uxY4cw2ezp6YnAZYGYMWMGhg0bJhStF5cWYe68uXj/3Q/gPn0mtmzZgsCAQIx0GwVfLz9kZmQJFnrq1CHoUFaeLUCHCaOnIiXxJIwGtiKgsqICq1etxK+//II5c+YIE9UeHh4inb179wogYNLkSUKH0alTqdALhZxAUUkp/Pz8MXHiZJw8dVpsWmXR7euMaXD+pMnptevWwt9/Pvbs3Y2TJ1NAqwpyk0suDq4zAwICEBgYiJDQEGEGUqVS2Q4dJCm7us+1jDNAB/ZDo5ncZwahOJXrKR6SlJWVCw6HzZu2YPfOPSgrLbOBDfVo51BRXB8xjva+mK68ZBuSz831FdChuZRSwrWKAmygCujQKhJe8ONuDzqQAnKkqxv77IbBxknU5Ca28c+UX6wUaAx0uPXWWzF27Fix2OCCxRmAA5MU9WUnTiNPsChWI+7NVK5l1wjsaiooKAjPPvusAjrY0aSh2wa6UkPBlHddgQJkpddqkXfqFNKio1CWmY6qwlxUFxeI93KQVOq8fSuzM4EOH/73I3z75Xfw9PASG9Pvf/gey5asQE5ONlTaSgQEBuDrz7/HwV2hUNfUIDc3DdOmTMbw4RNxLPYUNHqjAEk0hioUFWXA23MO3EZNRnxSGqSuw+ZQt9ZUCx9vP3h7eSMt7RSKSrKx/+B+fPP9ECxdtgGlFVU2uNkxPs5DBAT0Bi1Onk7G2o2r4e3nKcCHdRvW4MixKOTkZ4sTZbVGhaPHj2LlqhVYuHABVq9chX179iP5xElUVlIm3spe4JgIN99mA1T6CqRlncTgAUMxedx05Gbl2aacw4cPCyXFVKhM7j8CDN988w2WLFmCoOAgzPefj1dffRVTp03F2czTmDZjGt556z0sD1gpOAkolrF0cSB++mEQQoPCodFohSJfwelQITkdpuJUwkmYDBZT36dPpWDQTwPgNtwF8fFx0KjVgsuB9ThhwgScPHkSmzdvRv/vvsPmzVtQXlkFrcGIoJAwDBk6DIsXL0VRcYngfGhsHOC8S86MlFPJAsxZuNgfPr5e2L5jmxCtJMDCzTIPGci9sW7dOmFJamnAUgGwJKcko6qqygZQNEDaLvXKGaADaWoPOljWMnZrF2tlCE6cZlJHro+aGbzVwWR6FvDa0m/IN2pXimanoYAOzSaVErA1FGDjVECH1lDwwt82BTrwN24K2/Wyzum2gcl2U5cLMZhZz635s3yuC3HhuwaivfBHSogWUaAx0IGcDuPHj3ca2CAzxcnNcoJHM6yUzTVAXVONnKwsnEvPQE1VtQI6SGIp/qVNAcvAKbgczkZH4/DK5UgP2oezIQeQHhUBdWmJkKG/tInUMaXvTKDDJx9/iqFDXLB54xah/2bc+HGYNH4KwiJCUVJRiKUBAfiyz3c4sDMYquoq5GWfxpRJE+DiNhUxCenQGMyCk0Clq0BB4WnMmT0Zv46ahJikNBhMUhfEhenMA9p9+w7h8OFolJeXQKUtR0x8DFyGj8fKVVtRWl5lNd97/swuNz+cE/QmLcqrSpGQFIsVqwLx/YD++PmXgdi1dwdKyopgMOoES3tpeSmOHD2CBfN98MN332HiJHcknDgjdC/QHDfjdLyoD6VGXy5Ah18GDsOkMdORfS7XYuKnFggPD8err70KL28vYWGA5g2/+OILYeJwjsccAepQv9CSJYuRnnMa4yeMRd/eXyIpLhkm6skwGrB7x15899WP2LJhO6qolNLK6VBuBzqcjE+BSWeAyajH4YgQ9O39KRYv8kdZaamYcwkC0ErUTz/9JMQqzqafxcQJEzF27DgkJSUjOycfs+fMw4QJUxCfkASd3iBKax0yziu5nHcpnkXaxsQfw9Jli/Hz4J/S7AMLAAAgAElEQVQw5JchOBR0CJKjgZyNFB8JDQ0FOTz69euHqVOn4sSJE9DpdY4k7ZLPzgQdKF7BNkn9DlyLk3OEVlF4diLOT85vho3STPYDW4AWfGv7pgU3TE+sAbkus67SLdbqWhCJNagCOrScZsoXF0EB9omuDDpw8KH8Wt++fYXGfsqzU5FkV9HpwCpjGdr1aifQoV3LdIkmdiHQwdlk4eKHC0sufsrKS3AkKgIBi+Zj0rixmDfXF6dOZ9Yzs2qfvsLpYE8N5b7bU4DDuphgTahKz0D8+tU4stgHRwPm40zQPqhLi2A2WVi0uz0tOlkBOxPo0O+LfvD3XYjSkjLBLr9z5w589eU38PKeh4zsNCxdGoBvvvgR+7YfhKq6BhlpSXAbPgy/Dp+C2MRMO9ChHAUFqZgzaxJcRk1BTKIFdCDjwHm72Abqg8uQ4tJywdGg1akF6HA89hh+HToaK1ZsRlkToAOj41xExZd6kw6V1eWIjT+GJcsW4echA+A6ahgOBu9HaUUxqPRSZ9CisLgQBw7th4/XHAweNBCzPLyReDINKo1KzC+OoAOfCTqoDZU4m30Kwwa5YdKYGcjOzIXgaK+FEJF48603sWbtGnC+oXJlNzc3UMyBHAB00UejkZ6RjrzSLIydMAb9en+Nk4mpAnDQ6tVYv24DvvvmR+zcsRuV1ZXCQghFOihe4es1DxNHT8XJ+GQYtTor6BCM3v/7CIsW+KGsrFRQlqADrUUNHDgQsbGxAhAICw3Dd999j/m+/ti+eTuGDv4VO3fuRUW1Spikl9UkfVlFXB9S9wDnXW6OyyqKERoRhPkLfTHwpx8xzGUYyOFBRZliw1xbK7g2du3aBXd3d/T/rj/mzZuHlJQUBXSQRLUepBFoYFtMP3dWiKysXLkSK1esxOqVawQIeDgiCiVFpRa9I3bf2m5ZWbyslUawQoqzWt5bAsg1Pn15b/mw/n/Wn70T4R06r/33sq1IwEFwPPAg00yzzC0T81BAh/p1oTy1EQXYaNsbdGCnopIbsnu1xlVWVgoN+WRf69OnT5cCHW67/TYxWbAMZImjawkt5DfVNdWgo4IiTjrNuhTQoVlk6gqBOgJ0IKcDZSDzCnKxedM6jB81DH0++RD9vx+KiOOnhYldy1Rbn4IK6FCfHspTN6aAXA0KvxamqiqcPrgP29wnIdjfC0VJ8TBpqAW9ZQvDbkyxdi1aZwIdvur3FTxmeyI9LUNYGAoODkL/b77DPK+5yM49h/XrN+CHr3/GptVbkZOZhf27N+OLPr0x6JfxiE08B52BFh30UOnKkV+QCo/Zk88DHRoajx0JzjDU6VhYVIq8/BykpSdj1eoV+LxPfyxduhalZZVNcjxyLiJgcOrMSezcswMLl/hjrtccbNmxCYkp8SgtL4ZGr0ZFZRmOHo/G+o3rMGvOTPjN98GhoAPIyMxARXWlKAvnmMZAB42xGudyz+DXn10x1nUSUlPOoKykHAnxCcLygJubKxIS4nH6jMWM9K+//opDhw4hPz9fKHUsKCxAYWEB8suzMXbcaPz3nY9xYHcwiooKkXo2BZMmTxQKKQlO1GiqhElSATpU5FhBhylIiTthAR1MepxLP42RbsMwdvRIxMbGoKSkRHBcfP3114LDgModuREtLyuH+4yZ+N+nvfHdtz9g/NiJyMjIEhZIOArUGzLsKoebTNKWYiknTiZh247N8PSZi5keM7Bp60ah26Gqukqc0pPD4ejRo6DSzGnTpwkRi5CQEHEwJzkh7KLusrekSWt1OggQy2hAUnIixo4fg88/74OhQ4di/LjxGD1yDIYNdRFWKZISTtj0dxCYU6nUUFWrUFlRBa1aKxRJUjSJFUjQobq6CpVVVSIcLV1wrV5ZUQmdFRSiGAzX646KPlkm1hGtfnEtzzZDzgve8z33B9ThwXvJHc0ysK+oaypQU1MJvaEWNSqtMN1ZRX1eVr0jzaloBXRoDpWUMK2mAAe6pkCHPRsToTcDRscRUT63MAfsWBwYOShS3q21jizkHCgef/zxLgU6XHfddXjppZcwadIkMTFNnjJZsP7xuUVu8iRQSRE1Xu/fv1+YVLpglTiCDg18wMHM8icnQ/nUQOBWvmKb4CAqB9JWRndJfU4Aj6i2vfUKqUiSfaMll6xx+mQz1Wpp+kxvQ+bZ5eUkyPdqrRoFBblISjgCT48ZGOQyHmFx56C1ti/HtBXQwZEiynO3pYDd/ChuyfKccRbx+3fhdEQI1CVFlh0ef1SudqdAR4MOPLnWGTSIiArHV199jW++6o8Z09xBBYSjRo/CyBGjcDDoACprKhAbG4cxbhMwxnUc5s2eDY9ZU9D/668x3G0K4hLTxUbDYDJAo69CUXEGfH08MG7ybCSkpLdMvMKi8xSHDgXDy2se5s5zx7TpU9Cv73dYsXw9ysqbBh04b2RmZQowYfmqZQgOC8LptFMoqyiB1qARJ/XkoEhMihfiDatWr0TE4XBheaNaVQWdUQNadZGAA+Ozv/hMnQ46kxp5Rdn4dZAren/UFzOnzca8uV5is0jFxBGREWLjp1KrBLcD50FaTnKfaaHv/PnzcejQQZzLP4Nx48fg7X+/izkz5glLCJOnTcSIkW5ifUpggnky1ZqhMdagojIfixbOx4xJ7jiVmAKjjiz5erHhCzq4D2PHjMKkSROFGWjqUxoxYgS44edmkfMmN4AREZF459338Vav97F1+25U16jPAxvk0GFfem6wz2acxcrVK7BseQBCI0JwJv00KqsrxOabayidXi+sWyxdulQo0ow6cgSZWVnQaDRiDmeY7nKxLM4AHTRaDZYELMajf34Effr0Bk2LZ6RnIPXUGUSEReLQgSDk5eQLTgeCBclJKViyOAA+nn5wnzZL+IcjjkCj0grAwWjQIiRkP+Z4eGDZspVYHrgCc+Z4YMrkydizexdqqqtx6uRJ+Pr6Cr0b5IjhGo4X28m2bdsEVwotnRBsKCsvw4EDB+Dv7w/qKaGIEOv39OnTMOgNQv6jrLQQ69YshqfnbKzbtAfzFwbAY64nvL19EBMT22zgQQEdukvv6OTl4DDUJOiwIRFavfNABw6A27dvFwrluPG+9tprheN9g+7664T5P5oAbMwxjh49ethAh5tvvrnTi1dwY9izZ0/85je/EeIgN/7mRtx444244YYbLuiuv6GOFtddfx3obr/9dsFKSDNNzbkuNP1wgrf8tR/oQGRXuVpGAQE6OJjMvBjQQYpNSD0NeXnZCA8PwYkTCdDpNGJhRJNQ2Zk5CA+LxJm0s6JhcBFYVHQOAUt9MNhtIkLiMqFRQIeWVaISultTQIy1ZKs1GGBSqywcDhzr+MOFBuJuTZmOK5wj6LDAar0i/mKtVzRQFG6eadWB86itrrnxs7LL09rDucx0rF6zGl6eXvCc54l5nvOEssPQ0DAUlxZDa9SioqoShw4GY5H/Yvj7+WLfnh3YtXMHdu89hOy8EgEsmMxmwSGgVlci+kgkDgSFoaCozGYys4HsNfiKzTE6+qhQ8Lhs2VKEhYUKEYDExBSoaULSypbe0MfcCGbnZAs9DTl5OcJcJhX1CRDBqnxYq9Pg9OlUHD12FHn5eaAJQp7ik0YMJwGHhuIXaVO8z2xAtaoSO7bthOccb7Hx8/H2xapVq4QIQY2qxrYR56kwLTrwkMvTy1OAOsuWLUNMzHFkFqQJnQ59PvkCSxcug9/8+fCd74OQkGCQG8Jg0AughHmjWIdGW43jx6IRGhSG4oIimI1GIR5l0GtRUV6K8LBQLF6yWGwamQbFKriRJF3oOFcfjjyM3r37YMJkd6Rl5cFoPSG30NWumThwPnCDTUAn4nAEzmVnCsCfQBMBETmMaHU6pJxMQUJSEoqKi6E3GOopp2yMpl3xvdNAB40aAYFL8de//QX/++x/wtoJQQdyzqhrNDDoqSwUQklndHQ0fh44CP99/yNhqtXNZSR6/eddfPNlf0SHR0OnVqOmphiTJrvg3gfvx99fegU/fD8AH3/8CR64914M/WUwiosKceTwYbz/7nvo1auXAKUILrBtsL3w3b/+9S9QNIaiOuvWrcX7H7wvuDCmTJmCH374Aa+99hpGjhiJ1FOpMOh1SD9zAr0/fRMPPPh7vP9pf/T77nv8561eePaZ57EsYLlQhtqcOlZAh+ZQSQnTagoQY2sKdNi9IREajcXElG10k6PcRSyYyOUwbtw4XH311TYt9twkNeUIKFzI2X/fVUAH+zzLe+qkuFj34IMPCi3NrW4U1oVFe4EOzsjvpRoHJ1+eorSG00Eu+LiwMpj10Bu1SE1NEidmgUv9UVKcLxbPZBGkki2P2V6IOR4nJmN+k1d4BgsWzcEAlzEIjsuEmqbNGqgQhdOhAaIor7ovBeznyYuYK7svYTq+ZA2CDsO2oU1BBzmvWjfg3JAbjHrBUabWqKHRqMVmkhxkOoMeRrMRejM3libUqNVQ1aggw2m0amh0OuiN3IRTnwIdN7a1YoNE85FGKsOzbl5bQnGeoGo1Guh1OsHizc2ryWTZ3DYWD+chXpyLDEZudm1S5tbDC8tqgu+5geYBAzda/M6Sy8ZiPv89w5N2Op0OOq0OOp3ecq/TibLLeOWXfOYpNcPz0IubPL1Rj6LKXIyfOA5f9f0WMdHxqKkmy7tK6D1gOUQZrOJPBOUJiJAD0Kgn2EBlg2aYGc7EstByh17ET7Z5psEysnxMl3rHEhISMGP6DAwZPARR0TFQUxGlBYMS9STzS1/Wm/RJTaPZBK1oFyYh8sF3FipbwgvgicowyTVqB0bIOOzj7+r3pKszOB2o0+HEiSTBoUJrIwMHDMS4MeOwaMFiwelQVFgMk9GEc+cy8MuvQ/DQAw9hwPc/Yc+Ofdi3+yB++HYgHrjnIXjM8EBpQT4qq3IwctR3+M1tN+GZ517AmjXrsWL5Crzb6y1MnjgeleWlKC4swPSp0/DYY48JnRvkdqC4hZ+fHx599FEMHz4cZ86cQUREON5//z3cfvttcB3hiuDgYMHl8OILL+KPf/gjtm3dBrWqGmdPJ+C/77+CW267AX0HuGLDjm2YOXsO+n7xpQDmdDw1bsalgA7NIJISpPUUaG/QgToMyCZ077332rgTrrrqqiZBhyuvvBL2juEdnfyd77n5pr1kTjad5UpPTxfKLsnN0BSAIsEHhpFluvyKy20ATWOABLkmnnvuOYHUOqPMlqWAZTlgmbQsb5wRtxKH8yjAyde5oAMXshoUFWVj8/plmDt7MpKT40G22Iz0NPh5+8PPZyEKCootJwBmHXILUjF/4Uz86DJKAR2cV7VKTF2dAnK1L/2uXp5ulP/OADqIjSwVvgklgVauCLG5pbJebixNMJiNwrdsItmQIDb13HBxk2kBG1DPl83N3revOiuzhWWnav+D9Z5zCgd3+nQSQGggqO2V+Mb2ZLkR39eDHCz5tw8mw9i/a869BBYaTdcKgjQWF8tUXlOEZcsDBZt8+pkMwYbO94xbxi+/l+shPos8WzkXHMPyN/mtLBtl9Cn66ufrJ6xXbNm2HeUVFUIskpYGGjJxaF93vCe4wLD2IMN5YQSAcz5gIcPJsnQHn7RtLegg6aDX65CVlYnIw5FYsngJBg8ajA8/+Aiffvw/zPedj9ycXISFh+LV11/BrbfehiE/D4Wvtz+85/rCbdhIvPf2B1josxDFudkoq8i0gg434399+iI9PROZ5zKxZ88uHDt6BBp1DYx6HcLDwgRHw7vvvou4+DicOnUKn376KV5++WXB5UAOGU/PeXjwDw/it3fcjiFDhwj9HNzX9OvbD716vYODBw9Bq1Ej/UwCPnjnJdzxu1swZ8EqZBbkI+lEMkKCQ5FJnSG0m9uMSwEdmkEkJUjrKdDeoANRX7K7UebtzTffBE37ESi47LLLzgMeuOm+8847wY758Scf45NPPxEdk52zIffJJ5/gs88+w6hRo5CUlNRpQAcOkBxE9u7bix9//BHMZ0OOmpYd3b/+/S8hdkEwgoAD6WQPPBCcuOuuu/DRRx8J80hkWXTGJSdZOWHJZ2fErcThPAqwbTkLdCDbquB2MOmg0VYhITYSPp4zsXHTJhQWF+FYdBS85nrj4N5g6HQWtkNascgtOA3/hbME6BAUd07hdHBe9SoxdWUK1A2ejW7wunLxunLeOwvoYDlB5ybXAj5InyCD0c7Zgw4WjgYCDpyV628yuZ5zfMdn+5fFBSUoKy4Xm2zOH41d/K2p3xv7Tr5vzbcyjovxm5NvggsaXQ3OnTuHUydTUVVZZQMdLFStS/m8Zxv3Qx0wI8sq07b/htwVycnJQrkkZexLKyqEKAz1V+gFqGQf2pJuQ3V4oXfSVGJj4epK1PXvSGdngA6kvMWChU6AQBq1BieSTmDKpKl48P6H8Ma/3sCxo8dw4OB+vPjSC7jt1tswY9pMHNwXjOBDoQgLCUd4aATSTp6BurpScDqMGvU9bvrtrRjw0xCUlVZYgDtr/641GQWHTHFRkTBpTm6HBQsXCB0PTz31FFxdXQVXDDlzqKft3nvvwT333g1vHy8cOHhAiGOQ4yE0JBSFBYUwGvVIT0vE+73+jrvuvh0rNu9HGUX4RN8V2KE4HBL9/wLVroAOFyCQ8rNzKNDeoANRYHYospsFhwRjyJAheP3114UeA7mZlhtsybUwbNgwLF++XCCCBBNob1g6PiedsLzjPQf3zMxMG2vb+cO5c+jWklg4QLLMZI1MS0sTgIjIN/Pu4MiCR0dFMgcPHsTIkSMF8EJwgXSRoAOfyTVBdiyahKIuh8KiwuaxKnKjSjY8KqJp5CLdLH9yvSKfGvlAed0hFGDbcgboUE+ngzCJqUNBQRaWLw/ElBlzcDw+CQcO7BempPKyC4SJMq5XJeggxCuGjURwzFkFdOiQlqAk2uko4Lj673QZvHQz1NGgg2DVNxuh0WmgUtWguroSVdUVqKqpRHVNDapqalCtUkGrp14Bnm/XXQJ0sAIOAmSwY9FvHHRgIHFkjqjQKCQcS4SmRlMXaSN3nF+64yU3rRSTEEAPdW+wrFYyyTJz1eOoZ4Jzpbz4jXT13sn1k93vIn6KoFjNTgv9SULvB1M5/+I7Z7rzU+i6b0hLZ4AOXJMnJiUiMjICZ9PPorSkFBXlFVi/dgMe/9sTePONtxAfF4/4+Dh80e9z3H/f/XAbPgIxR+NAvQ9059IzkZedB51GhaqaAowe8xNuveN2DB40FOWlFdZKlJ3U4nM/sGfPHsHZ8Pbbb4s9ELkcdu/eLUQtuE/at38fXnvtVdx1912YPXsWTqWeAjnFiwqLkJWZJfJpNOgE6PBBr3/gnnvvwIpNe1Gu0daJ7dg3oAtUtwI6XIBAys/OoUB7gw72udbr9aDYwb59+/Dhhx/aRAgk6MCNNRUrPvLoI+jXr5/YWLMz8qJPJwdy+3g72z3zSAsD8uLzeU5MbmYhF1heUS7Y8Sjb9eKLLwoFmxKQoagF9WHcd999GDBggNDhQBq2RAmjQa/H2dOnEXP0qMiHpKnMH30LxGCZDC3jluWNfRjlvuMpINpWK3U61KtvLnCt8qs00RV2OBpT5/jBy38plixdiqBDQZYTMuvqzGDU4Fz2CfgvmIXBv7ohODoFGjMXVpa51p5Cik4He2oo992eAvYLPt4rV6ehQGcAHcoryrBv317BRj1t+mRMmjwO4yeOx6Qp0zFx8lQhl30wKBglZeVClEIST4AOgt2e3BBcS1h2p9Y983kbVSEqYeam2oy8c7lY7LUEYXsjoKlS19/VygTa2a9ba9S/a+ts0LyhmMasc55Y7cg+a5e4eN/Es91PTd5yruYl64/xEk6qDynVj0Jmxxl+/Zi79hNp6QzQgSYoFy5ciB8H/CgOQGkuc/zY8fj26/747LPe8PObj8LCImGqcv/+fej/XX888/Sz4veJ4yZj4li6Kdi+eQdKCwug0pRi4kRX3P/A/XD51VVwFJ3XIS3NAAUFBeCBKsXB77//fri4uCAjIwPcF7F8tFwRGBiAN974N974z78xYMCPGD9hglAiOWH8RMTFxkGrViEj7QQ+++g/ePjh+7Bi405UaPTC2qAcF2zpX6DKFdDhAgRSfnYOBToSdJAloOIdbki+/fZbvPLKK7j77rtxzTXXCDECAUBccTmoHLJ3794ICAgQnADssLJzysFcxtcZfbLzNXQx73QsS05ODo4cOYIZM2bgrbfeEtYtJHcDfcnZQFGK2bNnC2Uz/I6XjKehNBzf6XV6nDl1CofDw8V39oCIDFs3/ct1ieWN/F3xOwcFWO+t5XRoqCSsbSquyisqw4oNOzFo2Eh4envj7Nk0sXglSyK1Kx8+HIqAQC+4ug7E1998jzleS7Fj7yEknEiGSq2uF7UCOtQjh/LQRSjguOBvdrYv+sNmp6AEvEgKdDToQACgvLwM27dvw4zp0zFqlAv++9+38ORTT6BP3/4Y7jZGAA+79+5HUUkpjGYzVBoNCoqKkJmdjdyCApRXVUErlBUCtQYTqquqkZuXj6zsHGTn5KK0rEysK3iSr1ZVobAgB7s2bMOIASOwe+0+qEpVcnK3+BdJy9Z+JlYWcuMvfbFTam3MTX/PubMjLsdhQeTC8WVHZKwLpcm6cwbowPUz1yVe3l6YMGECxo4Zi1EjRmHKpCnYs2cvCgoKwfUylaPqdFrB8TDTfSbGjRmPsaPGY8KYSfDy8EV4SAQqy8uh16uwd882TJk0Cds2b4OqUmXRqu1Yv6LSgYiICEydOlWIWtA6BvdC8jCV/aKiohxbt22Bu/sMuLm5CjOsI0eOwty585B2Jg0GnQ6lRTlYGeCLKZPGITohBWoD9cFY9LzIfUFz2roCOnShDtCVs9oZQAd2CGr7zc3NFQMAZZnIakRdBfZ6DGgak4hgn8/7gOZjKGJBaxjcdHW1i2VmvqnjggBKVFSUEJOg/gqav7zm2mvqcX5Ik5gUM6HoBdmsZLkZlxyoLkQHjnUCXTcaoaP9ZvF3/leW9/wv1yWNhTz/W+VN+1FAtqPWWK9oLLeiXxqMOJl2Djv3HkBsfJzQtM5FrNGgR0lxESIiQ7F+40qsXh2IVavXYtWGbdi2ex9iExNRo1KJqC2tCKJvP/vss7Z2zf5Nu+qyHTeWD+W9QoGOoEDd2GdZN3KulO+alR8ZWPrN+kgJ1B4U6AygA4FblVqFqspKFBRmwtfXHZ/1+R82bj+IgtIqVFbVQKOlNSEzCkpKEBweDp/58zFp6lTMnDMHew8eREk5ZcaB4vxC7Nq5C3M9vTDDfRbmzvPEjh27hBI8vU6LnOx0rFsTAJefBuPrD76C5wRf5J7Oh9BiKNq1dcaXm/6O9tsBdGiPduaYhhwKHH3bwCJ/cPxQea5HAa5NnAE6MFLuPaqqq1BdXQ0q/aSVLjpaRhHiNyZaiDEJ3Q9GkwE0w1pZWYXysgpUVVSjploNrVoHcs6YzUaoaipRUV4GTY3aYhrQfuKQ9Wv1CXowXW74KXIhL5aPf7SWQvGrysoKAVIyf+Vl5cKSjbSgYjBoUF1ZjNKyIqiNZnBs445IMPLYcVXLuBvzFdChMcoo751Kgc4AOjgWiJ1w27ZtwrQmdRZIcQuhz+CKy0Hw4Z577hGcEfPnz0d+fr5l89xByLVj/pvzTJCACoaov2Hy5MlCgSS5OVjGyy63ussuw/XXX48nn3xSiJcQkXUUhRCDk93AIp8bywPHOta5uKws8LZn+d5+EWJbaFsGQbsgym0noADrm5v2tgAdWDzZXixzJLlyLDKwtUIxEjWo0+wXlUpS4zqgo/4Shmlg0ahwOnSCBqNkodkUsK4LRSfg1CKf6Tfrsv+g2R81K2YlUCsp0BlAB4suAbNoWCptGRYv8cDn/b7AzqCjqNHXtbfikjIsW7FSiFsQdPD08cHAwYPxq6sboo/HQq3WYPe2HRjuMhzuM2dj8ZIALF++AvsPHERebh4oTllclIe9e7ZgwoiR+P7T7+D23WikHj8jdiec2am3gM6iZ8DYrr7QmeAIcjQwf7SyyjvF545DgnyuN7goY8UF64rrHmeBDhdMzBrAsgJuonJEZdqtkcjdTHFwWckN+U0kzjWVozsveC3EGsxooiJMAwxynuJBpMO+4LxvHV4ooIMDQZTHtqFAs0AHLQR61mDnaZtsCdSP4gb+/v5444038NBDD1msW/SwWHGgvofrrrsOjz/+uDCPGRkZiZKSkvM25W2UvVZFS0STsltbt24VcmS///3v64mTSF0Wf/3bX/FZ78+wbNkyoc+CIIXjJUEGe98xjP0zxz17kEGOg/XDyOGVvv2YySfl6kwUIAjVlqCDY1lFy7BOhnKhKlqJlZ3PwMUAfxctp/7XCuhQnx7KUyelAIEzrRbFWVkoyzwHY3UVag0G1JKjTgLbcmBsqggyjPSbCqv81q4UaBB0cNmG+MhMUGJRx0U8wdTGciXrVPoNhLNs4k2WsdAazn78FBsKplAL1GhKsHjxbHz+ZV9sO3QU1Xord02tGceOH0ffvv3w448DsXL1amzdvgPDXEfgzV7vYfX6TSgpLkXg4sXo17cvFixajKSkZBQWlaCyugZGKxcoNyQqbTkO7dmNsYNGYfSA8UiNSVNAhwbqra1fySZj74uGVu9FW+eia8ffeUEHy4JZAIpmo1BSel7dynq+QBWcN1Y0IqLNtNi/xXhjjdN+PyDvL5Cc4LZ44YUXhFg39yA87PWb7yc4QZobx4XScPz9MscXynP3p0BnBR1IeW6oyE5EEzHe3t54//33hciFtOBAv2fPngKQeOedd+Dh4YEDBw6ITtLZak4Mkkaj4MpYu3atkM167rnnhGUKlkNyc5CL4/EnHheKbQIDAxETGyNEKfh9Y5ccEJoKI79taLxzjFkMdtZtowzvGEbGp/gdSwEBOpjrOB1k36Ap2vHjx7c6cwI8EMe8lhZQ1zbq3wllZVZAq2HIQRGvaPy+ObgAACAASURBVHVlKBG0DwXMtTBW1SAvPh4ZB/Yibd9OnD60FxUZaTDrdZbTK/KuWhXRiUVlQzmzHzyVAbQhCnXYO0fQYaHbEXi4bEPcxYIODdRvQ6AD24r9yCkIQNBBXYzFi2bj8379sDXoGKr0EEoiDSY9tm3ZhA/eeQ8DfhgAT08v+Pr5Y9KUGRg9bjJCwqNRWVmN+OPHMNvdHeMnTMKs2R5YErgcsUknUaXWWdmszdAaa3Bg706M/NkF8yZ6Ift0rsUKEcdtwalmUTbpeLraIc+NdqoOazJOTdh+aJBtoN7m1Kmpdb/IxHraZISfn58QR+a6h+6JJ54Q1uvaqsRiPdRY5HaVyj7D/k+/Xr3KMI3F4fDefqxoLG2RFhXFWtfstihkWtK3/dDwTWOcDjzslHuMhr+8+LcK6HDxtOuyXzYLdNC0P6eDJKgYXIxGVFVV4ejRo5g0aRJ69eolFEtKfQ8cbAg+PPDAA/j3v/+NBQsWCJvIlNXqDBc3htTbsHnzZowZO0ZwZ/zud7+rp6+C+X/44YcxcOBALFm6BGfPnhWyYx2R/7qBrv542RF5UdJsmgJisdgA6EAdIFSM1NpLtAUrZ4PtlNchUtle+Lqp+U3hdHAgnPLYOSnARmwwwlRahrL4GBxe5I0tIwbjqJ8HsoMPoDonCyaDXthbb7LBy84g/c5Z2ksyV20COsh6tvqNgQ7nEbwWqFYXWTgd+vXDtqBjqNADenKNmQ3Yumkt3n/rDcycPk1orD+Tlo7UM+k4m5mL0moNDEYTVFUVyDh7BiEhYVgasAwjRo/FlNm+OJ6UAbXeIuymN+mwb+92uA4egq2rNqOqrEoM6cwuQzSm7Pq8/Dr5hf0cYwM4RMdyckKdOTqHttOZs9oZ8tZRoMMFy26tx/PasX39XjCSlgdgH2rt1RTo0Nq4G/teAR0ao0w3ft/ZQQdJegk+FBcX4/Dhw8JcJDfuNB8pUU6CELR6QRM07733ntALIRUu8ntu/tv6qrcBq60ViiKzsrLg6+sLcjb89re/hWRdYr7J4UC9DX/+85+FRYrMzMwLcja0Vxnsx8nWD2ltnetLM/6GQAe2K4IOEydOtCHUbP90Lb3sF4SNgQ7NjVMBHZpLKSVcR1DAfrwTazhyPKiqkZcQg9jVSxE+fjjCx7ogM3g/dJVlMBl0FnGLxrqVfYSNhemIgippCnHR3HNqbPCKw2K343AKp4NDfbcEdLCIV3igT1+LTgeCDjrBTFOLpNhofP/Vp3D9dRCORESgIL8AJaXlyMkvRGFphVA4mXYmFRnpacjJzkFKyinM8fLC1wOGY8ehWJRrTEKxnKnWhMORwVi6yBeJsbFCUR6nBK6KLFnvmEZqP8ect1m7VNqqQ9u5VIp9seUU+4EO4HRobn67YjtWQIfm1q4SrlUU6Eqgg9w0UePryZMnheb7Pn36CIsWFEuwBx9uuOEG/OMf/xDmaKjvoai4CEZhXqrtJlbmT7C7m0yoqakR1jW2bNki9DaQ7euqq66ycTdceeWVuPXWW4Uoxffff4/FixcL6x2dQZO/BE6UebBVXatdPhZtrtZsUyTJPkDwjeIVtPvMiYRhpGtppuwXhK0BHajHZOfOnUIpquynivWKltaGEr6tKSDHPJEO+43ZLPQ56EuKkBeyH9GeMxC9xBfnIkOgLi6s43ZoKGMyMuk3FEZ51yEU6GycDmptGdasXYwhvw5FcFQ8qo0QSuGIBtRUlmHnljWYMn4Upk4cD2/PeViyZClWr16H+IQTyM0twI7tO7DA3x/+8+fD28cXY8dPxBzvJYhPzYHaWAuTEJ8wIjc3A+cyTqG6ugxGs0VnhWye9Dvisp9juuJmzSk0s6+EjqoIpxSkfSLheqa9FUm2pGRdsR0roENLalgJe9EU6Eqgg30hCSDQykVSUhJ8fHyEvgeKV0jOB2685Mb+7V5vY+KkiWJjRksXvAgOcLJrzeW4keMz7ewSENm0aRM+//xzPPPMM0LhJfPCPJGz4cYbbxSbL4INGzZsQFpamrCnzTK1BzfGhcqsgA4XolDn+p31lZCYgI8++kgAb2xnBOFeeuklAWaxfbFdXsxlvyC8GNCBYAP7XEhICIYOHYo77rjDBg4SdJg1a1anaPMXQxvlm+5JAduswBupt8FkhrGmCoXJ8TgVtBdZx49AXVoMWnFhv+DfeRdf2bvzAigvOooCnQp0AKAz1CAlJRYhYaHIyS+Gjub3SBzqgKg1o7qqHMlJCdixdTPWrl6JTRs3IigoGNnZOUJh5IkTydi9axfWrVuLNWvWYt/+g0jLzIVKZxTxUCmm0ayHwaiBzqCCwaQVijLlKkg2046oD/s5pitu1pxCM1kB0ndKpN03EgV0cH7dKqCD82mqxNgABboK6NBA1m2vyFUQEREBLy8vvPbaazbgQZ6oUpzhzt/dic8++wzTp0/HmTNnhMZ/GQEHsIu5JOggfeaDLOT9+/fHiy++KDgbZB7oMx/caDEfa9asEeYy7UGGi83HxeS9qW8sS2jLMlrOgRdHoaZSUX5zBgVE2yPokJCADz/80MZJw/Z2zbXX4G9/+5vQE8L2xnZPLqGWtDP7BWFLQAdy7GRnZ2PPnj2YMmWKsEBz77331ssfrbbMnj27Xl90Bk2UOBQKOIUC9oMfN39mM8xGg1AmadJrYTLqhV12m8Iwx0Qdvpc/N/Ja/qz47UCBzgY6mM1GmEx6oVfB0j743wpaWenBDTnDWRyV1DnM0dKcseBsq8PL+LkQ9aB5Y7NBgA/UFUFxC4rn0VnmfGtC7ezZzzEK6FC/ztu5KrpMcmz7CqeDc6tLAR2cS08ltkYo0B1ABxaNg1BFZYXgMOCmnpstchVw88WTXzqKN5AbYtCgQdi1axdokpOX/ca/ETI1+FpM+la9DadOnUJAQAA+/fRTwdlw+RWX2050mYebbroJ//znPzFs2DChk4Kbv4tNt8HMOPGlZQHisKBxYvxKVM6jgGyDNME6fPhwmyZn2ebZB37zm9/gqaeewuDBg7Fx40bBidPcHNgvCFsCOlCPyQz3GULESYINzBP7Ah37Is0zkSOoM4gUNZceSrhLjALWvZ8otRUtIPhgMhmEs20Am8npYI2iHgOEfRKXGHU7rLidDXSQhLDMuvKp/gaUvxE8kCCXY1gxVjfUDsX6yKJNX34v4rBCDU19Z5eTNrsV6VuVFSugQ/06bzOid/GIFdDB+RWogA7Op6kSYwMU6C6gA4vGgYhWLuLi4rBkyRIBAPz1r38VrOZyw8NNGHUp/P3vf8fo0aOxY8cOcIOkUqtadAJMwIBppaamYvny5QLIYFo333yz5TT3couSSKb1/PPPiw3f3r17hVUKspx35ksuQhwXyJ05z5d63ig+Qd0lrq6uePnll4VOh6uvuVq0RbZ52e4p7jNkyBBhCYacORTpaeqyXxA2BTqw7xFIy87JxoGDB4QSy8cff1ykK/seRYwoWvSnP/1JiB4tXLhQ6DFpKn3lN4UCnYoCQrmf44mzYIQ/P5sOA6iZOn9QC6PBAL1GAxPnAetp9fkfK2/akgKdFXS4UJntx2OxQW8EZHCM52K/c4ynLZ7Py5uV86It0uq0cTqMFZ02n50kYwro4PyKUEAH59NUibEBCnQn0EEWj4BARUWF0PdAtvKff/5ZKJvkpkeetPKe8uXchPH3ZcuWCR0RMo6mfMZPKxNkDf/yyy9BsIFWKeTpMn3G/+ijj2Ly5MkC2KAJTGnCkwNmZ77EIsAqpWw/F3bmPF/qeWOb0qg1OHfuHPbv34+JEyYI87E9r+qJHlf0wOWXXY4rLr8CV/a4ErT68uF/P4Sfr5/oI42tWx0XgwJ0aKTt0krM7j27Bfj26iuv4O6778a111wrQAemedWVV+GRPz6Cnwb+hOXLliMpMUkoueys3D6dsT3V9cumxw/7cMr9xVPAsQ2Q6gQNqJSPSvgoJ2+mfXTaYm/osh88rZYI2N5zz6Yjat8+ZCUno1avb+hL5V0bU0ABHZoeQ9qY/PWiFz1U4XRQ9L/UaxVNPyigQ9P0uZhfFdDhYqimfNNiCnDqMZoBdY0RYVvOYa7LQQSMSYH/yBh4jNyHPRsSodVDmJgSmxOHhVSLE2yHDzggyc0MT3LJek6uBp6wkvOAp74EH+gTIKDSvaeffhqBgYFC5IInwI4X4+RJbllZGRITEzFt2jTcc+89uKrnVQJgkHH17NlTbLheeeUV+Pn5ifDkbOD3XeWqW6Z34XnQsZ1eCs9matuvhcloQllpGfbs2oOBAwbi9Vdfx+/u/B2u7nm1AB8IQPD+4T88jO+//wGbNmxCctIJlJWUwmw01TVTnsJSjl1urIRSPQq3W7iK1Cq1ADnI2TB12lT869//EqJFV/fsaeGwuPwKXHv1tXjwgQfx0YcfwdvLG6mnUqHVaGE2WTdql0K9yDIKzllr77LJUdf1NnlXVwF2dyIOC3s15bJ16mroy0phrK4SOgZqaZnHZNkAs74or+3ojLUmKK4lNDDDVEuQoc4Za83Q15qgNxthEMCDRS6e1SMuWdfW+rIBdfK9qRaFaek4umcPspISYdZprdwOsvbbyLeT3ZdZvZT97gI6NLcORauy39g3hjQ3N0InhjsvbwqngxOp2z2jagx0IHclDwQ7+rK16U7Uzy5EEx7Ukiubexjqn+Oexm++HzQajdi/tMUe5rILZUr5vftRgGuhpkCHvRsToTMBJrlocvQ7IUnYOew7CDf91OBPbgZq0H/wwQeFnLsECugTeCDHArkeyB1BfQ9kWWc8BDBoKYNiG7SU8cknn+Chhx4SYAPBCwIXlFG/8847hdjGnDlzQFEKduILsa93JvI1vNytAx46U16bygubaIMAmWPb7a7PLL65Vmzuabc9+FAwJo6fhKf/7xlc1YOAwBUCfLjqyp645aZb8NjfHsPnvftg4Xx/FOTliU0QtfbXmsxCOz819IvTXKnJvxYg4BAcFIzBQwbjHy//A7fdfptQXHlFjytEXyBnw2233IZnnnoGI1xHIOZYDCrKK2DQG6jV7BKtH2sPExtAC01tixO5IWhMpZsAesxCEZxWV4XMlBgc27QGGYf2QXU2FZrcLOhLi2HSqoVCOiqK01sdN8fcJCvuImhAgMHO6cxG0GkJ/Aj6GgWQw3qsP+ZwDjLbnAV8EKwSNFUAY001DBqV0AvBcFTmZzFr6ExfAk+0XGCAwWwQnBpifLQfQOU4aP+um993VdChO1bLeWOgAjp0x2p2apm4Lufaev78+YLLWHIwdxbQwamFbafIuF959tlnzwMdyKHtuKdyVpYU0MFZlOxC8XC9cSHQQV/btUCHxsgvwQdyIHz33Xd47LHHhIy5BB8IHlx33XVC5MLFxQWbN28Wsu9hYWFYuXIl+vXrJ7gl5ABHn4gg2dX/85//YMSIEUIxHjuv5G6QHBeN5akzvReLZAflUuetR62n3PagDstg3U7VA3s6qmyWPIttgMNGoA6MkOXqrr497clkk5dTAB8vP7z+6r/wwP0P4YorrkSPK66yuMt74JqrrsbTTz6JeXPmID42DsWFRYLLgYCDPaeDVq3B2TNp2LJpM/p+0Rc333IzhNLUyy/DZZdfJkQ5fvvbO/DCsy/gpx9/wvo163Ey+eQlDDTUtbl6muKtC+tmL7gF+GmE3qiBWluOcyePIWipD4I8ZyBqwTyE+c5F/Ka1KDqdAoO2BjqzHlqTDkaTHgbFtSkNKGbhCDDYP/PeBjrYBhyC2Za+1ZY+xUDoJABltOqQYDbEZcuPfHFp+Aro0HnqudljYOfJsvNzYt8PbZ3T+cl0lxgl6ODv76+ADk6qVOqoe+bZZxTQwUn0VKJphAIc3y4V0IEkoKZ8lUqF5ORkASTQ0gWVP0qOBQIQdHxHs5fvvPOOMPf35JNPWk5y7SxiMNx9990nrAaEhIQIVnOdTtdmqGAjVeiU1/UmfitLmP08KBKxvnAEHPgbwRW6tkJEW1JIZpOy1zxQF856wEiGfjoKEHDR2Z0dy2hztYDeaEZOXgH27juIKdNm4rXX38ADDzyMK3tcjSt79MSVV1yJa6++Go/84Q/4ondvzJs7F0eORKG0pFhsjmieKjsrC5s3bITL0GF48fkXcfttt+OKHj0E6EDuiZtuug1PP/13DBkyHJs3bUdKSip0ehOMRm6wrHUh6+QS8gn60Jmt4i+Obble32vglI+bVsvG1GgxeWfSQauuRHFGKlKD9+HIYj8ETZ2IqPm+yIqOgl5VLU7ndRSzaIeNbVtumrtC3HWmBznmWJRFivGHY1ADunHsx1X7cG1xT9EQi0iIGTohGlILA/Moxf3sM+PYMLvxswI6dJ7KPW/8a2AM7Dy5baOc2PdD3itXkxRQQIcmyXNRP5KbmzruHMUrFE6HiyKn8lFjFOD4dimBDpIOHLQIPpCLgdr8X3/9dcHlQM4FcjzQSQCCvgQl+J5hqITy448/Fooiz5w50yk227JsF+PXm/ipYd1oRG5eHoKDQ7F5y1Zs27YdO3fuRGJCAqprqgUHgZwbKfdfWlKC0JBQbNm6FQnxCdBqdfW5jesOfG3vLyafjX0j52xubsuLVThxPAMpMdk4FZuPk3EFNpcSV4BL1SXH5iPxWC4O7IzDXPcV+OqzYXj84Vdx1y2P4PqeNwkuhat69MAN11+PRx95BB9/9BFmznTH6tWrEBAYgFEjR+HFF17EnXfcKcJecUUPAVrceO3tuOeOP+HVFz/EOFcfbF8XhcToXKTEFODE8Tzhko/nIznG4lJi8nHJueO5SE3MQVlxldiGWrgerJtUstZLgECw2sv3FjExhpWn5WzfRgNQVFiNE/HZSI48g+Tt0Ti5OgjJa0ORtDsOp6LPISk2F/GxuUiMyUFSTK545jvFOZkGcblIjMtGSlIOiopVQhRRZwbsnd4M2LvKcgMyUktxKj4fqQmFSE0oxunEEpxOKnW6S00swanEIqQkFCApLhcZaRWoqqZICEd8h0G5scG1G75XQIfOU6n11h7Wsc7aOjtPJts6J3IBI/22Tq+Lx6+ADs6vQOqyo267q666qp5OBwV0cD6tL+kYOcZdqqADBy4qSaGiSWr8pz6Hf/zjH0LkQlq6kMADgQYigHfddRfefvttjB07FseOHUNeXp5NaWVXbUhy0qftbpPZCJWqBolJifD09MbAn4ZgypQZ8Pbxw9ix4+AybBg2bdqIysoqwUXAMtPc6N69e/Duu+/h2Wefx3DXETh9Jk1wFcg5tDHfWTTjwZ3JCBTl1mD/hlgsmroXy6aHYYV7FFbNjLa5lTOjsXLWUayY2bjj7ytnHu204Zh3kccLlEOWceXMY6K8y2cexXL3aAROj8LCiaHwGL4Lrp8vxgfPD8ZDd/wfbrjmFlx91XXoccWVIKBw3fXXC2Wpjz76CB76w0O448470OOqq8RvPa+8Dtf1vBm/vfEBPPXHt/Hpv4dj+Df+8Bq7FwEzIrHc/Yhwy2ZEYdn0KAif95eoWz49HGt9wpB8NBMGQy1MZlpAqG3UUc8mHcOYhHJQwKQHygq1OBlTAOraWTo7DIHTwrFuegQ2zziMTTMOY82MSKxwj8RS90gspJsRAf8ZEZZ7+U7xnUePmZHwdw/BIo9g7NucgtioAsQdKUTskXwcP5KL41E5wsUcyUXckXwkRhcifEc61vlEI3BmGJbPisLKOcex0iMOqzzineoY50qPWKyYcwzLZx9B4MxwbPSPwalj5dCqLJJnzhp/u1o8CujQeWpMrj/qiSRZuS07Ty7bOCeOC6Q2Tq6rR6+ADs6vQR7CKqCD8+mqxOhAgUsZdJCk4ABGsQiaG+Rp/i+//IKnnnqqnlWKm266CW++9SZmzpwJilLk5ed1Sb0Nssz2voV928K6rTcQhEmD+0x3vPra6xjyiwuOHY9HxrlMbN++Ax9/+CE++OB9BAeHwGiyKEDLzs6Cm5srbrjhRlx7/Y14/sWXsH7jFqi1BiHCINn8pXiD/fxqn4/W3FOMQqcB4iOzMX34Gsz5dQ98h4fDb3iEcPOHR2C+ayT8XA/D3+0I/N2iLxm3wLV+Wf2GR8HXhXSIhv/wI5jSfxM+++cwPPunN3D3bY/g+qtvwVU9rhF6H2z6Gi6jzobLhQ6I66++GXfe/BD+ct/f8Z/nvsRPH8/F9J+3w2PYAXi6BMN7eBh8SHfXqHrO1zUK0jX1mwxD3z6cL/NtF4f9fb1wjYQ5L752Cse8zR8ejgWjD2H/qiQUZWqgU8PmtGrA3tn/xvvqUjMykspw/FAGDq1PwcrZEfAfGwTfEeHwc4vCfKvjvd+II/AZcQTeI6Lg6eDmuUVBcc6mwWHMcw3HPLdgLBgfiYCpxxA47RiWTj2CRVMjsXBKOBZMCcOiKRFYOjUKy6YdxZLxh+HjFgSv4UHwdg0TdeY78ih8Rx5zqvMbeQx+I4+K+P3ZRlzD4T38AELWZqKy6JI7S643vSigQz1ydOiDAjo4cBxxgaRcTVJAAR2aJM9F/UjQQRGvuCjSKR+1hAKXKujQGI1oFpPgw+LFi/HCCy8IixT3338/3n33Xezbt0+YwCS7UXe6CDrQDJ/RrIdaU43IyDB8/MnHePqZ57BoyTLUqHTiZDYjPQPDhw3DHx/+A8ZPmIjikjLo9TpERYaj19tv4fd334O//PUJPPDgHzF02Ajk5JacpzeBAATBBwk8OI2OVtDhePg5jP8lANOHbMPcYYcwb1gQPIcFwZubYZcQeLuEwmd4OHxdI+EzvHHnOzwSdE2F4W9dLRzz6+0SAR86AQwcho9LMKYMXI1Bn03DOy99ib/84QXcfONd6HnN9bj8yitsiiKpePKm6+/EQ79/Eq889RH6vesG1699MWvIdniLDVQwPF24mQoRwIO3awS8mnD8XbrmhGsqDH9rTlwdEc7HNQK+BGJcDmLphCBsX3oUh7bE4eCWWBzYEoP9W47bHJ8PbLZzW2KwZ00MVs0Nhd+Y3fAZuQdew/bA2+UQ/NwiMH/EEcwfES2c34ho+I5s2PmMiIbi2oIGR+BLsMftMPzcCGoSbIuAj2uoABU8XQ5hnstBce8zPAR+w8PE5p8AgB8dvxtxpNF6a6w+m/uecROM8ud45xKMecP24NDqs6goNF1qZ8n1phoFdKhHjg59UEAHuwWR0xdGHVq1bZZ4Y6DDE088gaysrDZLtztHrIAO3bl2O1HZFNChrjLE5AeyM5tQWlqKXbt2gdpxAwICEBoaKkxoSoWJdV91/Tt70KG6pgI7dmzFy6+8jH/+8w3s3ntQiN8QKCguLsYs9xm45+670K/fV0g9nYaS0hIs8PfFC88/h//1/hyjxkzAE//3LN548z1ERScIGWdDbZ3SxjYDHYSSUCA/pwo7N0Rj/ozdWDj9IBbPCMLSGcEImBGMQPcQBLqHCjbjZTMjsXzW4UvOsdyBMyMQ6G5xy9wjsMw9DAHuB7Fg6g7MGbMSowZ5oO8ng/DM0y/h+t/ciMt6XI4rruyBu3//AN578wsM6T8Zk10XwWfiZiyYsttK31AEMp4ZocItnRGKJe7/z951gEdxa11Keu/lpSd/IBBKeoCUl8bLS4N00l966AkltimBUAOhhN5LgCT0DqYEQq82rhhsU9xtbNzL9vX5v6tdrWfHWnvsLd61Nf5kaWbvSFdH0ox05kraI92YPZg/Zi8WjNmLxWP2YfGY3Zg/ZivmjtmEub9sxOzR6zF79DqFW485v2xwuNksvBnzRm/DgjH/sLJaRPGMPYBFYw9i8a+HscjuKCyd7zH4Y9xR/DkuDH+R+9Xm/hx3FH/8SlO5DjFH4b9+PVLJ2WS8pzPVEWrzv4/Zy9rpsukHEHskC7pSWray4R6SdPCfspekgyQdalobXZEOtOA7Jx1IRjptGBD+tJAk4SfXdKhpbZTyNUJAkg6V4eIPKk4w+MuuDJU19cwVTjqQtUNxSSE2blyHZ//9LJ5/4SVs2rzNQTrk5eZi4vhxuOO2f+HjTz5DdMxxHAsPx8cfdkHrVg+iV68fMGHiFPz7+Y74v2YPYsLEGcgtKK1yioVnckCWE+W2fe6tQF6uDrFRqTgemcbcicg0nIwil46TURmIj8rESXLRWQ3SnYjKhLPLQFxUOginE5GpzB07HI/58xbjvfffR4enO+CFF19Ev34h2PX3YcREnEFsZAqOh6ci7lg6TkRkOLm4yAwcj0hHTKR0HAPC5GRkFuIjs3CS4UW4pSMuIq2So+tKR/fGRWbiRGQW4iKzcCLqHHMUVjr6ndLg6VBa0nkXg4TIc0iIykYCLQapdpHZiFe4hMhsJEZmg91D99mdN8uIFqu01bcMVs+SEnNRUmyChXZU8dTDNwDjkaSD/xSaJB0k6VDT2uiKdGjdujWzVGYLM1ssbLc62rFOOtcY0M5khE9+fj4IP1rPjq9lN33GdMiFJGtaO6V8lQhoIR0MZrBOisMmnm7irsrY5Y+BgABb06HcAlpIUq8vw/59e9nOHI889jgWLf4TOr0RFosV6WnpGDF8GO6+80706tUbsbHH8fuChXjskYfwn44v4aefhmL06LH46MNPcOcd9+D119/G0WMxIEsHqi7KaRV07snDRjpY2BZ11KGmxVHJJ6dMl8J8jQnqeEpnw4BboBA+DKNyIC+/gC2Wun37NuzesxuJp87Ytr4k3OwYE84sbMeaY064UrkbpWMYEB4cm5r6DF87noSpyPF6zOq7fYtOtk2ni61Ja6qDlNdYfopy5mXi8FVtpC4x5c9ETz6DAykuKpP0pDKsmByBuUFhmB10CBP6rUPE/mQYjYDBYoCl3OyamOH9nyp8tjBzOU1jsb8AuWwgAeUDXRsy6cDqhhJjex2pdF0pI8PMgoF2WCNL5BtvvJHtLkc7zN1+++2YMWMGVqxcgRUrpNOKwcqVK7Fo0SI0b96ckQ60lhft1CdJB9nYPI4APeOq2r0idEU0dHrby0UplwAAIABJREFUwMRBNPCXJ/ny8HsElMWkDHPF2Uvf3r0i1vNs0lmMHDkSTz7ZDoN/GoIzZ5KQl5ePvXv24tNPPsGTTzyB6dOmI+JYBL7v/T2efPxxTJ0yBWFh4Thy5CiW/bkUnf77Gtq2aovJs2Yjr7jEUXV4mt7weT5Y9VQMvNi5gieT5xWcYXVYwG6iyMtLLe8gKexkBT9nxIWC4OFET0P1OS6u8OO/ky+SUePG5dWydF4pAl54dl90j7xWGTZ3MKHyUZcZP+dlx3130nHnXlW1aFCnatJhlp10iPQ26dCgUNaWWfbe5ltlct/eH9EWQ2BKOfKtziuxxeTk4RIBkaUDfZ2/9NJL0bJlS9DaDtW5Nm3aVCtTXRyB8nubtlXk9aG2ePjhhxkW1157LdsukwgHSTq4rH7yB3cQoI5PVaTDZiIddJJ0cAfjOr3X/pGF61Ddq4we5rSNaFh4GIYMGYJPPv0UwcEhGDNmDD7//HM8+8wzGDpkKCMcaKePV199Fe+/9z6io6OZiZbZZEZ6aipGDxuOVi1a4suuXRGbEA+zpWEvXMbx92u/uhGMQPnqbpG/Ow9mlRBWhY0WOSZTVST8N2Vk9jD/SfrO5eMOHkqY3YnHV/cq9W1oYSHp0HcdvEo6NDSQNebXMfjmhAP56oG4xrgCSYwsTJlT51WSDtUWo5p0oAEykQ60tT05Pj2AD56lbyMRXOHA8VJjR5YkcnpFtdVRCtQEAUk61AStAJStIelAOeTEQ3x8PJYsWYLRo0dj6NChbAePDh06ICgoCOvWrWMLbU6aNAmrV69GYVGhY9EeXVkZDh84gPFjx2Lh4sVISU9npEMAotewVNYy2hEg4uo2tag7cp6Mi/RQH+7oVlfxsTy4Ulx5XZ1ZgTGEUlyGa05EqCEOBAzVOjekc0k6+E9pS9KBnhaKQ5IOCjDEQb7e2uTJk3HDDTc4plc4DappioB01WPQuLEDPyIfOIY0XYVIB4PBIC4ED1xt5IE4ZBQBhoAkHQKswGqqbi1IB0qCM8m0jQ7t5EErAm/ZsgXDhw/Hxx9/jK5duyI0NJTtaFFWVgblYpsUNuj0KMjPR1FJCfutpmp7TF7d+/dYxPUwIjVWonNBtkVidE19uCPnybg8rVtdxccwcQWq8roaPEk6sG+LSojcDashdjc+X9yv1rkhnUvSwX9KW5IO1NoVhyQdFGCIg7y/OX36dNA0CdrWvpK7+y7cJV31GIiwu+su3HHHHWydh4AjHdgDhYyl5Bwlceup46uSdKjjAvB28rUkHdRqUfslM6vk5GRGPixbtgwxMTEwmUwOCweSYU5xs+p1qvjFR0FR791HSdfXZESQVr7mePIzU1nbmegLcu3kCNvKadI19Z87cuq46FwUn1Y50b2ia1rjqywnqnOVpeiKJ9MVxUXX1H8iObWMp3XzTXxi3EX51XpNjYur+7TKVb5fpHNDuSZJB/8paVaD+VQD7rMnlP/o6A1N5PQK91E9duwYFi9ejHnz5knnYQzmzJ2D48ePgxbs9NbhGUsHWtW8rBw5aQXsLWdlD5GKvUK9pbyMt3YISNKhdrgFzF0eIh0ov9Q5oPZMDyEiG2ibHQfRoFpw0K/wEY+wKvfCG6pcDQrLFUTKKISdSHoPqDqSQjmVDK93jg5aFZ1Sf47PFW7K6xxDT+ZDGFeAlYW/54GXmxOT47hY84Awv260i5prUP/vkKSD/5Sx1vruPxp7RhPHO03dtqWlg2aAeV+U+qPSeRYDo8nosGDWXCA1FPQI6WA1W5FwKB3/rD6KcrPNTFs5MKmhTlLcywhI0sHLANd19B4kHeo6K7VOXzmyk2Ex2aIRXFfwKW8XdiK1DnS1yqk7anZSzNGR80tywjX09I7khxC/WuZXGJdWjLXK1UPdqCyE2AnyyspN3TB4YdbC15quVrlaqFDvb5Gkg/8UcUOtx453lfqZIkkH/6mcUhOvIuAR0sFisiLhcAYidyfASntE2V/GnHjwag5k5DVGQJIONYYssG6QpIPjGcSfRdKveC47sNBYq9VjK36uvF3YidQ6gNUqxxRXpqp9kCjUzyfxiapiZStAT+onjEsrxlrlaomdP+tGNUuonyCvrBbyhsB956pZozOt6WqVq1HiDURYkg7+U9ANtR5L0sF/6qDUpG4Q8AzpYLbAWGKBsdRSqYel/JpTN1mUqaoRkKSDGpF6di5Jh0rPITZu4IMD6dvw0VjtXcGlvF3YidQ6gNUqJxj8CdP1KznnqkgTTsp0OhQUFDitEO3ojBIW3NUyH0JMtGKsVa4e6kb1WYidIK+s7qsbhrJB1DCsNV2tcjVMvkGIS9LBf4q5odZjl892aengP5VTauJVBDxDOljoca446GUsD79FQJIOfls0nlFMkg7OIz35PHKrXqnHVvxcGamwE6l1AKtVTjD4E6brphx4B5DWLLH/KfNKYbquRc4mC1jLy1FaVobUtDSsXrMaP//8MzZu3GjbCUZHO8HQWim2NTBcpcnT5b9zX6Sbo3NLcXKnwoXdz39T+lrkVDIO3ZTxUFgl51aaWuNTpalVt5rIMcx5Q+A+u1i7f0Jc3MhH7bSo33dJ0sF/yldrffcfjT2jCcu36J3C3zmeSUbGIhHwWwQ8QjpQQ5JH4CAgSYfAKataaSpJB0k61KriiG/iYyq1r5QWdiK1DhK1ygneM8J03ZBjeaoqo86Zdq5nyt/sYdrmS6fTITklGatXr0bfvn3x1FNP4aabbsKzzz6LwYMHY926dTh75gx0pWUot1oryAxBfFouCTHRirFWuVpi7M+6EbZC/QR5ZeWgtZ5oKDSt6WqV05BkgxORpIP/FLmsx/ayUD5D/Kd4pCYSAa8h4BHSwWvayYi9goAkHbwCq/9EKkkH58EgvdjlUWsElP0iZVgZobATqXUAq1VOMPgTpuuGHMuTMpNV1Z1q5GhlbdpudtOmTYxc6NChA6699lpcdNFFaNq0KS644ALceOON6NC+PYJ+/BEb169HQnw8jHq9jXhwDIJrtv20EBOtGGuVqyXG/qwblb1QP0Fea1RPlA3FRVhrulrlXCTToC9L0sF/il/WY/awce6n+E/xSE0kAl5DQJIOXoPWfyOWpIP/lo1HNJOkg/PLvKqBo0cAr9+RqMfW/FyZa2EnUusAVqucYPAnTNcNOZYnnkHuKzOqDPPfyVcdRDjExMQwsoEsG2677TZGNDRu3BhNmjQB+Y0aNWKuSePGuPWWW/BUhw7o3asX1qxahdOnTjGrB1oTiW9BrUrC5akQE60Ya5WrJcb+rBsBKtRPkFcGvrL8BXXAZQEJftCarlY5QRIN/pIkHfynCsh6LEkH/6mNUhNfIiBJB1+i7SdpSdLBTwrCW2pI0kGSDh6sW+qxFT9XJiHsRGodwGqVEwz+hOm6IcfyxDPIfWVGlWHl77T+g9XK9g0/ffo0Vq1ahZ49e+KOO+5wEAxENJB1w6WXXorLL7+c+RdeeCGaNmnicDfdeCPat2uHoUOGIDEhkcVHUzRqsiCzEBOtGGuVqyXG/qwbFa1QP0Fea1RPlHXGRVhrulrlXCTToC9L0sF/il/WY0k6+E9tlJr4EgFJOvgSbT9JS5IOflIQ3lLDDdKBBjdmM3XPfHPYOh80evPwwQeE3Pdw9A0pOg6h2ldiIOxEah3AapUTDP6E6bohx/JUVUaVmVaGy8uRlpaGP//8E99++y3atWuHm2++mVk3cMsGIhxatWqF3r17Y9SoUejTpw8ef/xxXHzxxbjwAhv5cEHTprjowgvR7P778eWXX+Kvv/7CuXPnlCnZVCSSgxYfExxCTLRirFWulhj7s24EpVA/QV4Z7LWpJ4Lyqkm6NdLPRVoN9bIkHfyn5GU9lqSD/9RGqYkvEZCkgy/R9pO0JOngJwXhLTVqSDpwoiE7OxsbNmzAmDFjMH78eObGjRsHcr/++qtH3dSpU7Fz506UlpYy83GPQ+HBAYHHdQuwCNVQ8nNlNoSdSK0DWK1ygsGfMF035FieeAa5r8yoIJyTk8PaDS0S+eijj+KKK65gFg00fYKsG8iaoXnz5vjf//6H+QvmIykpCSUlJUhJScGyZcsYuUD33XzTTbjkkktA0y2IoLjs8svw2GOPISQkBJs3b0Zqaiq7j9orWT+4soAQYqIVY61ytcTYn3WjohXqJ8hrbeqJoOo4LmlNV6ucI2IZcCAgSQcHFHUekPVYkg51XgmlAnWCgCQd6gT2uk1Ukg51i7/XU68h6WCxWNjWfStWrAAtdkcr69NXWvJpobsbbrgB119/vUtHv3OnVY7muL/zzjs4ePCgyy+2buHEB4zcdyuyhn0zh1DtK1ERdiK1DmC1ygkGf8J03ZBjeaoio5QePwwGA7KysrBo0SK2IwUtEklWC3ytBiIcrrrqKjzyyCMYMWIETp48ieLiYlB7o4N8Ih/o+po1a5gFxL333susI3gctOgktakn2z2JHj17YMPGDeweTjiIrB2EmGjFWKucAgeOhzBdlZxQRmuaWuVUaZJ+wnTdkGN5rqKecEy0+l7RT2viDUROkg7+U9Ba67v/aOwFTTz4/PCCdjJKiYBXEJCkg1dg9e9IJeng3+XjtnY1IB1o0FJWVsasDl566SVceNGF7CvrBRdegKYXNHUyD6dBlNqR6bjSqX/n50oZbm5OX3+XLl0qSQe3C9y7Eaj7RvxcmaqwE6l1kKhVzo1BolA/QXwsTzyD3LdnlFsYEHEQFxfH6i5NkWjfvj3bkYITBeRfd911ePLJJ9G9e3c2RSLxVCIsVhvZoMSNyAMiH4xGI1t4ctCgQejwVAfccsstTm2Ndru45ppr8Nprr2HBggWIjY1FYWGhsO0I86oVY61yAuyE6arkhDJa09Qqp0qT8Bam64ZcVfVEWb5aw17RT2viDUROkg7+U9Ba67v/aOwFTfj7hfteSEJGKRHwNwQk6eBvJeIDfSTp4AOQ6zKJGpIORUVFmDt3Li659BJGINAAhxwjB5rYiAblgMpTYSIdyLzcKwd/kXPfK4k0jEg5hGpfmXthJ1LrIFGrnBuDRKF+gvhYnpwySo2JLoBNBaLB/sKFC/HVV1+hbdu2zJKB2gpvE2TxQ7tV0FQLmqqUmJjISD0iFkRWCRQvXSdHO16cPXsWGzdtxIABA5jVEV8XgrfJK6+8Eq1bt2bpkx5kJUEWF8pDmFetGGuVE2AnTFclJ5TRmqZWOVWaDGOiHeh+pXNDjuHtVE+UJVDzsBAXd/WruRr1+g5JOvhP8Wqt7/6jsRc08eDzwwvaySglAl5BQJIOXoHVvyOVpIN/l4/b2tWAdKC0ioqLMGvWLGbhwC0S6Evtyy+/jPfffx9dunRhPoXdcWRJQav28wGaL0kH3smh7QfN5VZY2bdPO9L85W+1DzDZINAmYRsQ2sMoZ/dZaE49LyTbeJTFZi2ngaX9F/t1EuPRV/iOm2w/8rhUsorLdRqs0Ns5L0qlOL5Ogzqtg0Stcm4MwoT6CeJjeaIMK+qCXqdDdHQ0Zs6cydZfILKBrA64FQ/51G6IcKB1G4hsIPKArBdcHRxTK9U1lRDdR+s+0JSL4OBgPPvss6CpG5QGJwMp/Ycffhg9evSwWVIkJjpiEeZVK8Za5Spprc2awJ91IwCF+gnyysDmhch9RwnUPKA1Xa1yNdeg/t8hJB36rUPE/mRQUzVYDLCUm12VtvPDj5e5yqd3gIXeAxQL/SYPIQKyHqte9rKuCOuJvFj/EJCkQ/0r02pzJEmHaiEKbAFVf6e691lxSTHmzJnjIB1oENWiRQs2mImJiWGm3PSF111HK/vffffdviUdaPBopYX3qDNohtlqhtFqtnUM6Qu2YnBJWx6WWy3MWSw2GZP9nAbTnLAg0oFhSv8YT1HO4jNbTaBOJzvsv1GYByt82/0V5xX9U7rmb4daT36u1FPYidQ6gNUqJ+jFC9N1Q47lidULKyxmM4hwOHTwILp27coWg6Q1Gmjgz4kGWvCRyIaOHTti5MiRbI0SvV6vhMY5zOpOBXllI7Ds9UkhSWQXrfdA5MXatWvRqVMnRthRepy0IxKC1nt46KGH2HoQhw8fBqVN9dRWXy2sPjqIIBUuQuy8XBZupell3Qh+oX4q3BzFxBsC9x0/1DygNV2tcjXXoP7foSYdZgcdwgRJOtRJwct6LOgY1ElJyEQlAr5FQJIOvsXbL1KTpINfFIP3lKgF6TB7zmzHV1QaUNFX1EOHDnlUR1o0smXLlo5Bk9csHdggoBzlFgusOh0shYWw6MtgNhtgthhhNulhKSmGtbQU5SYTiGxgJvR2CwciKGwkhf2rlX0Qx4kHGhCycYh9sEEeIySsZttOHHwQQr7gYJftZIWTKD+he1zcK4jO65e4WmpfmbCwE6l1kKhVTgCKMF035FieygGjwYDYmBjMmjkTH3TpgptuvsmxxgkN/Gkq0g033gCy3qFFIrdu3coWY3Vp3eAArxxk3UDOTDtQ2AksdXFTHeOLRRL5sGXLFrbFJlk9ULqXXnopIz6IgCB9br31Vrz99tvMYun48eMwmYyMCGN12W6BQ1gpDyF2Xi4Lt9L0sm6EjVA/FW4ODB1l6n571ZquVjmHjjLgQECSDg4o6jwg67EkHeq8EkoF6gQBSTrUCex1m6gkHeoWf6+nXhvSYbYz6UAr7h89etSjqvqEdLAPBIggMOtKkRF1DIeX/YnMqGMwlBbAYChGYUYKTmzfioR//oElv4CRE+xrMA0uuPUDs3qgbQltUybY7/ZrIJKCGpHdioINEC1kJWG3nFD7XCd7/KzDRXHQPH8iRuwkB8XDk2fjHOcxokfLoiaRqcdW/FwZh7ATqXWQqFVOMPgTpuuGHOXJYrYgJjoaffv0QfNmzRxTgoiMo4VWaerRc889h2HDhuHvv/8GbTVLW78yMkoJCg9zwJjPNGbTdBj5YDPEFmjMb7b5Op0OycnJjNz4+eefWfo0xYJPt7jwwgvZVp3NmjVDv/79EB0TDYNB71x/VakIsfNyWbiVppd1I6SF+qlwc5SMU7k6rtYqoDVdrXK1UqKe3yRJB/8pYFmPJengP7VRauJLBCTp4Eu0/SQtSTr4SUF4Sw0PkQ5hYWEe1ZBIB5q2wc3DvWLpYB8IEElgKirAifWr8UfPbxG5eC4KU+JRkp+O03u3Yd3Qgdg1bQqMGemwWEw2K4jSYhgzM2BIToIhNQWm3POw0sDNYoLFZICxtAS6vDxYi4pRXlAEQ0YmdFlZsJbpbASEpRzlOj2MOdkoS02BLjUVpqwsmLLPwVJcDKvZBKvZCFNJIQznMqBPOgt98lkYcs7BYtSz3Q1KyvRIz85FUYmOr1/o0TKoTWTqsRU/V8Yl7ERqHSRqlRMM/oTpuiFHecrMyMTYX37B3XfdhaZNmjgsCmj7yjZt2qB///4IDQ1l22XSIo7cIoHjwXSyDV8di1A62CS7NY3ZaERhQQHO556HTq93TVjwSInjslrZOhGZmZnM8iEoKIjpQ4QDX4ulSdMmuPueuzFs+DCkpqVWuXCiEDsvl4VbaXpZN4JaqJ+gPrFi4Q2B+4qyqmmQp0sWU3x6DF1TH1yOkaCEhwAT9T3y3IaAJB38pybIeixJB/+pjVITXyIgSQdfou0naUnSwU8KwltqeIB0ePTRR3Hs2DGPaUhfgX1COtg1pikTpvw8nF63Bmt7dcXRaROQcXQP8s/G4fiyBdgU8gMOTp0IXWoSzIYyFGUk49TeHYhcswxRK/5E1PI/kRC6CbrkJJjLSmAsKUBa9FEcXbUUuYePojAiCifXb0DcmrUoPXUaMJpgKSpGTnQ0wtesxOHlfyB64xrErFyOmCWLkR15DObSYujPn0Nm+CHEbl6L8OWLcfSv3xGzeT0KU5Jg1euRnp6FHbv349TZFFgt1FLr/uBjKrWv1EzYiRQMiNySc2MQJkxXEB/liaYn/O+zz3DxRRc71m7417/+hVdeeQUTJk7A6dOn2eDfZpli23lCiQURDE7WK7QAKa0pYjajpLgIJ+JisWXzOsyYMQkLFi1BYnI6TGTiouHgW2zSThe02OTEiRPx3PPP4ZZbb3EQD7Td7XvvvYvY2BjnQbQqv0JMtJaZKi5SXRifSk4oozVNrXKqNLXqVhM5VlRVNQgmoP0fx4UIB4vd0TX1weUk6aBGpvpzSTpUj5GvJGQ9lqSDr+qaTMe/EJCkg3+Vh0+0kaSDT2Cuu0QaOOnAOjRWC8x5eUjZuBE7hgxCxPyZOLVtA9L2/4NDk8ch/NcRODZjEspSzqA09xxO7QzFwVkTEbXuT5zctQVRa5fjwNRJSAndDFNeLvR553B8yyqs+ak/Ti9fgcKj4UjYth1H589HwbFjbN2IvLjjOLJwHnbOnobYf7Yg8fBuHJ07Azt+7Ifk0I3Qn8tA5uF9CP99Do6t/gOxOzcifN0y7Jw1FXGbN8GSl4eigkIknDqN7Nxcxxd0lh/BAMRXFUw9tuLnyvSFnUitg0StcgIMhOm6I1deznaq+OjDD9laCTSlgnZc+fDDD7Fz506kpKSwLSrVUynovKCwAOFh4di4YSPWrVuLTRs34uCBA8jMzGBrLFgtZpzLzMCGtasw4ucgvPfea/iuVx8cik6EofL4UgmvI0zpEPFAzmw2Iz09HZs2bcI777zjmGpB1g5vvf0WoqOjpKWDHTlP1xMWLW8I3HeUUs0DvI3TwqIVi4vSVedDaz6c75JnhIAkHfynHsh6LEkH/6mNUhNfIiBJB1+i7SdpSdLBTwrCW2o0cNKBYCVLB0tuHtI2heLgbxNxev0qxC5fghPL/sDecWNwes4sxMyYBl3yGeQlJ+LQvEnYNuR7RP85C/GhqxC9dCH2jPoZ0fPnoiwtFbrcTMSGLseGn/ohZcMGmDOzUJyWirSD+1F69jR05zORvHML9kwcg1PbNkKXm4XSvAycXbcCh4P6IX39GhQlxCH6j/kIHdwPR+dPQdzG5YhYsQjbfhuLvfPmojQlxbbOg70/4mRqLRiYe6v6qOPlYyq1r5QTdiIFOrslV2kIpu3rOqsP9B2e9FE6QXw0mKftMT/48APHLhW0XeXgwYNRXFwMi8XCnDLvFKayOn4iFsOHj0CPrr0wavQojBg5HD/9NBgLF8xHUtJZ0I4oJUWFSDgZi21bViEoqBu6/dAfByITNJMOLC8K4oFIiNzcXPTr189h6UBTLYh0iIqKlGs62AtKWO8E5a9VjkVbVYOwp6vFU0ZD72ZyfIcc+k151Eg/5Y0yLEkHP6oDsh5L0sGPqqNUxYcISNLBh2D7S1KSdPCXkvCSHg2cdGCdePoanJuPlC1bcWjuHGTv24Ow6VNweNJEnPjrD6TQtIcZM1B29hQyThzD378OwM4hPZGwegnObluPM1vW49T6Ncjcvxe6nHMoy81AbOgybBwejIy9e9hUCLO+DPqCPBhLClGUlYQTKxfh0PhRyDt2CEZdEXRFOUjeug7hA4OQuXYVzh87gkOTxmDH4D44sXwhEreswamt6xG/ZSOSDuyH7nwOrLS4JFuPknY4UC1kKRgkeakGOUWrHBQpw0ohYScyAEkHGsTTIoxk2cC3xqQFGwcNGuRYLJJk6I8fFKbpE0eOHkKP7j0R3G8g9u7dhz17d+PnYUPw9VdfYtvWLTAZDWx9ELNJh4y0eEz6bQR6/zgA+yPia0Q6ULrc4oH8vLw8STpUQyYJ66eiDJVl6URMCeowl2W3u2oQDiFtAZt+FW3eQovLsvUdlDVNO8mmLdWGJSUtHfynvLW2R//R2AuaKJ8dFa8TLyQko5QI+A8CknTwn7LwmSa2LylAaYkZe9YkYWK/v7FgUBxmhoRjQshWbF4RDdpqnl7SlTpW8uHos3KqdUI1JR2KizHbvntF4yaN2Tx2WtMhPDy81iqob6TBka/WdGDvciId8gqQvGUbDi78HSWxJxD5++/YO3Uyzu3bhZRN6xA5YypKzyYg88Qx7JrwEw6MCUJu2F6UpJyC7lwadOfSYcrPhUVXxiwXjoeuwOYRIcg8uB/lFjPbktBsNcNk1qMkJxXxK5fg4OifkX1gF/TFeSjLy8TZ9StwJKQ/MtavRl50BI7OnIS9Y4Yi59AulKadhSE7E+bcXJgLC9iilWShQbtgWMlJ0qFaywStnVfNcuXliImJwYcffci2yKTpFZx0KCsrcxrsUx3n8VqsZhw6egC9evTGryMnICvzHDKzMjB58m/432efYtOmDTCbjIx0MNlJh8kTh+OHWpIOyvaVn5/PFrd0LCYpLR2U8LAwLycnQsGPSAfaCYe28KVnAa1FQ1v8EpFlI7gqsqM1HxV3yBBHQJIOHIm692U9FvSt675YpAYSAa8jIEkHr0PsfwnQoMxSDpQUuSYddJJ08L+C06IRG3HbuCIuXh1PRGbjs2bNYubZNMgiR1tmeop0YB1nH5EO9uyzXQOshUVI+nsn9i35E+bsXOQnJCIt6hiKUk7h7I5QHJ09A7qkMyg5l4YT65bi79E/IXLp78iKOoKS9DMoTEpAQdIpGGlNh9wsxGxdiTUjQ5AWdpiZypvLLTBbLTBZDNAVn0fGgX9wZNKvOPbXQmTFHUPa0X04OnUidv7YC2fWLkPxmQScDF2PDb8Mw5FlS3A+LhplKWdRdPYM8s+egbGwkLYoYDth2EgHG/HAOmi24S0vUp/6HFO1r1RC2IkUfCV2S86NQaIwXUF8lKfY2Fh89NFHzNKBdlpRkw5Un/lB8VrLLTBZjTh4ZD96du+NnweOQlRENHbv3oUBA0MwbNjPiI8/yeqMxWyCwViKjNSTmPbbSPRhpMNJZulgw5dpai/tinR4eiLfJekQHcWIKx6j+l4hJlrLTICdMD6VnFBGa5pa5VRpUr6F6bohx7CsqkGowa7u3GpFalQ0DixfjsgtochLT3OQDspbteZDeY8M2xCQpIP/1ARZjyXp4D+1UWriSwQk6eBLtP0kLeorEeni70B9AAAgAElEQVRQXCAmHUKXR4N2AZSWDn5SYDVRw94RVg5XlGFlVHzwRKTDzJkzHVsD0kCLSAdPbZnJSYcDBw54fctMe/YZ61JeUoassGOI3rINKNOj3GyG2aSHriQPyeEHEbN2NUyZmcySoTDpNI6vX4UDtMjjij8Qs3ktju8IRXLEUZRmZ8JQcB4nD2zF1gWTkRF/HJZyMyMciHQwW00wGUpRlpGKs3+HYv/8GTi6/HfErvkLRyaPxeaQbjgVupItRlmQfBYRm9Zjz5LfEb1uFeLWr0Hc5o1IOnwI+uwcW8PkmSCLFcUAV1l2vgwr1GHDNH6u1EHYidQ6SNQq58YgUaifID7KE+1e8fHHHztIh6uvvhoDBw0EWTrQoSwT+nJusZpgtOgZ6fDtV13x6ftfYMSwkejRswd69e6F7du3s3vZzhNmE4xEOqSdwLTfhqPPjyHYF3HCmXQgPLhzoaMSexHp8Pbbb7O1KZS6Ku9h+aChOE9H6avS1IqdFjmhDKWtJU2tcqq4XObVDTmGJW8I3FcDXJNzqxU5Z5NwfN8+nAoPR2FuDiOM1FEI8RPkQ32fPJcLSfpTHZD1WJIO/lQfpS6+Q0CSDr7D2m9Soj4SkQ5FLkgHml6hk6SD35RXjRSxd4DJ44cyzK+Rz8kAb5IOlAYNtsj3NulgzzrrgrM8mywwnM9DYXomYDIz6weLxQSjoRRFORnISzoDK5nMm82w6HWMXMhJOIHUiHAkHwtDxonjKMjKgKmsFGajDrmZZ5ByMgKlhXkgc3pGODBrBzMsZiPMRYUoOhWP1EN7cPrATqQe+gfRv0/D5mF9kXpoB0z6EjaFoiwnG+cSTiI9Ogqpx8KRGRuLgrQ0mEvLbKvIKTJS1aBRWZbeDCvUcWDL8FUkKuxEah0kapUTDK6E6bohR1lyRTqUlpWyHCvLhAbtZqsRBosOBw7vQ9dvuqPXd30xd9Y89OnzA7p264qNmzaynS2oHZDJvNmsR0ZqHKZM/Anf9/8R+yNOQsfW8RB8kRfkRQE7C0rSQUHSCOoSgeSNeuLUGNQNQl1I1Z3TOiG0ngt39MwUlL3WfFSXXEP8XVo6+E+py3osSQf/qY1SE18iIEkHX6LtJ2lR/0iSDn5SGJ5Wwz5CVPaBlWFlcjR4IldfSAfKmz37Dp8FrLZFLnhHx2o1g8gHq8XEiAhauZHWUqAtDYmAYASFyRam6+x3GlyaDcxSggaObPDIrBzI0sHMSImSjBSk7t+Fk6GrEbd5JaLW/oE9c35D2LJFKEo7C4vJYB9UmGE1G9m5lRYXNBlZura0VJlQFlgdhdWY8nOlOhzbSl/OVQMnt+RUcdnKW/C13g05irM2pIPRTjr06v49xgyfgMSE09izdw+CQ4LRt29f7Nq1iy1ESfWG1gDJZJYOQ/HDj0HYF3ESZZZymCw2cs4JQ0FelLhTWJIOgU86OLUppxPn0ha2Hw11xDmWhnkmSQf/KXdZj1XveWrz8pAINAAEJOnQAApZnUV6vknSQY1KPTm3d1iV7zBlWJnL+k468O3nHPln2LA5Cw4iwYGH4zcXnQHH77b7aZFHWmGeHE2vIEuIsnPpyAo7iNN/b8SpzauRELoWp3b/g6LkFJQbjTZioxwwl5ez+4j8YESHncRg21awdBQ6OBSsu4BaJX6u1EjYiRR8dXZLTjC4EsbnhhzlqaakA02vIGuHw0cOgkiHX4aPQ0ZaJgoLCrF502b07NkTAwYMwMFDB3HqVAJWrvwTI4b0xTudXsAzz7+EnsHDMHnWPOzatQfFJSXOUx4EeVHiTmFJOgQ+6cCKmTcs7qsLmj0WtJFsglsb/CVJOvhPFdD63PYfjb2gCW/n3PdCEjJKiYC/ISBJB38rER/oQ884STr4AOi6SIIK1z5m5cnbL/FTh18fSQeed/4eJ+LBkX9+0e5Tx8dxOK45rlQE+H38in2tBY4fIyAsJtAWmsaifBjzz8NwPhum3FxYiksBs21xSEqOorKAZlHYBg82oqGCCGEC6vR4unXkc3XUvlIdYSeyoZAO5bSTiRnJqUlYu3oddu/Yi9Ji2n3AivM55/H3339j6dKliIqKxKlT8Vi98i9MHDscI4cOxJBhIzBmwnRMnz0fu3btRlFxsW0qgP2/EmNXYUk61APSgQpX2cBcFLawnbEbXdwgLzsQkKSDA4o6D8h6rGrv1PblIRFoAAhI0qEBFLI6i/R8k6SDGpX6c85e6IqOKH+fVbpeD6dX+KQUlYMDR7jiC6TQYsEhpxxb2ErEabChkPNJXjQkolRJGVbeKuxE1nPSgeeZdq8gZzQaUFxUDF2Z3lHIFosFZaVlKCoqgl6vh8GgR35+Ls5lpeFcVgaysnNw7nwecs7noaCwECaTSQmrprAkHeoJ6aChtHmdq+kUHA1R13sRSTr4TxHLeixJB/+pjVITXyIgSQdfou0nadHAQZIOflIYHlaDXub05Z0chemw/acZBfbOOb8uSYfaoa8ceWsJK1Jh5UNlZHe8jITEg+K+ugy6yqJSJ8qHo37xeqaog1zWLTlHTeaxUd0WpOuGHMWsZXoFS1eZNk9TCRZFZreKsQVtd7H1QCxGthipcgoQX3C1InfaQpJ0kKSDtprSsKUk6eA/5a/1ue0/GntBE+W7gsLykAg0AAQk6dAAClmdRXq+SdJBjUr9OOcvczXpwK+zgSEfINmzXJ8WkvRJKao7C9Wd25WiMrDQgpQKZ6OG7PMuRPH4JENVJyJSi64pD6f6FeCkQ1xcnHDLTOXuFSy/NsrDRrbwNsXBUoJjD9M9RDjQVAxaB8JSbmF3VXGLIJbKlyTpIEmHyrVCXlEjIEkHNSJ1dy58X/BnaN2p5duU+YOf+75NXaYmEagTBCTpUCew122i9IyTpEPdloG3Une8zO0DIkrH9k5TfBFWvdyJdJg1axaaNGmCRo0aMffII48gLCzMI2rytQ+8vWWmR5TVEgnvJGj17XFS2YhJB0ch8cKy+Vp08YGMq2wqk3bUOyXhEKCWDkQ6fPLJJ2jatClrC1dffTUGDhoITaSDEhRVmGNExANbRJR81k7dK+68vDz079+ftV9qw+TefvttREdHs91pVGo4Trk+lSxUVM8HoZxKhiLVIieUCdB6Yn+wVrRZB7LeCwjxE5SF9zQI3Jgl6eA/ZSfrseCd7z/FIzWRCHgNAUk6eA1a/42YBhFEOpQUmbFnTRIm9vsbCwbFYWZIOCaEbMWWldEwmGiVfcGDka7Jw28RYC9z6v7bd0hQ9kf5b0rlSa6wsBCzZ8/2Oulw8OBBtGzZEo0bN2auRYsWWL58uVKdasOkr18corahQTFeBhW+/SZ1fBri8pWIWjV+rkyf5UdNOATgYJLq1/G44/jkU9ekQ6V8KxqZCBsuL8TI/ojlMrXxiXSgbTmpXUnSgdM4zkiKsafScj60yrG7eGFz3zkqr5zVSD+vaBC4kUrSwX/KrqHWY5ZvxQchViL8+eEvfRv/qSZSk3qIgCQd6mGhVpclesYR6VBa4pp0MLKt/STpUB2W/vi77YVOptxW5mgxOx5WzhunsMFgYFvuzZgxgw1avGHpwDFSkw7NmjfDkiVLmG402OPObDajrKwMOp2OOaPRCMoDndNCexSud4ej4+GBUaiHwVGrxs+VyQg7kQFIOlCboDUdPv30U5eWDsp8q8NO2NCJ4uAdTrqkDCtEahykNpObm4s+ffpI0oGTXgoSiAMqrJ9uyLF4eWFznyfmRV9rPryoQsBGLUkH/ym6hlqPHVZl6mcPEQ6SdPCfCio18RoCknTwGrT+GzH1kWgXvzJJOvhvIbmhGQ1EcnJysGbNGowdOxbDhw9nbsSIEWBu5AiMHDWShYcNG4affvoJnTt3dkytIOLBk9MrKCuk0/79+0HWDfRFltK4/vrr8e6772L06NFMF64n6TR06FAMGTKE6UZhujZmzBhs27YNNB2k3h184MJ9P8ogV0ntK1UUdiIbOumgBMhLYWpX58+fl6QDJxwEdY6gF9ZPdce/BnKsOKtqEN4qb2bFVv0aFl5KPqCjlaSD/xSf1vboPxp7RhNJOngGRxlL4CIgSYfALbtaa059JUk61Bo+v7+RtubbunUr2rVrh5tuugnXXXedw9FA/7rrr2OOwtxdeeWVXiUdCDRa0+GBBx5wkA40Z57SveGGG5h+1157LciRvnSN68b92267jZEUe/fu9fsyqLGCdTCA0aqjWjV+rrxf2IkUDADdknNjkChMVxCfRy0dlAB5KSxJB8VaNZx4EJSr1vLXKseKkzcE7nupjJXR1kg/5Y0yDEk6+E8laKj1WJIO/lMHpSZ1g4AkHeoG9zpNlfpIknSo0yLwauJkCTB37lxcdtllbIDP11DgUyfI59YG7Fpj2+KRyt89bumAcoSHh6NDhw648MILnQgOR7qNG7E56Vw38omYuOCCC9CkaRPmmjdvjkWLFnkVvzqJnA9cuF8nSogT5SqpfaW0sBMZ4KQDX1hVvZCkMt/qMMdIfV19zvBSz+1VC2k4l6SDJB2oLsmjegQk6VA9Rr6SEL4vGkA9lqSDr2qYTMdfEZCkg7+WjBf1oi6KJB28CHAdR03rIaxatQr33XcfIxdo8KQkHihMg3jlYN8RbmQb+Ldv3x4REREezUl2djamTJmCtm3bopGA6KBrTDe7vqQ3kQ5c/4svvhjPPPMMtm/f7lG9ZGRVI8AH0mpfeZewExmApAMN4mlNB9q9wl3SwdVgsBJWbnS2JekgSQdX9UzZPmUY0tLBjypBpWeg4F3hR+p6TBVJOngMShlRgCIgSYcALTh31Jakgzvo+fe9NAihxRZPnz6NQYMG4a677nIQDjSgJ3KBLCDatG3Dpiq8//77+PDDD/Hxxx+zgRYNtj766CMMGDAASUlJHs0sLQCZkZGBhQsX4v0u7zPX5YMu+OCDD9ClSxe89957ePXVV3H//fc7yAZOOFxyySV4/PHHMX3GdLZehUcVk5FViYCabODnypuEnUhBR9ItOcHgXBifO3J20oHagxPpMHAgSktLlVkWhpXYMN3c0EWYgOoiJx1++OEHB2FHesstM52B8nQ9YbHzwua+c5JeOdOaD68kHuCRSksH/ynAhlqPJengP3VQalI3CEjSoW5wr9NUqY8kLR3qtAi8ljgNQmheOhEPJ06cwMCBA3HHHXcwsoFbO1xxxRXo2LEjVq5ciejoaMTGxiIuLo594aWvvDExMTh58iTKdGVsAUhPKct1oy06KY3omGjmU/p0fvjwYUyePBmtW7fGhRddiMZNbFtr0nQMso6YMXMGsrKyPKWOjEcjAnxMpfaVtws7kfWEdLjqqqsYCVdSUqLMsjDMMaIfGSaSdHDCqb7UE5YpXtjcd8qpd06E+AnqmHdSD+xYJengP+XXUOuxJB38pw5KTeoGAUk61A3udZoq9ZEk6VCnReCTxIl4IPKAdqcgiweaqkCWDrRGwj333IOQkBAcjzsOviUlWSI4nNXi2MLSG8oSAaF0tHUnkQ60VSHNoSddiSShKRWPPfYYZs6cifT0dI+SIN7IV32Mk4+p1L4yr8JOZACSDpQnIt6Ulg7XXHMN+vbti5TUFLaVK5F6rg6OEf3OMBEMCIVYCeRcpaG8Tm33zJkz6N69u5N1kLR0UKIkd69wRqNhnknSwX/K3ZPPQP/JVfWaSNKheoykRP1GQJIO9bt8hbmTpIMQlnp50Ww2IzExkREP//rXvxxTLS666CIH8ZCZlQmSo8GUw9GA0cv7RnPLB9pt49ChQ2yaB+1awaeBkE8LR9J0DNoWUDnY87Zu9bIy1DJTfCCt9pXRCTuRAUo6kNWPknSgqT1EfAWHBGP37t0ggsxV/eMYETbeJh2IVNyzZw9oagVZAvH1T/j0CrIequpwq8wEJIkwPpWcUCZA6wnLGi9w8n1wCPFTYczVYLKOWig+47INweekw8rJkZgbFIbZQYcwod86ROxPhtEIGCwGWMrNLtBkDZoadZXOWm6BpdzCUHcdUUNAu+o81qQeVx1TYP0qSYfAKi+precRkKSD5zH1+xjpvSktHfy+mNxSkAZF3BGhkJCQwNZ4IAsHsnSgAT0NUmixySFDhrCvu9zKgQb3/F63lKjiZoqf0qOdNvbt24fPPvsMNO2DEw5k4fDwww+z6RZEOMij7hBw1c9WaiTsRAboYPLUqVPMcoDqI1kGUZ2kKT633HILIyM2bNiAlJQU6HQ6l+SDEht1mLACEXp2x87VQlWcU7rJyclYv349Ww+FtpSlNs11pW1ov/32W0Y2VhGNbTjKyEVq7wqnGi0Jy1YlQ+lokRPKBGg9YRAoG0dVYHvoNyF+WstCWcY8LLjXQ6r6XTREOmQm6bFqSjTmB0dgbtBR/NZvIyL3pzDSwWg12QkDF6ory9pFWJIOLrBTXdZaj1W3Bfyp4zmrbne8PgV8Dj2TAeofevPg/VvpV42zrZ1WjCU8USaSdPAEigEWB1UzSToEWKHVUF31w5RbPPw87Gdm4cAXaCTigaZe9O/fn60BQV9Pvf3Ap6xQGjRHnr4c0+KVN910Exs00cCJCAdaNHL27NnMwsEX+tQQ3gYlzvtDal8JgrATGaCDyaKiIqxbtw7//e9/QQN4vqAk+ddddx3b9jU4OBihoaFsyo8SB83hqsBURMLbMV0iCwuaSrF27VrWXtu1b4frb7jeNhWpSWOmJxElpDfpT/mo6nCrzNSdZkk6VAW1x34TlpnWsuBEg9IX3OsxZf0sIhvpYMDqyTFYEByJecFhmNR/kxPpYGXPLBeKq9us4FySDi6wU13WWo9VtwX8KSMdRG2O6pI8HAjQe4/6rPEJ8Th69CibekvTb8ki1h1HcTB35DCOHDki3ZEjDA+XmB4+hLCwMLaoPI0NPHFI0sETKAZYHPR8k6RDgBVaLdVVDlrooUFTLciygSwe+GCKvuLee++96P9jf7agZC2TqtFttBPAzp072RoO9KWWyA8iHGjax6OPPsoIh3PnztUoTinsHQQEfetK3SZhJzJASQdqMwUFBWzg/s033+Chhx8CTbEgiwdu9XDbbbfh3//+N1uo9e+//0ZaWlrNwFeDKribLIGo40WOyIZly5ahT58+bNvYW269hVlfkIUDtZ1LLr0ELVq0wBdffMEWiM3Pz2fTkSgvrg63yqxSDZCWDq5w9uR1YZlpLQsl2cDDgns9qa8/xSVJB/8pDa312H809owmknTQjiOR7KNHj8brr7+O//znP2zxc1oAndxLL73EHD/nPr/uymdy/+nI4qM4pbPhSni9+OKLlRxdJ4xoq3uysPTEIUkHT6AYYHFI0iHACsxD6nL2OCExAT///DObWqEcSN17372gL7i0+CQNdJRHVYMXpVxVYYqDHK3hsH//fraGA3055lYXZOHwxBNPYO7cuSDCwRNpVqWP/E0bAurxMT9X3i3sRAYw6UB1jywFqC0sWLAAzz77LC6+5GIH8UB1lgb8tE7K888/j5EjRzJLIeooKdceUWLkFOYgct/pR9sJxUMLRcbHx2Pw4MGMjKMpHkTM8Z1dSAfaXYMIkGnTpiEqKgr5BdUTDpSCW2UmGKwK41PJCWUCtJ6wrPHyI98HhxA/Fcakhis5h3m3inRg8ra72H8fZMXnSUjSweeQu0zQVf10eUM9+UGSDtoLkt59bNrtlVeg6QVN2fuW3necaCeyncL00Ux9nX4TOS4nfRuOHAfqz7hyNEbo1q0bs0zWXnquJSXp4BqbevsL9Y+kpUO9Ld5qM2Yym3D69GmMGjWKWTjQw4asDOjhTWs80K4WNK9dSTx4igAg89Xc3Fy2VgMRDvRAo/TJp0Uj58+fz373VHrVgiEFqkVAOa5ShpU3CjuRATiYpHpHdZQG/NxlZ2ezKQ29e/dmVg+8M8PrLZFl999/Pz766CNGUJDVQ7X1VwkkhVUH3U/xLF26FGRtQfFTupwkJJ86DGQVFBQUxKwycnJyWJtlJuJVWDjwpNwqsxoMdHl65LuVptb6VEvdXOoniI/lqZoyVObbU2EhfgL9HHKw1Wd2zvFXkAtcjqYFkGODIqvFtt6Ip5T2k3gk6eAnBcHrISe+uC+ox/6jsWc0kaSDdhyJdKDdzC6/4nLWR+TvXfL5AJnC9B7kv/Hr0ndNIoiwUfYrKMxlKExjAyIdaP21avs1GopXkg4aQKpvItRXkqRDfSvVmuWHCAW+uOTtt9/OCAd6uNADnIgH2maTtqikw9YxFYyMapYke2DRg2vr1q14+eWX2cOMHm6XXXYZW8OBvtRmZWXVMFYp7m0E1GMrfq5Mlw9eXH1J5bJuyQk6pcL43JFTLMBKL1hyNM2BpgMlnkrEX3/9ha+/+RqPPPoI+AKO9GImwo7WU6DFT4mcWLVqFdtik5sk8ri4z1QUNKmysjI2f3LN2jXo0aMH2zWDtuxk1g326R20zsTDjzzMFotcvnw5zp49y75CcLLBkQYH3YUvxM7LA3u30vSybgSTUD9BfWKQ8obAfRc4e/KyVv0ccnaCwZY3gDZ7ZdWO6VwOq9UCCy2gaDXBajLCUlwMi66MXfek3v4QlyQd/KEUbDo46icnHARt23+09ZwmknTQjiUnHei9ykiFC5qyaY703r3xxhtBO52RozBzN9l9fi79CmyqwYJheWMFltTfoL65knQgy0/qW7h7SNLBXQQD8H6qNpJ0CMCC86DK9PAgU3Ay3eYWD0Q6kKMHfLt27dh2fPTg54MZd5OngdvmzZvZHLGrr76aPdSI5Gj+QHPMmzePWTjQAE8e/oUAG5/YByvKsFJLYSdS0JF0S04w+BPG54acMk/qMBF1fMoF7RzRt29ftggrtRma7kAvaXpZX3vttXjkkUeYhcKaNWsYYeGIi17azHFAK1aGpvZBC0DSugy0RSeRDURm0IufHLXLO++8k5ER1I5ofZbikmKQ5ZLFanGs4SBJh8odI6/UE2VjqJyko8g9Gah1PvQGWAoKYT6fC0POOejPZUCXlQb9uXTozqVDn5MJ8/nzOHM4DGmJp2Ax09aRPsqUJwGqIi5JOlQBjo9/0lqPfayW15OTpIN2iDnpcOVVV7KPYfR+bdO2DcaOHcv6i9Rn5I4sZOcvmM8sDWmLdelqhgHDb/58zJkzB9OnT0fLli1Zf4P3PcjSgda58sQhSQdPoBhgcVBXQpIOAVZoXlCXBic0kKIvpQMHDmQDGs5sEvPZtWtXtnIwPfxrw3DSPUQikJk6WThs27YNb7/9Ni699FI2iKKXCM1Hp2vHjx/3Qg5llJ5AQD224ufKuIWdyHpGOlB+qU7ztRZiY2MZ8UAvaJoqxEk7akNEphGxRgsx0QudyD1qA04HkQ/WcpSWlCAxIYF1lEief9nhL3yKl9rjU089haFDh7K2wtsk14cTg3ROTsvhVpkJBqTC+FRyQplArSe8IXBfC+huygjxU2FMSTjk6DcimLOzkbF7F86sWo7oudNwYPwwHBwzBGFTxiLuz/k4sX4lsiLDkR4Xh/OZmey57aaqfne7JB38p0gc9ZPaPneCeuw/GntGE0k6aMeRkw7UR+Tk+2uvvcam/tK6YPTRjBzJSeceBoQjYUofPmj6M61hxTGnfgiRDrRWFLVbdw9JOriLYADeT9VGkg4BWHBeUtloMrJdK+jLLV+lnwZNt956KzPhjoiIQG22y+EDIvo6vHHjRrYKMX0F5mZbxGDTirlkIl5YWKh5sOQlGOo0Wh+OW2qcT66b2ldGJOxEBupgUpmxKsL0kiYyYcWKFWxKBa2vQGaejvmlTZvgsssvQ4uWLfD5F59j4YIFiIs9Dl1ZGSMbyI8/eRKLfv+dWTc8+OCDDkKOXvTUTsiUlLaPDQoOYqRdUlIS62AR8cEPTjQoff5bVb5bZSbofAjjU8kJZQK1nlTVIKoC3o3fhPipMKbouRxNnyBnLCxE/skTOHfkAE4smY+DwwfgwOB+iJo0FilbNyI94igK0pJhLCuB2eybbZPdgKFWt9pIB32lLTMj9qfAaARMVrPNqs9V7OryFpzLLTNdged8nddPB+EgeAY431E/ziTpoL0cOelA0wmpP0rvxM6dO7O1jrQS69pTa9iSvK9OHyGJeHj66acdmHPSQVo6NOw64lbu6V3pinSYGLINoSujYbICZhKkQ/1ytV+WXv1AgEyzS0pKEBoaitZtWrMvtnzQQ6vzE8t57NixGpECfABE8W7ZsgWdOnXC5Zdf7lh1n9ZxeO6557B02VIbg6qYS+8NVHkVZnHzem1PiP8m8t3VhXWubEOASv9p4GimbRGt5aAOMU0sqaxDRQzu6iK6n9Kz0I4iVjNKLEYUWQyVXKHFALVTyxWa9Sg06yq5IrPeKT5XcnRdGadITh0XyXtaTqmDKGxLz6ZrodmAYrMR50uLEX4yFnP+Woxv+/ZC2/aP46IrL0OjJo3QqHEjNG7cCFdffRVat26FLz//HPNmz8bK5csxZ/ZsRuq1bduWWUU0pgVdGzdi91169ZVo/cSj+K5PLyxatQwnzpxCkUGHApMORWYDK6sSi0lYZsUW5e8mlFrFjsqbZNWOrtvipvhtaahl1Gm4ikurXO3S1KqbN+QqY+qMGcfOs76oHFxhTO2l0KRjrsSkh96oh8mgQ0lmKnLjopAXG4Gi0/HQF+TAaChFiakU+aZS1qYql4dn8+ELrNRpFFstOH2mBEsnR2Be8DHMDg7DuP4bcHh/MkpNgLHWpANZk9ge3jSoJKsjdvCHuejB28CvSdJBVQGorsjDCQFOOpDlHxHwZPFH/cjU1NQa9UWdIq3BCW++3K/BrTUSrejhUcjxKHEK1yjCWggrSQfqs5NVJSd6CHcaA9CHQU8c0tLBEygGWBxUsYl0KC0xY8/qJEzsux3zBx7HrAHH8NuA7Yx00BvBBkIk61T72YUAy7BUt0oEaPBLlgy0cORvv/3G5nPxhzx9tb3tttscxENVEXGigT/AiDGlKf2VdxwAACAASURBVBW0zzLNT+dxEuHwwgsvYNnyZcjLz3OsGcHvryqN2v6mfJgr6zO7Tlbu9kE/DfzJ0Tk5d6q7sGNl75Tm5+fhn13/YM68ediyYy9ySs0w2PXgulpRDku5lTlmPu+WNpWRI/1M5RacMxRjV3IMZuzfgMl712LyHmc3cfdqjN+zCuN22xyFG7ZbjQl71mLC3nX4be965uh8WOhi9F44Hq/0/wpXt70bjS5phEZNbSQCEQ/krrn6arRo1gwPtW6NZvffj2uvs1n+NKJ1G5o0thEVlzbBtW3uwyt9v0bQ4ikYt3UpZu/bhDn7N2P6vg2Yvm8jczP3b3KE+TXuz9i3EfR7VY5kXDnlfa5klGlUJaNVrqZpknxV6XozPmXcvgxryS/JUD2w+VRfNrDw7P2bMPfAZswjf99G5lN43r6NmEP1Zd8GTLPXL1/myVdpzT6wDTPX/YOJo3ZgRvARTA06hAF9V+DPdWFILyhjpIOFdvBw9ZzlD2Ynnz3lHX0kpy/ZSrnKj98GfUX4bnSFez1Cyql+KPNFdUUeTghw0oGsBekjmC9JB2XT5WGmHD/hvpPGNT9RtwP6AMT7oNz3UFLVKkf9b5oOzUkHml7B++zdu3dn61lVG4kGAUk6aACpvonQYIqTDrtWn8UEB+kQYScdYqDXV3x5Ze8CXvPJl0e9Q4AefvTASUlJwYQJE9CiRQvGdNKDnogH2uGCWzyQCZbo4A8tiodYUbKcePPNN9kcdXp4UTxk7UDzxZRTKug+bx4UOyMVysthNJlQUlSEvNwc5ORkIzsnBzm5+cjNK0JRsQ5Gi83qgHLISQfbi6Gyjpwk4frzc54Xhmm5BZZys7OzmpGaloLRY0bh8XZPos+AYTiVVQKdtaLN2XSuIB2IfKD4PHVYCYtyC/KMpdh66hi+/mMcHh3TFa3GfoMHx3ztcC3HfIWWv3yJB8Z8IZ0dgxZjvkTLsd+g5dhvnVyLsV+j1Ziv0GzQh7iqSzs0ancnGt11NRpd2giNLrBbPVB7ooUn7Y7aF7NuIHKCSIrbr0LTdv+H6z78Nx4c/DkeGv0d2oz+Fg+N6YqHx3STTmIg60At60CHX/vindHj0Sd4BX4LOoBJQQfw/Q9/YuTM9YhJPge9xQyL1czWGBA+Z+nxq3Ls3UAX7dcd5xSBUlYYYcO9yHCid5rSMcDqNyaSdNBevg7S4bLLHOsl+crSQdl0eZhpzk+4rz07Qkl1O6BeHvU9jax/ZgvzfqgwAg9epP4r9d1p7SmydFCSDtT3r7QmVS3TlqRDLYEL5Nsk6RDIpedd3emhQxYPM2fOxAMPPOBgmIkwoKkWX3/9NaKjo5l5G8nygx5YZDFBrrSsFNu3b2fbYtJ8PM6W0gKStFUmbZlJ88PUg3Qel6d9shKgL1gmixGJCScwafxYfPfNF/j880/w1Tdf46tvvkPv3v3x17I1yMkvgcFK83vpHhtZYOVmtwpyhOeX7xpAOlPeCRP6jQ7yqRNrMhtgMOqYT1vTma0mpKQlY9BPA3H7nXfi6x79cTK9CGXlFdZFFAO3cuA+vaA8ddDLTW+1IEVXgOkHNuLRYV/jxgHv4ooBnXBpyGvSVYfBgDdwKWFldxcPeAOXMPc6LvnxFVz8/Uu4tOsLuPbjf+PKF9qg0V3XotFFNoKhiZpwoOt3XoOL/90C13R5Ctd2+y+u6fsGrh7wFi4b8CYuJTfwLVw28C1cPvAtXDngLVwx4E2hY78NfAtXaJAjWe6qjc9Fevw+ni7zq5LVqBvpryUP9UWOl0NV+HGMOeaufC5XVVzs3gDA+EoN9VhrHbg55CM8O2gIugctw8Sgg5gUfBC9f/gDgyctR8TZDPY8lKSDp94wVcejHmy5HIxXHU3A/eoyn557tQccJq4Ubmikg82aFdCbyeq1nDkT9avdtLh1ha/6Ouuv2kmHDh06VCIdyALCE4ckHTyBYoDFIUmHACuwOlA3KysL48ePR6tWrRwPH764ZK9evRAZGclWu1WqRoNuYkNpDQda8IemUdCXXDKN42s4rFq1ik3l4IN2PkBXxuPJMHVuaHEvs9UIvbEEhw/8g3c7vYz7770NnTu9hlG//II+/YLQ4enn8fJrb+H3v1Yhp6gMOqMB2dlpSIyPRULCSZxNSsKJEydwIi4OaenpzGKCCAezxYzCokKcOXsWx4/HsQU5TyUmIvvcORiMBlgsRDroUVpWjMxzGYhPPImY49H4Z9cOdO32LW6+9VZ81a0/EtNLHaSDlU2zcLZy8LSlA+FClg5pukLMP7odz4/pjTsGvI8bgjvj2qDXndwNQZ1wY1Bn3FCFu76K36q6zxe/XR/UCeSqS6smctcFdcK1QZ3A/WvYeWdcE9wZV/74Oq7s/xquD3oTdwZ/gP/7vgvu+eA/uLVDG1xy83VofEETNKG1G5o2xuU3XYc727fFXV1ewj2938HdP76HW4PfxvVUDiGdcfWAzrjK7q4e8CauGfAmu0bX/c1p1U2LHMnUB7m6KiMt2JFuWuTqRVmEdMbtwR/hxQFD0Kv/UvxmJx169l6CoZNXISopEwar3dLBFblLA0OVY4Nnumi/7jinl5hS1pMvtXoQF8NJaeXgYUs+f4VIkg7aS8bbpANvq9xnmlGbtR/0YYbGSsJBP2/bXNgNn+oE9VHJkS5Gi8VOOtg+QgnTdyM9V7dWRzrQdGlPHJJ08ASKARaHJB0CrMDqQF36Yp+WloZp06Y59uwl0oEsHmhXi88//5xtp2nrPNi26aOH0ubQzXjllVdAFg5ENpCjKRW0hgMRDnl5eU6WAN7OGj3QyWLBbDHAoC/CwT1b8cZ/nsYD99+JoUN/RnpmDsIjo9G91w+4r3kr/O+bHkjOyEFBUT5CNy1Hz66f4bvvvkXIwMH4rut3+Px/n+GXsWMRn5gIg0GHzMx0rF6zGn1/DEL3Xr3ww/ffo2e3bvh17FhER0WjtLQEpboinIiLwYxZM9Dz+17o0as7vvzyM7R9qBWuu+EGfNUtCInpZQLSgV5EtoXJPL2mA71gaD0HWpQwPPMMRoX+gXemDcbrU4PxypQf8cqU/sy9NjUInaaGoPO0gdLZMeg0dQDD6dWpQSD3CnPBeGVaCP47LQQdpwbhxSn98RLDMQRvT/kJ/5s2Al/8OgSvf/MpHn+mPR565CE88cxTePPzT/DNiEH4fMoIvDdtKN6YEoKXJ/dHx8n90HFyX7w4uQ9emtzX4V5k1+i6dBIDWQc014FJfdBp8mB0HT8DPw1YhylBhzE56CD6/bAUE2ZtRnzaeeitJvauoHea8OADDYXvGLDYrznOKQKFnDC+BnzR1m+Q0yscVYDqijycEPAa6cDbKvWtrGSZSr5t5xpHmyVNFGt9KYvHdjv1ea1sO2InpWtyYteDtjRmu96YDThz5jRijp9AWk4eyixWp8XFaxJ1bWQl6VAb1OQ9mhCQpIMmmBq8EFkupKalYvyE8XjooYccazwQkXDTTTeha9euCD8WDlrjgSwcNm3axBaNJKsGJeHw0ksvYenSpWxKBclSvL46GOlAUxostA9xIQ7uDsUbL7VHi/vuxIiR45CTr8OeA0fw2RdfodkDrdG7bzAys/ORm5uFOTNG4MEHbkKzB1vg82+6onvPnnjhxefw8aef4sChQ8jKSsfiJQvxWqfX0fG11zFq/Di2/WHvbt3w3DPPoH+/HxETG4uU1DMYO2YkOjzVAV0++hAzZk3HuF9Hon27R3HjzTfj6x4hSMgoQ2m5bS4fLSbkeLEp9rzwJGa8c2wut6LIZMCJ8xn451QMtiZGIDQhHJvjw5gLTTiGrQlR2JYYI50dgy0JUdicEIFNCeHYGB+GDfFhWB8fhnV2tyb+KNacPMLcupNHsSk+DNsSjuGfxGj8HXkEoTu3I3TrFmzbtQv7Io7hUEIc9iQex98s/mhQ/BUuElvibW5rQiSkkxjIOlC7OrAtPgbrd8dg9riDmBESjmnBRzAyaB1CQ2NwvtgAvdXoIB1sT2DVE9cxSKggFPhzlA9WHOd0q1JeFVVDP2U4SUuHimpAdUUeTgh4hXRgbbIc5VYrjAYdzGYDTFYDjGadnYBwUoE1YZulgd2aiVk+2K1nLUZGVjjfofFM+WwgcsNqRs65VISE/IguH32K9Vt2IV9nZFYWGmN0W0ySDm5DKCNwhYAkHVwhI6+rESCSIDklGdOnT8fDDz+MJk1tWxeRxQPtavHll19i586djHB49dVX2aKRRDjQtAoiH1588UWsXr0aubm5jGygBxuRDsJOnTpxD5xTOvRAN1uMdkuHLej0n/a4+1/Xo9PbH2PC1Pno038QXnmtM77r1htbtv2DUp0R58+nY8bkgXiw+TV45sWX8PuyNdi5axcmT5mAmXPn4HRyMmKPR+KLLz7Bfc3vR4/+P+JkUhKKi4qwfdNmvPzCi3js0SewdNlyHDmyB2++8QrbjnTqzJk4l5ONEyci8X3vrrj19tvxZfdgRjqU2EkHIgL4O8kDELiMgmFTbgWlZyi3Qme1oMxqRilzfEtAOreg1GpFCW2tKnTWan7n99WdXEmV+lfoV70c5YHkaYtR520Ei9mWo7TtqNLRtp5lKDSVotisQ6nFaFsln3aMIcfmbtrwpzU2qAzId+UM1FmyWmGwWlw6+p27quSozJmrIi52v0Y5phfJVhNfXcl5I78sL1Xkl5dDdXLe0E1L2WotC0/r5+n4OM6u6h61K2rbp8+UYvmMOMweGI3pwUfx648bEH4gGbRbl95igJkWknT1xOQPZYXPBs90h/2a45ziUMi5irKhXmc4SdKhoviprsjDCQFvkw4mkx5GcxmSk+OxdtUSLF44H4sXL8Efi//EH4v+wIa1G3Ay4RTK9EZbf5Vt625bH4yt91VT0kH9PFCcU3wJx8PxwnNP47Y77sG8JWuQU2KQpINTjZAnAYuAJB0Ctuh8qjgRBOSIeKDFJWfMmIG2bds69u8l4oEsHjp27OhYNJKu0dZ/l1xyCZ5//nls2LCB7WRB8dTFwQbWbO0FIwyGYhzasxWdOrbDHbdcg1c6dcGUWUswc+5i/PHXCoSHxyA3v5gNBHNyUjF9cgjatLweb3/4MY7GJCAnPw9JKaeRkpmBUr0ehw/vwyuvvIhmLR/AL5OnIE+vg8lgQNThI3iv85to8cCDmDptOrZsWY12jz+E9h3aY92mzdAbDEhNScSQwT+yNR2+6BaMxAwd6oJ0IEsQZl7IiA6aw0iIOfeX2fNCsJUT39LJG75ZY3q+lrN99SB8Kv9R/VZiR1jSAqZGqwlGK5ENJkbwUBxKV3EPfUGpmE4jwxILWQc8UwdsxGo5kpP0WDHzJGYR6RAShl/7b0D4/mQYjIBBkg4+e0Wzp6ckHSrwrpvuUUX6fhjyHulge1GTlYPBVIod29ah88tP4fln2mHM2HGYM3sBgoMG4OWOL+PH4EEIj4iB0WibekXrcxnMevYeh8WKcrMFVgu9zW0LiXMY6cMabUNPPuWj3FrO5MhnnQR2A1stHDBbYDEbkHg8DC8+9xRuu/0eLPxzA3JKjDTzwmcH9dFpWjVZLYsWkpRrOvisKOpfQtREqtoyc8tKuWVm/Sv12uWIEw98jYcpU6Ywi4eLLrqIWTPQzhQXX3wxs2ogCwc652s4kIVDWVmZYw2H2mng3l3UuaF5e8zSwVBiW9OhYzu0vP9ODBj6C+JOZyAjOx/5haXQGWmHi3L2QsnOTmGkw0OtbsBH//sSx0+nQm8ysUUh6Qu10WrBsWNH8f57b+H+5s0R8vNwJOdkQ1daiv07duLVjv/Bgy1bY87cudi2dR3aP/EInnj8caxYvQZFxUWIjTqK3j2+wS20I0jPAU6kQ8X0CvfyXt3drjp+vMz5YNg2eKYBtHSEAeHBB4OctLH5NiKC40UDHVo3w2A1MdNt8umcEyWceOA4C8tD0TGnNGlBUYpXOomBrAPa64CJWevYSIfl0+Mwa0AUpgeHYULQZkQcSGWkg7R0qO6N4bnfhc86x2jMc+n4W0zsPSHKpw8Hl/6GiSt9vEo6WMthNulgNJVh/arFeKT5rWjd4j5s2fI3zianY/2GTWzbyGYPtMKixctRVqZDcXEeQjetxNjxozBvwe+YM2suxo8dh5EjRzFrX71ez9Z4yM3LxY4dOzBh/ARMmDgREydMxKTfJmHHjp0oLCxiBARVgey0LGzduAXTJv6GyePHYPCPPdHi/ntwy7/uwtxFa5BdbABxFL46JOngK6QbYDpVkQ6TBm7HllWx0BvAFjFxwFPRM3ZckoH6jQAffPJcEvGQmpqKSZMmoVmzZmxRSZpGwXeoINKBT6lYv349s3Dg95Kvjk/5mzfD9KKnrSoNRDrs3YY3Xm6P1i3uwdiJ01Goo0EhbZEJmMtpm0oi5KzIyU7BzCmD8HDrm/G/L79B/Jk0mCwWWCzEeJcz0/jU1GSMHfsLHnn8cbz65ttYvm4tDh86hJFDhqLDE0/iww8+wr59+xERcRgfvv8OWrdqhYGDf8K2bVsxcdxoPPpwa9xww434unsQEjMUu1covph7FRfB13rqDLI+EW/vTBf7QJut5izDRCrYcCKsbM7WiSYywuaojnDSwWg1M+KBfNtAkTB03KrAuyI+Hq/St6Uq8Wekj6yLNvJL4qAJByL6jOVASpIey6Ydx+wBUZgZHIbfgkIRedBGOpClA22Z6fLgz0SFz9skf2Y6zikShZzLOBvoD7bnpVxI0lH8VFfk4YSAd0kHskTQsekVGxjpcAsjHQ4eOobiUjMiomLwRudOuPGW2zBp8iwUFZciOzMFg4K7o2XLe/HCS6+hZ8+++PKLr9h6Z8OHDWf93eLiIqxYsRzvvfsu3nzzbUyaNAVz58zFqy+/ijc7vYXlK1aiuKQYBefP45dho9D5v2/g2y++wpxpvyH4+2/Q/N47ccutd2He4rWMdKgLSwfaGvOpp55y7FpH/ftu3bpBbpnpVD3lSU0QqI502Lo6FkZzhRWQ08tTPhxrAnW9k+XEw+TJk9GmTRu2YCRZN5C74oor8MKLL7A1HMhEi0gG9SG6ppbx9Dl1cGh1YIOxFJHh+9Hru0/Q+fWOmD1/CUrNtm2JHFMEGPFgRWF+FlYvnY4u77yIn4YOQ0pGNiMbiHqmbNGgskxXhtjjsZg4aTI+/eIrdO/dGwOCQ/Dl/z5Hvx/6YOuWbSgoLERubjbWrl6J7t274eNPP0HPnj3w8YfvoUP7x/HU00/j51ETkJRdAgPFq+irehqHKuOrXFRO4vSzdBUYOIGjOHHGyEYQ2IgGsnAgSwWqjRXxUFgeEgGJgHcRoHZGdELqWT2WT43F7JBIzAoOw6RgG+lgNAAGs22LY9ZAReqoGy7jZ200A2/UtjN7q1bKi+JrwNcYTgorLpcWAPUMI5f5tFeZepZdt7LjFdKBNKJ2S9aqDtJhER574BY88H934a9l67B1+z6MmzAZTz/7b3R66x1s37Eber0RWRln8X2Pj3DzjVfgP50+xup12zB//kK8+967zJIhvyAfR8MP451330KrB1th0uTpOJucipzsHPwy4he0fKAVunzwEaKiIrBn5zY8+2Q7PNb6EaxavgLp6UnYvmE52j3SFv+67R7MX7IeOcW+m17BPwjSVGoiF55++mlGOvD12bp3786mXbhVoPab5ZaZnkAxwOLQRDpYKjrG/IXq8AMsv1JdzyJA89QyMjJAxEOrVq3Yw4kIh5dffhlr165FYVGhkHDwrBY1i406ObSgZH5eNiLCDuLA3t04dTaZWTlQZ5QG+/Q1jAaG9LXabNQjI/kMDh7Yg+PHT6BUZzd1s3ckqQ2RnNFkQmbWORwNO4Zdu3Zj9z+7sW/vPiTEJ6C0pJR9zrZYzCgqLEBc3HHs3rMbO3fuwI6d27Fjxzb8s+sfxMUnothgdiIcfN4H4R1kF7Dyn6XvAiAXl2148aEI+bbnqgtxeVkiIBHwAgLU7ug5n3ZWjxVTYzEnJBKzg8MwOWQLYg6mgUgHo9kIi9Xe8RHpwBuvwuctmzdsxzndr5ATRdeQrzGcJOlQUQWorsjDCQFvkw4GTjqs/B2PNrsJd9xyI3r0CsKAwaPQ/8fBGDlqHHbu2o/cgiLozAakpcejd7f3cPstV6Fn0GicyTiPtLR0HDp0EKdOnYLeoMfaDatxf7N78FCbtti39wjKDCY2nWL75u14sHlrtH34UWzavA5jRg1Gi3vuwesdX8PpxFMwmMoQd2wf/t3+CUY6zFu8zqeWDkrSgdZueOaZZxxrtxHxQJYONC3YE4ckHTyBYoDFoYV0IHNz/s50BBwXAizDUl2PI0AWD7S45O+//45PP/0U3377LSMcioqK/I5wcMo8fWmmLTvJYkGxoB+RDoxIsJsrU+fTTNMp7HKs6tPWRtwCXtGn5Nd4O2GLBfFE6UYma9vXmX3pYF+8aetQ2hvawo317XI2Pey32W72xX+WQV8kJNOQCEgEJAK+R4Ce8Zx0mGsnHaaGbEX0oTSYjJJ08GWJSNJBhbbPX/iq9P3w1JukA30405t0MJjLsH7FQjx83w1o8X/3YMbsxdi19wjCImKQnJaFMvoYVE4729Bi6ono0/193H37NQgZMRnnCkvZhyf6qMQH7Zu2bECLlvejZfMHsHv3IeiNZpSbrdi2cRtaPdAWbR56BBs2r8Gwn/qh2R13oPPLbyDpzFkYzXrEHN2NZ598rM4tHWgdNkk6+GGDCGSVJOkQyKXnP7rTg7awsBAnTpxAQkICY0L5w9d/tCTyrGLAb5sjzxkD9osT+UDvflqwz0Q7DdD8Xj4YtxMO9AKi9qO47Ag78qzsQPAwu8GmBxENbMulcnpZOVYIYLeTGI/fEZ8vAkw/XyQk05AISAQkAr5HQJIOvsfcVYrKdzIn4ulafT/4+75SPut/1itluboL3iAdWB2zf3ji0ys46fBo21bYsz8cJXozTOVgjqyjmCsHzmUmo2+Pj3DX7Vej/9DxyMgroQ0sYCbSwb7iY0RUON5+pxPuu+deDB8+BmdT0nD+XA6GDhqKe+++H10+/BhHwg5i8cIZaNu8OZ546HFsWr8RiYlxmDZ+BFrcdzdb02Hhn+txvsTos4Ukeb+dpldI0qG6mil/rzECknSoMWTyBhcI2DoPNJim6QtUs/zvoBc9H+hTmA6nTo+CRGC/cUsEkuWDcTZ/13nNBcVPmrpLyjSdSYcKokEZp0+R5An7NFGZmERAIiAR8A0CknTwDc5aUlG+CyXpYO+AaAGuAcl4i3Rg9c1qgdH8/+2dB3QU2Z3uPbs+e3b3vD371t61N71w1m+D0ybver27Htvv2WuPw0R78gzDBAaYGRgQCCTBADMkIXKQRIYJ5DRkkSSSQEiAkJCQBCiAcpZaoXN/7/xv95VKTSMaqbul7v76nFJdVd264fe/VXXvVzfIRJLdSDu4Ez/67jfwf3/4KLIvX1ermKkJxT2Cgzw3ZGuor8K0uHfw99/+K8xMXI7aJrfooBrssiSmy4mW1ibs2LkNL77wIn7+2ONqPrAF85PwzJPPYMSrI7H38/2ob6zDzaI8TIuNxU9++GOMevMtxMdNxtO/+An++n//T/zt334Tn20/gOZOi/pGFgqTU3QIBeUojoOiQxQbPwhZlweW/PQ+CFEMKkhVwfEMYnC73cEZjxsjuF8lSLfL3bk1XuGf21jRUsMqDL0cjGFrt3+hBsjXkEQaoLQzGBIgARJ4AAGKDg8AFMLTxnfh/d63IUxOyKJSefX1iWKglYqQpTz0EQVDdJBWvNhAVqmxOSywOywovX0DRw7sxuEjR1BT1wyb3f0BTebskomfpb0k5bW7y4SrlzNxYP8uXCsoUkMv9Gc2qfuqZbSdDrS0NCMnOxuHDh3BseMnkH4yHceOHse13Hw0t7XB6rDBZulG2e3bOHn0BI4ePoITx9Jw9OB+7Ni2Bfv27sfN0rvotsvqLu5aarDpq3hkLjP2dAg26ugMn6JDdNqdufafgDzqg/G7p7Il8Xh6Ueh2v94HI/77hjkkkd43NTxBAiRAAgElQNEhoDgHFdg970GPAD+oQMPgYooO/hspGKKDlDvV61WGzyrRwQqLpQs2mxkWh/R+cMLpcELmaRDRQVeLxG4yB5fdLkKFVYkR8jxxCxK9edLig8NuV+GoecEcDjg9q565w3P3DJarHHaH8qfnGbPbbO7r9EpmIbovKDr02pCuIBCg6BAEqAySBPwgcE9li6KDH9TohQRIgAQGR4Ciw+D4BfLqe96DIWpcBTIPAwmLooP/1IIiOniGzsrwVrvT6hYQnDY4RISQL/0iJDgdcDhscM+25Rlhq4foOm3uCcANQy9ESNA/LTrIUGPdkJdzPeKF90iaPher7sIqKC1oSFrc0oeOITh7nVb2dAgO36gPlaJD1BcBAhgiAvdUtig6DJElGC0JkEA0Ebif6JDP1StCXgzueQ9SdAi5DYZ7hMEWHURo0JvqxSDDKTwTicv/fYQCj+ggvSTUdh/R4X5M+4Rl9OR1QkQp+enDFB2MsOgOWwJG0eH0njIsiTmODQkFWB1/BUvjjyFtdz6snuWqpfD33AH6TgjbnDPhJDC0BFRlq8/8EuoOU4nSt1fvkRCmVUcewigZlfvRSg4kQALBJ+BLdFgVl4b8C5WwWdxLZkolX9V3fCVHPyP77Puuoayf7+pyoz9f4UXxsagWHTwNyz7mV0MspcDwpwkERXTwDK/oEQ88K4nJ/0Jf2kY9ZbNP08c9F4TuqdLr9/6PC50P2RsfBf1ZWeLu4z9EYhx7OhitRXfACRhFhzN7y7F00glsnFaI1Lhe0cHmmbhfRe7vHRPwlDJAEogeAn0qrKHOtr7HQx1vFMenkburGVEMglkngRAQ8CU6rIxLw3WP6GCzS9fphxUd+rYo1Nhv3ajUN3gI8hZuUfQ07KRRpbf7qj3hlrv7p/e+eZXJuD0Tct//6ug6EwzRM/ENpQAAIABJREFUQQjqelbP3tOw17erPu6TtsdTr1+fvgZ/sCcecQT/R9Eh+IyjOgYtOnR12CGiw5Ie0eEyFselqZ4OIjr0/Ix3WGjugZ6o6SCBaCDQpxI2FJUvfY9HA+xhkkeNXO+HSbKYDBKISALeosPqqTkIluggz/OheIyHi+H6vO8oOrgFB4oOfYpvsESHPpE87D/6Za33D3u9v/6DHb5XOig6eAHhv4ElQNEhsDwZGgkMlkCfSthQ1FZD/JIbLK9IuF4j1/tIyBPzQALDlcCDRAd7AHo6SDdth+qqTdGhv3LQ531H0YGig4/CQtHBB5QgHaLoECSwDNZNgKIDSwIJDC8CfSphFB2Gl3GClBotNuh9kKJhsCRAArI8HYDKMjN2rryOdXG58O7pQNEhdMWkz/uOogNFBx9Fj6KDDyhBOkTRIUhgGaybAEUHlgQSGF4E+lTCKDoML+MEKTVabND7IEXDYEmABCg6DKsy0Od9R9GBooOP0knRwQeUIB2i6BAksAzWTYCiA0sCCQwvAn0qYRQdhpdxgpQaLTbofZCiYbAkQAIUHYZVGejzvqPoQNHBR+mk6OADSpAOUXQIElgG6yZA0YElgQSGF4E+lTCKDsPLOEFKjRYb9D5I0TBYEiABig7Dqgz0ed9RdKDo4KN0UnTwASVIhyg6BAksg3UToOjAkkACw4tAn0oYRYfhZZwgpUaLDXofpGgYLAmQAEWHYVUG+rzvKDpQdPBROik6+IASpEMUHYIElsG6CVB0YEkggeFFoE8ljKLD8DJOkFKjxQa9D1I0DJYESICiw8OVAc/iG4F6Nsn7zfjr874bAtFBxQ/3X0nXQPOp86X3xjz6crtcTsgKJ9p/D5Ueh6+rovMYRYfQ2Z2iQ+hYR2VM8nyzO4GuDjvO7C3HkkknsHFaIVLjLmNxXBrSdufDJsqE/uknst7r49yTAAkEhICq/gxB5asn8by3e1CEyqGR632o4mU8JBCNBCJl9Qr380JUARf6NGJdcubBP/WuMTS4va9wOmxoqK9GVVUlOrstsHsECLvdipbmZty+eRMlBddRWlKCxvomWGzSiDb8PA80SZvDYUNnpwl19Y1o77LC2iNmGFPR6zaEEjSnjk3SJiuW2Ow22J1OtbqJJ+keEaI3V/oa773T5VSKhfu4W72QfPfZnE60tbahrKwcN4oKUHD9GmpramG22ftyU5f3xnk/ABKnbDqtbrekoFc8eXAo9wt9+BwfbqKDt+31//4Q03713p9rQumHokMoaUdhXPJA8kd0UA8u7ydZJDzNotDmzPLwJqBeRrqyck9VJARp1/d5CKJiFG4CGrnekwsJkEDwCESC6KCfFS6nE7JJw9lq74bDaev5eq4IigAhnr1+/b1ndNhtrY347OPVWL50MQqLbqPb7oTd5YTZbMKFzHOYP3s2Jr8zGmNeexUfb/gUd2ub1UcqFZ0OxAU4nQ7YrN24UZiH1Ws34sS5PDR1WmH3NI69kha6f10u1dvA5rCoNDpckj+XSpfF6VBuIzpxKz9OB6SpL2692Z0OSINN/tf5l54MDpddbeK22azIybmCxMQkjB83FiNfeR6Lk5ag9G4DLA7hJFbRgoExZt9IRGSwO+0qLe60SXy9IkRvWL6vD5ejw1J00HU0vfd1k/kA3Oe+U7Z6sJ19BBO0QxQdgoaWAQsBKe4UHVgWSGAYEfB8tVJfSPx8kQU09bqmEtBAGVh/BDRyve/PL8+RAAkMjkCkiQ5wuuBwWNHaUoesC2dx+PAhHDh4EIePHMHpjAw0NjSqBrGRWp/Gj9d7Rj+H2lubsP2zDUhetRJFtyrQZXdBGuNmaycqystw/nQG9m3dhDdf+A3mzJqH4rJqWNwf/HXLWUUpoojdakbOpUxMiJmKz3ano7bNDJtvPaQnmdIAMv68/zeee2i3yqSIBHZ0mJqRezkbR9LScPDoMXx+6AiOnTqJW2WlMJut0pFE/WTnFKECnk2JDCJcyObuEuyWDTz+9RAKT+PS6XSirrYeWReycODznXj/nTcRMz4G+SV3YRbRQQQaef9L3dwTXn/5Ep+SFuVf0ub1vz4u+3D+hUx00MAeAEuI9+nB8hDiwT3Xet17D4g66KcpOgQdcXRHIPcYRYfoLgPM/TAjQNFhmBkk+MnRdR29D36MjIEEopdARIkOqieDCw67BYXXsjF10ni8M+5dzElagAULFyJuyhRs27IVjY2NfQyuGz8O+RovX+6dWi3o1QtsVgtqqipw9+4dtHaYlaBgkx4AThvsDjtsNjPq7xbjg8njsGBuEkrKa5QfaX5LI1wa9HaHFU6HHU67FTnZFzDu/cn4dNepfkUH3fAxigz6mDETkm6jH33O1zF9Tu3lQSstfBELnHa01N7BnPjJeHPUu/gocRmSlizHtA+m4cPZs5CZeQFd3d09l+tntA5CBSNnlYByr4rilgR6Lnf7czrR3lqD5Ys+QtykKcgvdosOEqbDKUMmXIqvd56VjZQgIT7dP50et2DhyZbng6I+1+vbc42qY3gf1SH2+ul7ZOj+C4no0D+OPpnX904f4cFP8eCea/28rk8CgviPLnN2ux1dXV149NFH8cUvfhGPPPKI2saOHYt2U3tAUvCFgITCQMKKgNxnFB3CymRMbKQToOgQ6Ra+J3/yHDZu93jgARIggYARiATRQWCoBoyIBdLTwWrGpXMnMOK5p5EwYzpOZ2UhK/syFiUmIX5qPIpuFPXhpxs/Zks3srIuIiM9Aw0NTXA4XSgouIFPP/0My5YuwaKFifj8wEFU1jbBancqgUI36mUoR2N1CT6IfQ8L5i1EcXkNzB7tQs41tdTgSNo+pKQsw+qUFViTugIj33gbm7YdQ01rd789HaShWV1djYKCArW3WGQIhPu7vk57Z1cnSstKUVBYgLr6OlhtVvccB7prQp8ce/0jD1zVQ8SG9qpyjB/5EsaNj8fJc9nILyzGvv17MGr065g9ew7KyytU2F1dnSi8cQM7du7CyuWrsGHDJuTlFaDbbFEiQU7WBXy+bx/Onj2Pffv2IyU5FTu378KdikrY7VLq3DaToRamthosXzgLUydOQl7RHXdPB6mPOxxobWvF1dyr2LZtG1auXIlt27fhUk6OagTW1dXj4MGDyM29ig5TB1yGIRmlpRU4lX4Gd+9WwWF3z6+h3ys692I7h8OBijsVyMvPQ31DPaxWyz3ijfAvKSlBcXExWltb1TXa7iof/jDWkQ5yHxLRQWyjRCgZquSA3WZXNpO9zWZTW4/o4+npIMOGZFO9UgS0sq/nXa7m+HALW/q424Mqve57VylVhguVB/efXl+Ggz6c2r5q7xHRpHzpn4Rj/OlwjceMbmEgG0UHIxW6A0ZAiiNFh4DhZEAkMHgCFB0GzzDMQuhTcQiztDO5JBBuBCJKdJDGn9MFm6UTl84cxevPPYUFC6TXQSXyCooxY9oMTJ82XTUgfTVApEG5YsUKTJ8xE3k3StBtd6G0rAJHDh/Bpg3r8M7bb+GDGR8iv7gMFpnTQRpanu7kdqcV9TXFmDb5HSTOXYAbZdWq8SzPs46OFuzduwXx0yZh0eJErF+XjFkz4/DzXz2J9VuO9NvTQcqTNHpqamuwZ88e1fA+duwYKqsqYbGYexp6ZnM3iouLsHnzJqSmpiAnJxvNLc0QgcLYQL5f+VRzYdgtaK0qxbg3XsK0GQtRXFkPs8OFuvoqpKQsweuvv4n0jDNoaWnG8WNHMG/+PDXcZOPGTZj90WzEx0/HxUtX0dHZiXXJS/HUU89g5pyF2LX7AFJS1mLyhElYv/5TVNY0q7q2avS5nOhoq8XKhbMwecJEXCm6g04H1BwSzS2NOHBgH+IT4rB40WKsXbsWH835CJNjY3EhMwvlZXcwf+48LEhMRMmNIjhsMjMG0NXZiU8+24nFS1Jx69Yd2B3u+Sa8ba7YOuy4deum4rZ02RKcPHUC9fV1sFgtPcNEpKGdn5+v4v/000+Vu62tzS38eBqm9+Ma6OOhEh0k/zJp6qHDhzBv7jzMmT0HH300G7NmzkLi/EScOXMGnZ1dbnFC7gGZU8PunkNFxB/9E5f0oJEhTzLXithAev+o97xHOLPK5KGiSXiuk55D8lPlQ+YLcdo887PoUO+/V+GqOB2wOcxqnhIvraHnYl3+eg54OSg6eAHhv4ElIIWVokNgmTI0EhgUAYoOg8IXjhfrSoPeh2MemGYSCBcCkSM6yDh+0RycsFhMuHT6MJ7/5Y/x5K+eQOy0DxETOw3vjZuALVu2oqGxoadBY2yINjc1Y86cuXhn/ERkXiuAyeGC2WqDqd2EyvJSJH44CzOmzULujTLPvAMu2NQEiU7YnBbUVRcjfvJYzJs7v0d0cDjsKMy/jIkTxmLR4iTkF+Sjqqoce3Z/hldHvoHN248/UHSQxo80Nm/cuIEDBw5g5aqVSEpagIOHDuBW6U2YOtthsZrR1t6KS9lZ2LVrJ1asXI7U1ak4e/as6h0h1/f3k0ajzW5GY9VNjB35PKbNWISiygaYXUCXuR0Z6YcxYsQb2L5jD3Jzr+CD6XGYGDMBh/bvw+XLOdi8eQOeePIppKz5GPUNDVg+byZ++vMnsPrjvSivqkdZxV2sWrIYY9+diLOXCmCy6okeXehqr1eiQ8yE93GpqAImB9R8GdfycjDh/bGYGj8Fly5lq9Ut0s+cwqgxozF7diJKb9/B1i1b8cpLL2LX9u0wtbXDabfh8qULiIlNwNbth9DUZILDJXV7mxpC4s1Avs53dnbgWl4u9uzdhcVLF2Hp8iU4lX4Sd+5UoKOjQ33tF5EhMzMTu3fvxuIli7F69WpkZWWhpqYGZrPZL2HHO+6B/B8s0cF4H0i6qqorMXf+HPzqiV9icuxkfPLxJ9i2bTuWLV2GqVPj8Pnn+9HeblL5lt4QJpNJsZAVSBpq69He2g6HQ3rjCHsrOjqbUFd7V/UgamnpRG19A6qr7qCurgamLjMcDhfqGxpRU1+Pju4uTy8d98Swra0NqKyuQF19vQpT0mcxm9X8LFWVVZCturoW7W0dsDlcasUVGc7U1l6n4mhqaEVzYxtqqirVvdDa2g6r3e6eeNTp8Cgg91qDosO9THgkgAQoOgQQJoMigUAQoOgQCIphFYYWG/Q+rBLPxJJAmBGIFNFBsEtelOhgbkdWxgG88vTPMP7dd7Ft536s2fAZxrwzDjNnzcKt27d6J78zfAZtbm7B7NlzMfb9GJy7Vog2TwNGvHS0NmF50nzMnG4UHaBEB1nFQokONSVKdJg7dx4KyqvV8ApLlwlHD+zC6LdG4NChg6oXgKyscfbMcYx9bzw+2XkSNZ6JJN1NtPsXIPni3tLSgvzr+di2bSsmTpqA2KmTcfzkMbS0NcPusKG7uwt1DbU4c+4MNm7aiHHjxuHDDz9Ebm6uEi58hq56vjvVl+G6qhK8NeI3iJ+5CEVVDbC4ALO1AzlZGXjttVHY/PEW7N+3B88+8xR++vPHMGb0aMTETMCoUSPxs5//HMlrP0FtfR2WJ87Ak795CQfPXEO7xQGzuQt7t6zHiFdew6Gj52HqssLhmXSyq71BiQ4TJoxHdlEFOjw9HQ4f2YuXXnwamzZtQHNji2rg1jXVYW7ifIx87W1cvXIdRYU3MHbM25jxwXSUlpWpoSUrlixAwvTpuH7jNixW9yocNodVCU3e+RexRYQHEW0amupwOTcbn239FKPefgtTpsQqoaGzs1P1ahBxoa6uDhcuXEBqaipGjRqFxMREFBUVqSEH3mEH4/9giA76i7/aCyWXE7l5V/GLxx/DP33nH7Bz5w4l+Ij4VlNTi+KiYlTerYTNZofT4VTDekSEmThxImImTsJ7Y97B3FlzkJt7HRYZkuG0IDf3PBISYjBlUgJmf7QY496fgBdeegbjJ4zFpavX0NjaisXLVmD8xEk4dzELFqtbJHKZrdi/dxfefW8M5sybh/qGJnR1dSDt6BHExycgJmYSxo0bjzFj3sWKFSmoqmmE3elSItPhQzvw6ivPIW7ydMyZlYhRo17Hcy++gEWLlqGyugZWu0X1oHB3s7jXWhQd7mXCIwEkQNEhgDAZFAkEggBFh0BQDKswtNig92GVeCaWBMKMQMSIDi4tOrhgMbfjQsZ+vP7yE1i2fAkqqutQXdeMLVu3Y2JMDK5cvaIamj1j0D02k5Utpk+fgdHjJuBcXiHae0QHFzpbm7BiYSJmTJ+Jq4WlPSssqGUlPaJDfc3NHtHhenmVR3Rox+6tm/DGay/i+Inj6Oo2w2rtQub5Uxjz7jh8YphI8kGigyRThkvcLr2Nrdu2YPTYtzHmndH4/MA+tLQ2q8aiw2lXPR+ycy5h0+ZNePvtt5GQkIArV66oa30WT4PoUFtVgjdG/AZTZiTiRlW9Eh1s1i4c+XwHXhvxOg7sP6h6Nzzz9NOYEBuHnXv34dTJk8g4cQLp6Rkovl2Ozk4TViXOxDPPvoQTmYXotLpgNrdj56blePG53+Dw4Qx0dFpgl4kinQ50tzdg1aIPETNhPK4UVfT0Ijl0eC9eeOEpbN36Gdpa2pXo0GJqQdLiRXjl5TdxJec6Ok0dOHxgP8aMGYstu/bi4NGTGDf6bezZvg3trSbYZLiNLKPqknkd5K3S9yfHJA3yZdzU2YZr+Vfx8Web8fIrL+G9ce8hIyND9XbQcxjIF33p8bB8+XK8/PLLmDNnjhId1DAWH+H3jW3w/wVVdPAMkxAWt0tv4r3338G/f//fkJAQj/2f70deXj4aGhphs9qU2CDZvXXzFibGTMRjjz2G+fPnY/v2HYiPjcO//fN38faod1F+txIWezfS0w/gRz/4Lv7qf/0NXnz+TcxfmIT/++Pv4V/+9Zs4dPQomtqasSI5Gd/513/DlLgEVNfUqeEWjXdrMPatN/EPf/9tLF2+ArX19UhPT8NTTz6BJx5/AmtS12D37j14441R+Kd//i5WJa9Ha1unEhSSVybiq1/9Q3zr6/+Id8e+j3fHvYWvf/ubeG3kWygrvwObwz1sg6LD4MslQxgAAYoOA4DGS0ggmAQoOgST7rAMW4sNej8sE8lEkUCEEIgk0UGNFXe51PCKzIwDePXFx7FwSRLu1NahraML6enpmDJ1CnIu5/R0rZavuvpXUV6BsWPfxetvj8X5/BtqeIU66wI621qwalGSmhfiasEtWOzyRVhNIaGWZ1RzOtTeRnzsu5CeDiI6yJKZNksXThw9gFFvjMCWLVtQX9+AhvoafLJ5HR5/+jfYuC0N9e0WyCj2e5vEOmUyLt6JiooKpB1Lw/r167Bo0UIlPIi4UFtbA7PVDJncseDGdRw6fBDJKauQkpqCI0ePqAko9RwEvSEaXH1Eh5t447VnETN9Lm7crUOH2YqignxMjRmHie9PxNXLV1CQfw0T3p+AiVMTcC4rWw0/sVusajLH5tYWmLs7sHDONPzXY49jx4HTaO20qiEliTMmYfSoN3Dh0lV0W+3uoSmy7Gh7I1Yt+kiJDvlFFbDJBJwuF65ezsI7Y9/EjBnTcf16AaTHQW7+VYwd9y4+mP4R7lRUq8ZvW2sLEhcswIsjRuLNt9/FxPHjUZibC5vVqoQN6Ymi5t7wzL9hyLlymi1mFBXfwMHDB9TQinmJc7Fz907kXstVK53InBoyzOLatWvYv38/kpKSlOhw4sQJ3Lp1Sw0tkCEGofiFQnSQe8LU1Y6snAtYlboCsVMm460338JrI17DvHnzkZZ2TPV8kF4OMuzia1/7Gv7xH/8RSQuT1P+zZ32Ev/va3+J7//Z9XMq+DLNVRIfD+P5//Av+5E/+DAuSVqDk1m0sX7YAk6eMw4WcLLR1tSvbPv3sM/iPR/9TlXNZMSL9+El871+/i1/8/BcoLi5BxZ07iIkZhz/+8pfw5JNPYXXKaiV0vPfe+/ij//7HePXVN1FeXg2b3YaUVQvx5S//N3z3O9/D53sP4nj6QcTGxWLVqtWqx4Rd5ppw2d3DbnzcfOzpEIoSHcVxSJnzZ06HHkS6Vqz3PSfoIAESCAgBig4BwRhOgejHqd6HU9qZVhIINwKRJDro7uFWSwcyTx/B00/+FL9+9hl8NG8+Fi1ZimkJCYiLj1PDE9xLTLpXgNA2ky7jEyZMVD0QLhfcgNmzGoKoAd0mE1JXLMesGbNQUHTb0zDW7RWXarzU1pRjxrRYJCUtxM3yalWfdNitqCi9idTklZgSOwWJ8xKRvHI5Zs2chqd//SzWf7wL9S0mNTREP/OMe0mb1WbDrdu3sWfvXmzYuAEHDh7A5SuX1dwUetI9aWRdL7iOz7Z8hk8+/QQn00+huKQYpg5Tzyobvr7067yLgiINsJqqMowc8QJ+9vjTmD57PuYlJmF6QjwmTxiP/fv2oamxUYkbJ46fwLQZHyJhxizV4F+2dCnWrlmDU+mn0NRUj9kfJeA/Hv0Rps1KwvLktZg3bw5ixo1WEzZW1tWrHgiyHKaIAaaWRixfNA+xk2JQXFIOWYREfg31tfh48wbV4+CD6R+oL+kJ0+Mx7v3xOHXiNDpN3UqpkXydOXsGP/6v/8JPf/5LtSxqa1MTnA73RJ9uK7tLR09+PQ5pWErPEeG2+ePNOHzksBKlmpqbelapkC/713KvYfOmzUo4OnnypBpi0N3VrcQRCSNUv5CIDnBBhqN0mjtQ21CD/Ot52L1nN6ZMmYKf/ewx/OIXv8S+Pfsgw5FkYtYvf+nL+M//+E8sXLgIq1evwdrVazBz+kwsXrgMZbcrYLNbce7sSfzk//0A/+ev/w6fHziKrq5u3LlTiuKbBWhsbUKnpQuNrfVYnrIM3/j219V8IXcqKjB39hx8/W//DgvmL1BDk/Lzr+Oxx/4LX/rSH2HkayORkpKKDRs2YunS5YiNnYr16z9GQ0Ob6iWRmroUX/7yH+CpJ57G3fIqNDXXoeRmESorq2G12lTvF+PqFt42pOjgTYT/B5SAPDYoOgQUKQMjgcERoOgwOH5heLWxwh26qlwYgmKSSSAABCJCdPB8qdfDJex2M8pLi7Fxw2okLVyAFatWIXX1amzauBHydbqpqUk1Fr3xdXZ04tjx49h/8CCqamrV2HD1DJKJCG02ZGdl4dTJU6hrbFaTE4oYIQ0TaTirpR9NrTiedgTnzp5Dc7OsbuDuCmE1d+PWzRJs37Yda9euw87t23DieBp27tqJK1evoaPbrHo5eD/79PNPlr8sKy9H1qVLyC8oQH1jo1q20tjYFWHidlmp8nOrtBRtJrfY4J3H/v6XZnl7Wyt27dqBxUuWYMWqFKxcmYzNmzYh89xZNDU0quUwRaCQ8f05V3KxdftOxXb16lQ1z4Qsb9luasW8xA/x+ONPIHnVOtUQXL9uHQ4f+FwtT2m22XpXMIAL3V2dyDx3BocPHURTc4ssQKJ+shpCRUU50tLSsGnjJiQnJytBJf1UuprjwSkzRHp+2dnZ+OEPf4SYybG4feu2GgKgVkMQG2lP3nuP/SorK5F1MUsNFZAeITJ3hr5WLpa5C27fLkVOzmWUl5VDyol85b9/wN4RBe7/YIsO6h6CS81x0drWjM7uDljtVrSZ2tSwpFdfHYE/+7M/x4LEBairrcOMD2bgK1/5qhIjpAdESclNxai8tBw1lXWwdLmXbs08l4Gf/L8f4evf/HuknchQq4PYHbK8qgU2pxVWhwXd1k5cunIRj/3yp/j+D/5TrdTyxK8eV8MoTqefVja9caMITz75BP70q1/F5EmT3TYpr1A9IMrKylBf1wi7zT1QKSVlOf7oS3+A5597AU31LXDaZUULa8+975ah7ls6egQlLpkZuPLLkAwERFyl6GAAQicJDDUBig5DbYGQxy9VAOMW8gQwQhKIIgKRITq4x+XL0nzS+LfbLWriwqamBlTXVKO6pkYtOVnfUN+zGoEvE8sQBulG39rWBotVGksyhMLdKJG9LMXYYeqA3S7zAxgEB6d7vgBpsLWb2tUwAIfd093e07CVrv7Nzc1qIsLmpiblr7WtFd3d3e6lF72ee8ZnoKRDhgCYOjpg1uny8i9+us1mdHZ1qaU8HfcZSuAr38Zj0jtA0lVbV6tWIxB2jdK7wTOZovIrXKQHhtWmvnbX1taiqrpK9bzo6DChy9yJxKS5eP6553HyWDqq7lZD/LS1tqrlP91Ee2MV7jJ0oq29zd27oPeU8i/n5HpZKUKlpasLwlcag3Kt9EpISU7Br3/9Gxw7dhzdIuI43MNffAoDOgEeyNKQl678aoiE51jPS8hjZ4tZypSssuBZ7cCQxlA6gy06yGSkshSrDNtZsDAR+/bvxe2yW+joNKGouAgvPP8C/uIv/gIrV6xEe1s7jqUdw7e+9W381V99DQkJ05Q4I0vPlpeXI+/qddTLxI52O86cPoUfPvp9/PXffAPHT51RopkshSnDkmSTySZtDgsammuRtDgR/+t//w98/e++jm9+81vKto31jbDKEJ72DixauAh//ud/gX//3r9jzZq1qK2tUytZXLiQqUQIU2uHEvxWrlqOP/zSH+C5Z59DY53MeQLP0pu6APRvObnnZaPo0D8nnh0gAYoOAwTHy0ggWAQoOgSL7LAN10edb9imlQkjgXAnEJGig8MKESBkbLra1BSCvrvX389+usEhe/np/43+5ZgIDWozxNXTYDU8zPT1ei+NZe3WYRq8+wpCzR3xID/e53XYA91LGuWn997h6OMqL55JGS02MzZsWofx48bjcvYVd68DxcozbsI7ED/+F17yU/F4GoOyksexY8fUHAuzZs7Cjh070dTYpHopSC8TlXR38u+NQYO690zfI/p64167+/oMyX/BFh1kIlJZyUOWXo1LmIpx77+H6R8kYP6CeZg5cwZGjx6tVkPJy8tTjXFZZnbTps14feTreO655zFz5iwsSFqAWbNmYemi5SgpvKUmMM3JuYiRr43A408+g/MXslXvERnOo0Rr3M1CAAAcR0lEQVQHT48HcXdbOnDuwhk8/uSv8K1vfgsjRryGq1dzYfeslCE2ld4UMreEiEwvvfQy5nw0B/PnJ+KDGdOxceMm1cNC7P/plk/wL9/9Z0ydMhVNntVPROhwS2YPNpcuaxQdHsyKPgZAgKLDAKDxEhIIJgGKDsGkOyzD1nVBvR+WiWSiSCBCCESS6CCNGOnpIHvt7hEejKKAP7ZTIyPcooV499XOlMaLFh0cDvnq7rVCgn6IeXo76EaM914nx+Ddp+gwkPM67IHu/W2guRlJQ98JabjeuVuO/Lx8tLW4x9frPA80Hd7XSXjS86C0VIY95KCwoBAtLa09wx76FRx0YL6Mqs/db6+NcL/zQT4eDNFBkqwkuZ6hQk7V2+VGUSEuZl3AucyzOJ95DhcvXoCIDdXV1UpIEBuIGCQ9HoqLi9UQlUtZl3Dp0iVkZWWhIL8ApjbpGWRHa2szruVeRXbOFTQ0tbpFBI9g55BVJDwrSUhvh5a2JmRePK9WDlETiHZ09openuEu0rtB5tk4fz5TxZt9KVvNcyLDYLq7zKqnQ2XlXZw9e0bNvyG9cuSmkrLpb5nWZZaiQ5ALdbQGT9EhWi3PfA9bAhQdhq1pgpUwXafT+2DFw3BJgATcy0xWlpmxc+V1rIvLxeqpOVgZl4brFyphswAyrl4a0z5b3QJQ36j97N1CgKdBLv4C/FONf5dMGti7eYsO9wgC/aRBZ0ULCqpB5sO/iren4SSCh9eXfB2Qn6KDRGG4ZNBuH0kO+iHFyjPHhTTa7ltuApQSFYdw8/R+6IEWoPCHWzDBEh0kn5qhu7y7BSR9D6j7x7t8azhehdbb7ipcMYzYCFDzocjwFzV5hxY6enoMue9hm83qFkJkgg9P+MZ5NoxufV4lR6fFKcF7REN9TKL0FgZ1HnzsNQ+KDj7g8NDgCVB0GDxDhkACASVA0SGgOMMhMEP9QNUlwiHNTCMJhCuBSOjpoBu68pVdhIfW1hb1ZXbb9q1qRYJNmzZiw4b1ajt06JCaF6A/e+lnkEN6TXi6Y+tjxuukUSPL7tkcNlTVVCHzQqZa1lImIuzzewjRoc91D/GPpG+4/HTvEpWeICbM3YTtzbVq7Pb+G5GuYIoOPY13j816xAd38//+PQT0zaFtrf/XFjAcV6f0ec9eN+713j0xq3v4kRpW0+PPrcqpXizSYDMc7+nZYghbh6f9yf5hyoi+nqKDNiT3ASVA0SGgOBkYCQyeAEWHwTMMsxAMdQZVVwiz5DO5JBBWBCJNdJAGb2tbC06fyYCIDSmrUzB+/Dg89dSTSEiIx549e9Rkjr4aH3JMJgpUSzmqL7J22B1WtWKD1e5QS1eKoCB+VINEz2FgMSPjTAbi4+Nw9OhRtLe3q0kWe1Y4UB9r3ZPS6YaMcR9WBcaPxOrGqh9e6eUhCQRVdHjItAzUu7zjjUKAt9t4b4jb+/yg//cz4TodFB38BEZvD0eAosPD8aJvEgg6AYoOQUc83CKg6DDcLML0RDKBSBQdpGt2S2uLWrmivLwMixYtxDO/fho7dmxHVVWVmgtANyiMtpXVEQ4cOIC8vHx0dnar5fXq6qqQdiwNSQsXY9r06WoSPektITP0S+O6urpK9aB45dWX8Z1/+Q6effZZxMZOwaxZH+Lo0TS0tbapRpOOz9femAa6SaA/ApEgOvTkz/tl7/nf+x4ZtMjgHU9PAvp36HRQdOifE88OkABFhwGC42UkECwCFB2CRXbYhjvA+sGwzQ8TRgLDmUAkig6qe7+nS7jVasG6dWvx8ssv4eSpkzCbLXDIyhFqdQN52vT+ZIK8hQsXIjFxAa7nF6KttRnbt36C2CmxWLkqBVu2bMWnn36KjPQMtfylw+keynHq1ElMi5uKn/z4x4iJmYSNGzdj9+49yM29ppZilBh0A8bXvjcFdJFA/wQoOvTfS8IvgaJ/xD1n9b1K0aEHCR2BJCCvH7sT6Oqw48zeciyZdAIbpxUiNe4yFselIW13PmwyOYlE6l0z7vvuCmSyGBYJRC8Big5RZ3vjozXqMs8Mk0CICUSC6CDIdJd+vdfHLNZubFi3FiNeeRWn0jPQbbHBIYKDcYI6T5Wuvd2ElJRUvPzyqzjw+SHUVN3FsiVJGPn669ixcw9u3ryFhvoGNVu/zWpTQoIIDyZTG3bs+BivvfYyPt2yFVU1tejo6HTP8C/x8EcCASIQUaKDMDG+8IfZrULRIUCFlsH4JiDlvT/R4cjuPFid7plX77lRhtnN4juHPEoCYUaAokOYGYzJJQESCCcCkSI6+GIuE9KZzZ3YuG4dRr46EukZZ9FptcMhX44MjR3trKmpw6JFi/HOmHdx8lg6WhrqcTrjBBKmT8fUuGlYmZyM9FPpqCi7A4vZ4hY6ZDJJmwX793+G1998Fbv3fY52WeLPkyARQfgjgUARiDjRIVBgghAORYcgQGWQvQTk1dCv6LArD1YXYNdvKO99b1B0kQAJBIIARYdAUGQYJEACJOCTQKSLDt3mDmxavx6vj3gDGafPo9PmUPU8X6JDR2cXioqLcT2vAE2NzbCau9De1oyikhKcOJmOtevW4aMPZ2PlimQUFxVDLesnK2Y4bDhycCdGvTUSu/f2ig7GXhc+4fMgCTwkAYoODwlsEN4pOgwCHi99MIEHiQ5HKTo8GCJ9kEAgCVB0CCRNhkUCJEACfQhEtOgAF8yWTrfo8OobOH0mU4kOxp4O3t+O7HYHWttMaG03qaU3K0pL0dzQCJOpA8UlxViwIAlvvzUaZ8+ehcVilskaIMv6ZZ5OxxsjRmDd+vVoaGhwD72Qc57J9/tA5z8kMEACFB0GCG4Al1F0GAA0XuI/AYoO/rOiTxIICQGKDiHBzEhIgASik0Akiw7S00DmdPh088d4+83ROJ+ZBbPDCYdBaTA4VeeH0rJyHD6ahus3ilBVVY1d23dg2ZKlWLZsGRYkLcDEiTGYN3e+6ungsDvUMA1Z1a+y/A7mfjQH48eNw8KkBVi7dg3ST59GS1s7B1hE560VlFxTdAgKVp+BUnTwiYUHA0WAokOgSDIcEggQAYoOAQLJYEiABEjgXgKRLjo4HDbcvnUL2VnZqG9ogs3pUpOBS31Pft6iQ1NzMwqLi1FVVwdTRydKbhTjQuYFnDt7FqfPnMb585koKbmJrs6unskoRXSwdFtwu+Qm0k+dxMkTx5GRka6GZXR1maUzBH8kEBACFB0CgtGvQCg6+IWJngZKgKLDQMnxOhIIEgGKDkECy2BJgARIAIhs0UFGPzjhtDsgvRJk1Qrp5eA1j2Qf4UGW0zTbbLDY7XC6XOo6m80GvdltdjgdTjV8QndhUJqChOt0wGzuRnd3F7rN3bB5wqDmwDstUAQoOgSK5IPDoejwYEb0MQgCFB0GAY+XkkAwCFB0CAZVhkkCJEACikAkiw7eJpY63oM2ERpk8+XPO7x7/lfvK5nEQa7mjwQCT4CiQ+CZ3i9Eig73I8PjASEgr4n+Vq/gRJIBwcxASMBvAmr2b5d8VXKq5cn8vjBQHnXNM1DhMRwSIAESGEYERHSoKjNj58rrWBuXi9VTc7AyLg35FyphswB2u019wddf9e9Jun5G9rN3uhxwuBzuZ7j4G6JfP0nsERnuJzj4k2zdSBmi7DHaKCBA0SF0Rtb3s91uR1dXFx599FF88YtfxCOPPKK2sWPHot3UHpAEfSEgoTCQsCIgLxXpetfZYceZPeVYMukENk4rRGrcZSyOS0Pa7nzYnO4lM329gPx5odHPg780kBEZ6ftLRAdZa102JUD48aUqkOVHP8ACGSbDYvlmGWAZGC5lwFt0SJ2ajeVxR5F3sRJWc/SJDv3ZRb8PuCeBoSJA0SF05Ck6hI51VMYkLxtZ3qirw46MXbexOOYY1iUUYG18HpbHn8LR3QXotgE2NSbQ3QQy/pVmkXFT4UmY3MiAZeChy4Cu/DlkXK2nu2so7yUdP+9jPsNCWe4YF8tbKMuAiA7V5RbsXJmP1LgrSJl6CUumHMLVC3dgtQA2hx12p7u3g+5xpus9qqJofFBqt6EGKX6lp4NbOPaoxobzoXbqJD7sPtTpZHwk4IsARQdfVIJzjKJDcLgyVA8BeQlJH7vuDhvSd97Ewpg0JTqsTyjAqmlncGLvTXRZAKsLsEuvCMNmd7lg3Izn6O7LijzIg2WAZYBlgGWAZWB4lIG6Cgd2JRcieeplJE+9hEWxB3A5swJmq/Ts7O1tJhMlKuHBM+RNzV3g3Xo31CiVOGEYHqfrWAYvdJIACTwEAYoODwFrkF4pOgwSIC/vn4B6IcIjOuxwiw5rE65jbXw+kqedw8kdZWhtADragQ7Tg7dOE6C2DhmywY0MWAZYBlgGWAZYBlgGhk8Z6DIBlQUO7FpRjNT4XCU6LIw9iMuZd2C2uUUR6QHqnvTARdGh/2okz5JAUAlQdAgq3j6BU3Tog4P/BJqAUXQ4taNE9XRYk5CP1fG5WDH1HDbOvoh9q3OxLfk8tqw6i8+S+9+2JJ/DttRMbmTAMsAywDLAMsAywDIw7MrAztSL2LX0KjbOvIo1CdeRPDUbi6ccwdWLlbB4RAddN5I6l3fvhZ4ZGLUwYaiYeftV4RgDM/ilkwRI4MEEKDo8mFGgfFB0CBRJhuOTgH4XyvCKk9uL+ogOy2MzsXLyWSTHnsbSmGNYPjkDyyef7mfLwJLJJ7Fo0nEkxRztZzuCBROP9HO+v2t5rn+2mo+/jP31p8Pl3j/+Rk7+MvbXnzFsuh/OHvLc8efZ468/8n84/kZe/jL2158xbLofzi7+MXa/t8VvePOV+kzy5NNq1Yq1CQVqXodlU04i62g1Gu8C7Y2A1dp3ng3jPDtaa7j/3t07omf9IV3R8lkL40ESIIH+CFB06I9OYM9RdAgsT4bmRUC9NF1ONafDqe1FWBSThjXx17A6/hpWTcnGqtgspMRmIXVKFlbHXcHq+Ks+t9T4K0iJu4yUuBzVVXHVlCz0t62ccrHf8/1dy3P9s9V8/GXsrz8dLvf+8Tdy8pexv/6MYdP9cPbwh7H48ccf2T8ceyMvfxn7688YNt0PZxd/y7q//oY7/+TYi6pekzL1MlLjcpEyNQerppzDx3OzsWVRFo58ch1Fl5pRXWxBbbEVNUUWVBeZUVNsQY38X2zBncJ23C5oRGlhHUqu30VhXikK826hsa4Ndrt79SGKDl4VTv5LAgMgQNFhANAGeAlFhwGC42X+ERDRQdZo7pKeDjuKsXjScSU6rI+/jnVx17B26hW1rY/Lxbq4XKyNv6bOizBx75aLNfG5WCPrXsddRSo3MmAZYBlgGWAZYBlgGRhGZWBN3FXIljL1irLL6qmXkSJC4+QMLHr/EBZP2o81M49j8/wMfDw/A5vnp7u3xHRsTkzHxsQT2LAgDel7C5F3pgq5Z8uRc6YYWafzUFXWCLvVLTc4ZOljGYvBng7+VUjpiwR8EKDo4ANKkA5RdAgSWAbrJiBdBu0umSDShhM7S7B08kmsS8jDxmkF2Bifjw1xudgQdxUb43KhhQcRHx60rY0XgYIbGbAMsAywDLAMsAywDAyfMuD+gCIfSK6obV2ciA/ncWTDLVw8WI0LhyuQdbQSWUfv4PyR2zh/+CbOH76l3JlHbuHckZvIPHYT5SUtaG20oK3ZjPamLrQ1mWDutMKpZqGU4Rkyw8PQL5nJ+i4JhDMBig6hsx5Fh9CxjsqYZGkomwswddhwam8Rlk09gjXxF5AadwGrppzFysnpWDnpFJInZ2DV5AyseMC2avJpJMfKPBDcyIBlgGWAZYBlgGWAZWB4lQGpp6yYnI7lk06qbcWkk1g2ZT+unLkDU4sTbe1WmEwOmNptaG3tRHOrSW3ibmvrRnubGe0mC7qtdjhEYFDjVPVqF70igz7Mng5RWb1mpgNEgKJDgED6EQxFBz8g0cvACbh7OjhhtTpRU9aBoux6FOU040ZOMwpzGnEjuwFFnk3cBf1s4r8wW65p4kYGLAMsAywDLAMsAywDw64MSF3FWJcpzG5AYU4Nmhu6IRqCw+WA1I2kp4LbbYfDJZscd8DpcvdhUCtVSPVLqwvGveEwRYeB11F5JQlQdAhdGaDoEDrWURmT+x0pMy0DDjtgtwE2K2CVvdemznkd8/bD/+/lRiZkwjLAMsAywDLAMjC8yoDUc4x1HadT6wfuYRFSP/LrZxQbPG63IOGRJfwOyK/Y6IkEoooARYfQmZuiQ+hYMyYPAR/vTwr1LB0kQAIkQAIkQAJhT+B+dRzv435n1PtCl2fJTE+PCFag/CZJjyRwDwGKDvcgCdoBig5BQ8uA+yNwzzu0P888RwIkQAIkQAIkQAJhQMBX/UaODfjnFaBLxAZZuYKiw4CR8kIS0AQoOmgSwd9TdAg+Y8bgg4DXO5RCvQ9GPEQCJEACJEACJBBeBHzVbwInOrh7OVB0CK8ywdQOXwIUHUJnG4oOoWPNmAwEfL2UDafpJAESIAESIAESIIGwI+CrfkPRIezMyARHCQGKDqEzNEWH0LFmTAYCxkmQtNtwmk4SIAESIAESIAESCEsCul5j3A84I31UDPZ0GDBHXkgCPghQdPABJUiHKDoECSyD7Z+AHpNo3Pd/Bc+SAAmQAAmQAAmQwPAmoIQGz7wLPXWcwQwipegwvA3O1IU1AYoOoTMfRYfQsWZMBgI9L2LDi9lwmk4SIAESIAESIAESCDsCFB3CzmRMcBQToOgQOuNTdAgda8ZkIEDRwQCDThIgARIgARIggYggQNEhIszITEQJAYoOoTM0RYfQsWZMBgIUHQww6CQBEiABEiABEogIAhQdIsKMzESUEKDoEDpD9yc6fOELX8DYsWPRbmoPSIK+EJBQGEhEEKDoEBFmZCZIgARIgARIgAQMBIIrOgAyPYTUoZwyPFX9Y4icThIggYci4C06PPLII/jGN76BuLg4zJ07F3PmzOEWQAbCdPbs2UhISMDXvvY1/PZv/zaEuYgOY8aMgclkeij73c8zRYf7kYnC4xQdotDozDIJkAAJkAAJRDiBkIgOSm7wLMQ5qPU4I9wYzB4JPICAL9Hh937v9/CVr3wFf/qnf6q2r371q+AWGAaa6V/+5V/id3/3d5XgoEWH0aNHo6Oj4wEW8+80RQf/OEWFL4oOUWFmZpIESIAESIAEoooARYeoMjczG+YEbDYbXnnlFfz+7/+++touDWDdCJav79yCw+B3fud3FOff+q3fgmzCWUQH9nQI8xtqOCafosNwtArTRAIkQAIkQAIkMBgCFB0GQ4/XkkBoCUhPhxdffFGJDiI2SAP4kd9yCw9agOA+8Dz0sAoj23feeQdtbW2QuR8G+2NPh8ESjKDrKTpEkDGZFRIgARIgARIgAUWAogMLAgmEDwGz2YwZM2bgJz/5CX7wgx9wCzGDH/7wh/jRj36kuC9btoyiQ/jcOuGTUooO4WMrppQESIAESIAESMA/AhQd/ONEXyQwHAg4nU5UVFTg+vXryM/P5zaEDKqrq2G32wNSLNjTISAYIyMQig6RYUfmggRIgARIgARIoJcARYdeFnSRAAmQwFAQoOgwFNSHaZwUHYapYZgsEiABEiABEiCBAROg6DBgdLyQBEiABAJCgKJDQDBGRiAUHSLDjswFCZAACZAACZBALwGKDr0s6CIBEiCBoSBA0WEoqA/TOCk6DFPDMFkkQAIkQAIkQAIDJkDRYcDoeCEJkAAJBIQARYeAYIyMQCg6RIYdmQsSIAESIAESIIFeAkMiOsgKc4NfZa43E3SRAAmQQBgToOgQxsYLdNIpOgSaKMMjARIgARIgARIYagIUHYbaAoyfBEgg2glQdIj2EmDIP0UHAww6SYAESIAESIAEIoIARYeIMCMzQQIkEMYEKDqEsfECnXSKDoEmyvBIgARIgARIgASGmgBFh6G2AOMnARKIdgIUHaK9BBjyT9HBAINOEiABEiABEiCBiCBA0SEizMhMkAAJhDEBig5hbLxAJ52iQ6CJMjwSIAESIAESIIGhJkDRYagtwPhJgASinQBFh2gvAYb8U3QwwKCTBEiABEiABEggIghQdIgIMzITJEACYUyAokMYGy/QSafoEGiiDI8ESIAESIAESGCoCVB0GGoLMH4SIIFoJ0DRIdpLgCH/FB0MMOgkARIgARIgARKICAIUHSLCjMwECZBAGBOg6BDGxgt00ik6BJoowyMBEiABEiABEhhqAhQdhtoCjJ8ESCDaCVB0iPYSYMg/RQcDDDpJgARIgARIgAQiggBFh4gwIzNBAiQQxgQoOoSx8QKddIoOgSbK8EiABEiABEiABIaaAEWHobYA4ycBEoh2AhQdor0EGPJP0cEAg04SIAESIAESIIGIIEDRISLMyEyQAAmEMQGKDmFsvEAnnaJDoIkyPBIgARIgARIggaEmQNFhqC3A+EmABKKdAEWHaC8BhvxTdDDAoJMESIAESIAESCAiCFB0iAgzMhMkQAJhTICiQxgbL9BJp+gQaKIMjwRIgARIgARIYKgJUHQYagswfhIggWgnQNEh2kuAIf8UHQww6CQBEiABEiABEogIAhQdIsKMzAQJkEAYE6DoEMbGC3TSKToEmijDIwESIAESIAESGGoCFB2G2gKMnwRIINoJUHSI9hJgyD9FBwMMOkmABEiABEiABCKCAEWHiDAjM0ECJBDGBCg6hLHxAp10ig6BJsrwSIAESIAESIAEhpoARYehtgDjJwESiHYCFB2ivQQY8k/RwQCDThIgARIgARIggYggQNEhIszITJAACYQxAYoOYWy8QCedokOgiTI8EiABEiABEiCBoSZA0WGoLcD4SYAEop0ARYdoLwGG/FN0MMCgkwRIgARIgARIICIIUHSICDMyEyRAAmFMgKJDGBsv0Emn6BBoogyPBEiABEiABEhgqAlQdBhqCzB+EiCBaCdA0SHaS4Ah/xQdDDDoJAESIAESIAESiAgCFB0iwozMBAmQQBgToOgQxsYLdNIpOgSaKMMjARIgARIgARIYagIUHYbaAoyfBEgg2glQdIj2EmDIP0UHAww6SYAESIAESIAEIoIARYeIMCMzQQIkEMYEKDqEsfECnXSKDoEmyvBIgARIgARIgASGmgBFh6G2AOMnARKIdgIUHaK9BBjyT9HBAINOEiABEiABEiCBiCBA0SEizMhMkAAJhDEBig5hbLxAJ52iQ6CJMjwSIAESIAESIIGhJkDRYagtwPhJgASinQBFh2gvAYb8U3QwwKCTBEiABEiABEggIghQdIgIMzITJEACYUyAokMYGy/QSafoEGiiDI8ESIAESIAESGCoCVB0GGoLMH4SIIFoJ0DRIdpLgCH/FB0MMOgkARIgARIgARKICAIUHSLCjMwECZBAGBOg6BDGxgt00ik6BJoowyMBEiABEiABEhhqAhQdhtoCjJ8ESCDaCVB0iPYSYMg/RQcDDDpJgARIgARIgAQiggBFh4gwIzNBAiQQxgQoOoSx8QKddIoOgSbK8EiABEiABEiABIaaAEWHobYA4ycBEoh2AhQdor0EGPJP0cEAg04SIAESIAESIIGIIEDRISLMyEyQAAmEMQGKDmFsvEAnnaJDoIkyPBIgARIgARIggaEmQNFhqC3A+EmABKKdAEWHaC8BhvxTdDDAoJMESIAESIAESCAiCFB0iAgzMhMkQAJhTOD/A76h5CSiVphtAAAAAElFTkSuQmCC;" vertex="1" parent="1">
          <mxGeometry x="-101" y="70" width="1053" height="405" as="geometry" />
        </mxCell>
      </root>
    </mxGraphModel>
  </diagram>
</mxfile>
